<?xml version="1.0" encoding="utf-8"?>
<!-- Generator: Adobe Illustrator 25.3.0, SVG Export Plug-In . SVG Version: 6.00 Build 0)  -->
<svg version="1.1" id="Layer_1" xmlns="http://www.w3.org/2000/svg" xmlns:xlink="http://www.w3.org/1999/xlink" x="0px" y="0px"
	 viewBox="0 0 512 512" style="enable-background:new 0 0 512 512;" xml:space="preserve">
<style type="text/css">
	.st0{fill:#233E8B;}
	.st1{opacity:0.8;fill:#1EAE98;}
	.st2{opacity:0.8;fill:#FFFFC7;}
	.st3{opacity:0.8;fill:#233E8B;}
</style>
<path class="st0" d="M256,256L256,256C-320,256,256,832,256,256L256,256C256-320-320,256,256,256L256,256C832,256,256-320,256,256
	L256,256C256,832,832,256,256,256z"/>
<path class="st1" d="M256,256L256,256C719.5,256,256-207.5,256,256L256,256C256,719.5,719.5,256,256,256L256,256
	C-207.5,256,256,719.5,256,256L256,256C256-207.5-207.5,256,256,256z"/>
<path class="st2" d="M256,256L256,256C607,256,256-95,256,256L256,256C256,607,607,256,256,256L256,256C-95,256,256,607,256,256
	L256,256C256-95-95,256,256,256z"/>
<path class="st3" d="M256,256L256,256C494.5,256,256,17.5,256,256L256,256C256,494.5,494.5,256,256,256L256,256
	C17.5,256,256,494.5,256,256L256,256C256,17.5,17.5,256,256,256z"/>
<path class="st1" d="M256,256L256,256C382,256,256,130,256,256L256,256C256,382,382,256,256,256L256,256C130,256,256,382,256,256
	L256,256C256,130,130,256,256,256z"/>
<path class="st2" d="M256,256L256,256C269.5,256,256,242.5,256,256L256,256C256,269.5,269.5,256,256,256L256,256
	C242.5,256,256,269.5,256,256L256,256C256,242.5,242.5,256,256,256z"/>
</svg>
