<svg width="97" height="92" viewBox="0 0 97 92" fill="none" xmlns="http://www.w3.org/2000/svg">
  <path
    d="M61.8467 5.57397L60.9381 3.26633C60.9381 3.26633 60.5646 2.18497 60.3807 1.85611C60.2971 1.70003 60.102 1.47706 59.9292 1.30427C59.0374 0.412425 57.7832 0.0278209 56.6684 0.384558C55.9772 0.607519 55.3195 0.914096 55.3195 0.914096C55.3195 0.914096 55.3139 0.908522 55.3139 0.914096L53.0119 1.92299C52.2594 2.25186 51.4902 2.49711 50.6986 2.66433C49.0543 3.00992 47.3598 3.00992 45.7266 2.66433C44.9351 2.49711 44.1603 2.25186 43.4078 1.92299L41.2507 0.980982C41.2507 0.980982 40.0355 0.390131 39.6063 0.261929C38.5361 -0.05579 37.3377 0.418012 36.4905 1.26526C36.3456 1.41019 36.1114 1.72232 36.0167 1.90069C35.8216 2.27415 35.476 3.3165 35.476 3.3165L34.5842 5.58512C34.2832 6.34876 33.9097 7.0678 33.4694 7.74783C34.1048 7.61405 34.8127 7.70323 35.5875 8.04325L39.0211 9.54266L41.9196 10.808L42.031 10.8581L45.4925 12.3631C47.226 13.1212 49.1992 13.1212 50.9327 12.3687L54.3942 10.8581L54.5057 10.808L57.4042 9.54266L60.8378 8.04325C61.6126 7.70881 62.3205 7.60848 62.9559 7.74783C62.5211 7.05665 62.1477 6.3376 61.8467 5.57397Z"
    fill="#E3E3E3" />
  <path
    d="M68.6136 39.6534L70.9213 38.7449L72.3315 38.1875H72.3371L72.3426 38.1819C72.5377 38.0481 72.7105 37.9032 72.8833 37.736C73.7751 36.8441 74.0984 35.5955 73.8532 34.4529C73.8588 34.4473 73.8532 34.4473 73.8532 34.4473L73.8476 34.4417L73.2735 33.1263C73.2735 33.1263 73.2791 33.1207 73.2735 33.1207L72.2702 30.8186C71.9413 30.0661 71.696 29.2969 71.5288 28.5054C71.1832 26.8611 71.1832 25.1666 71.5288 23.5334C71.696 22.7419 71.9413 21.9671 72.2702 21.2146L73.2122 19.0574L73.9312 17.4131C74.1096 16.315 73.7751 15.1445 72.9279 14.2972C72.783 14.1523 72.6213 14.0185 72.4597 13.9015L70.8822 13.2828L68.6136 12.3909C67.85 12.0899 67.1309 11.7165 66.4509 11.2761C66.5847 11.9116 66.4955 12.6195 66.1555 13.3942L64.6561 16.8278L63.3908 19.7263L63.3406 19.8378L61.8356 23.2993C61.0775 25.0328 61.0775 27.006 61.83 28.7395L63.3406 32.201L63.3908 32.3124L64.6561 35.2109L66.1555 38.6445C66.4899 39.4193 66.5902 40.1272 66.4509 40.7627C67.1253 40.3279 67.85 39.9544 68.6136 39.6534Z"
    fill="#E3E3E3" />
  <path
    d="M34.5229 46.4258L35.4315 48.7334C35.4315 48.7334 35.805 49.8148 35.9889 50.1436C36.0725 50.2997 36.2676 50.5227 36.4404 50.6955C37.3322 51.5873 38.5864 51.9719 39.7012 51.6152C40.3924 51.3922 41.0501 51.0856 41.0501 51.0856C41.0501 51.0856 41.0557 51.0912 41.0557 51.0856L43.3577 50.0768C44.1102 49.7479 44.8794 49.5026 45.671 49.3354C47.3153 48.9898 49.0098 48.9898 50.643 49.3354C51.4345 49.5026 52.2093 49.7479 52.9618 50.0768L55.1189 51.0188C55.1189 51.0188 56.334 51.6096 56.7632 51.7378C57.8335 52.0555 59.0319 51.5818 59.8791 50.7345C60.024 50.5896 60.2582 50.2774 60.3529 50.0991C60.548 49.7256 60.8936 48.6833 60.8936 48.6833L61.7854 46.4146C62.0864 45.651 62.4599 44.9319 62.9002 44.2519C62.2648 44.3857 61.5569 44.2965 60.7821 43.9565L57.3485 42.4571L54.45 41.1918L54.3386 41.1416L50.8771 39.6366C49.1436 38.8786 47.1704 38.8786 45.4369 39.6311L41.9754 41.1416L41.8639 41.1918L38.9654 42.4571L35.5318 43.9565C34.757 44.2909 34.0491 44.3913 33.4137 44.2519C33.8485 44.9431 34.2219 45.6621 34.5229 46.4258Z"
    fill="#E3E3E3" />
  <path
    d="M27.7616 12.3463L25.454 13.2549L24.0437 13.8123H24.0382L24.0326 13.8178C23.8375 13.9516 23.6647 14.0965 23.4919 14.2637C22.6001 15.1556 22.2768 16.4042 22.522 17.5468C22.5165 17.5524 22.522 17.5524 22.522 17.5524L22.5276 17.558L23.1017 18.8735C23.1017 18.8735 23.0961 18.879 23.1017 18.879L24.105 21.1811C24.4339 21.9336 24.6792 22.7028 24.8464 23.4943C25.192 25.1386 25.192 26.8332 24.8464 28.4663C24.6792 29.2579 24.4339 30.0326 24.105 30.7851L23.163 32.9423L22.444 34.5866C22.2656 35.6847 22.6001 36.8552 23.4473 37.7025C23.5922 37.8474 23.7539 37.9812 23.9155 38.0982L25.493 38.7169L27.7616 39.6088C28.5252 39.9098 29.2443 40.2832 29.9243 40.7236C29.7905 40.0882 29.8797 39.3803 30.2197 38.6055L31.7192 35.1719L32.9844 32.2734L33.0346 32.1619L34.5396 28.7005C35.2977 26.9669 35.2977 24.9937 34.5452 23.2602L33.0346 19.7988L32.9844 19.6873L31.7192 16.7888L30.2197 13.3552C29.8853 12.5804 29.785 11.8725 29.9243 11.2371C29.2443 11.6718 28.5252 12.0453 27.7616 12.3463Z"
    fill="#E3E3E3" />
  <path
    d="M43.3856 1.68893L41.0947 0.68561C41.0947 0.68561 40.0579 0.178371 39.69 0.0724649C39.5172 0.0222988 39.2162 0 38.9766 0C37.7001 0 36.5351 0.62429 35.9945 1.6722C35.66 2.32436 35.4092 3.00996 35.4092 3.00996C35.4092 3.00996 35.4036 3.00997 35.4036 3.01554L34.4783 5.37336C34.1773 6.14257 33.8039 6.8672 33.358 7.5528C32.4327 8.97417 31.2231 10.1837 29.8129 11.0979C29.1329 11.5438 28.3971 11.9228 27.6279 12.2238L25.415 13.0934C25.415 13.0934 24.1274 13.5393 23.7261 13.7511C22.7395 14.2862 22.2211 15.479 22.2211 16.6886C22.2211 16.8948 22.2768 17.285 22.3381 17.4745C22.4663 17.8814 22.9568 18.868 22.9568 18.868L23.9434 21.12C24.211 21.7331 24.4228 22.363 24.5845 23.004C24.629 23.1768 24.8409 23.2381 24.9635 23.1043C25.3146 22.7197 25.7996 22.402 26.4127 22.1623L29.9299 20.7799L32.9009 19.615L33.0179 19.5704L36.5574 18.1713C38.3355 17.4745 39.7402 16.0643 40.437 14.2973L41.8305 10.7523L41.8751 10.6352L43.04 7.66427L44.4224 4.14707C44.6676 3.53393 44.9798 3.04898 45.37 2.69782C45.5037 2.57519 45.4424 2.36338 45.2696 2.31879C44.6286 2.16829 43.9987 1.95648 43.3856 1.68893Z"
    fill="#C2C2C2" />
  <path
    d="M72.5211 21.1701L73.5244 18.8792L74.1375 17.4745L74.1431 17.469V17.4634C74.1877 17.2349 74.21 17.0007 74.21 16.7611C74.21 15.4846 73.5522 14.3698 72.5601 13.7232C72.5601 13.7176 72.5545 13.7177 72.5545 13.7177H72.5489L71.2 13.1881C71.2 13.1881 71.2 13.1825 71.1944 13.1825L68.8366 12.2573C68.0674 11.9563 67.3428 11.5828 66.6572 11.1369C65.2358 10.2116 64.0263 9.00203 63.1121 7.59181C62.6662 6.91178 62.2872 6.17602 61.9862 5.4068L61.1166 3.19392L60.47 1.53843C60.4645 1.51614 60.4533 1.49941 60.4366 1.47711C59.7789 0.579694 58.7198 0 57.5214 0C57.3151 0 57.1033 0.0167254 56.9082 0.0557435L55.3419 0.735774L53.09 1.72237C52.4769 1.98992 51.847 2.20175 51.206 2.36339C51.0332 2.40799 50.9719 2.61979 51.1057 2.74242C51.4903 3.09359 51.808 3.57853 52.0477 4.19167L53.4301 7.70887L54.595 10.6798L54.6396 10.7969L56.0387 14.3364C56.7354 16.1145 58.1457 17.5191 59.9182 18.2159L63.4633 19.6094L63.5803 19.654L66.5513 20.8189L70.0685 22.2013C70.6816 22.4466 71.1666 22.7587 71.5177 23.1489C71.6404 23.2827 71.8522 23.2213 71.8968 23.0486C72.0417 22.4131 72.2535 21.7833 72.5211 21.1701Z"
    fill="#757575" />
  <path
    d="M53.0398 50.3112L55.3307 51.3145C55.3307 51.3145 56.3675 51.8218 56.7354 51.9277C56.9082 51.9778 57.2092 52.0001 57.4489 52.0001C58.7253 52.0001 59.8903 51.3759 60.4309 50.3279C60.7654 49.6758 61.0162 48.9902 61.0162 48.9902C61.0162 48.9902 61.0218 48.9902 61.0218 48.9846L61.9471 46.6268C62.2481 45.8576 62.6215 45.133 63.0675 44.4474C63.9927 43.026 65.2023 41.8164 66.6125 40.9023C67.2926 40.4564 68.0283 40.0773 68.7975 39.7763L71.0104 38.9068C71.0104 38.9068 72.298 38.4609 72.6993 38.249C73.6859 37.7139 74.2043 36.5211 74.2043 35.3115C74.2043 35.1053 74.1486 34.7151 74.0873 34.5256C73.9591 34.1187 73.4686 33.1321 73.4686 33.1321L72.482 30.8802C72.2144 30.2671 72.0026 29.6372 71.841 28.9962C71.7964 28.8234 71.5846 28.7621 71.4619 28.8958C71.1108 29.2805 70.6258 29.5982 70.0127 29.8379L66.4955 31.2202L63.5245 32.3852L63.4075 32.4298L59.868 33.8289C58.0899 34.5256 56.6852 35.9358 55.9885 37.7028L54.595 41.2479L54.5504 41.3649L53.3854 44.3359L52.003 47.8531C51.7578 48.4662 51.4456 48.9512 51.0555 49.3023C50.9217 49.425 50.983 49.6368 51.1558 49.6814C51.7968 49.8319 52.4267 50.0492 53.0398 50.3112Z"
    fill="#C2C2C2" />
  <path
    d="M23.9044 30.8299L22.9011 33.1209L22.2935 34.5255L22.288 34.5311V34.5367C22.2434 34.7652 22.2211 34.9993 22.2211 35.239C22.2211 36.5154 22.8788 37.6302 23.871 38.2768C23.871 38.2824 23.8766 38.2824 23.8766 38.2824H23.8821L25.231 38.8119C25.231 38.8119 25.231 38.8175 25.2366 38.8175L27.5944 39.7428C28.3636 40.0438 29.0883 40.4172 29.7739 40.8632C31.1952 41.7885 32.4048 42.998 33.3189 44.4082C33.7649 45.0883 34.1439 45.824 34.4449 46.5933L35.3144 48.8061L35.961 50.4616C35.9666 50.4839 35.9777 50.5006 35.9945 50.5229C36.6522 51.4204 37.7113 52.0001 38.9097 52.0001C39.1159 52.0001 39.3277 51.9833 39.5228 51.9443L41.0891 51.2643L43.341 50.2777C43.9542 50.0101 44.584 49.7983 45.225 49.6367C45.3978 49.5921 45.4591 49.3803 45.3254 49.2576C44.9408 48.9065 44.623 48.4215 44.3834 47.8084L43.001 44.2912L41.836 41.3202L41.7914 41.2032L40.3924 37.6637C39.6956 35.8856 38.2854 34.4809 36.5128 33.7842L32.9678 32.3907L32.8507 32.3461L29.8798 31.1811L26.3626 29.7987C25.7494 29.5535 25.2645 29.2414 24.9133 28.8512C24.7907 28.7174 24.5789 28.7787 24.5343 28.9515C24.3838 29.5925 24.172 30.2168 23.9044 30.8299Z"
    fill="#757575" />
  <path
    d="M9.50449 70.8886C9.12594 70.382 8.66004 70.0034 8.10677 69.7472C7.55351 69.4968 6.97695 69.3686 6.37127 69.3686C5.67823 69.3686 5.03761 69.5084 4.45523 69.7938C3.87285 70.0791 3.36617 70.4577 2.94103 70.9352C2.5159 71.4128 2.18394 71.966 1.95099 72.595C1.71221 73.224 1.59573 73.8821 1.59573 74.5693C1.59573 75.3031 1.71221 75.9845 1.95099 76.6135C2.18394 77.2424 2.51589 77.7899 2.93521 78.2558C3.35453 78.7217 3.85538 79.0886 4.43776 79.3623C5.02014 79.636 5.66659 79.77 6.37709 79.77C7.14584 79.77 7.82723 79.6186 8.42708 79.3216C9.02693 79.0187 9.55108 78.5877 9.99952 78.0228L11.1119 78.9605C10.547 79.7176 9.86556 80.2708 9.0677 80.6261C8.26984 80.9813 7.37297 81.1561 6.37127 81.1561C5.4744 81.1561 4.63577 80.993 3.8612 80.661C3.08081 80.3291 2.40524 79.8748 1.83451 79.2924C1.26377 78.71 0.815338 78.017 0.489204 77.2133C0.163069 76.4096 0 75.5361 0 74.5809C0 73.6608 0.157245 72.7989 0.465908 72.001C0.780395 71.1973 1.21718 70.5043 1.78209 69.9161C2.34701 69.3279 3.02257 68.8619 3.79714 68.5183C4.57753 68.1747 5.42781 68.0059 6.35962 68.0059C7.2099 68.0059 8.02524 68.1573 8.81145 68.4659C9.59767 68.7746 10.2499 69.2755 10.7857 69.9685L9.50449 70.8886Z"
    fill="#757575" />
  <path
    d="M20.331 81.1502C19.3759 81.1502 18.5023 80.9871 17.7044 80.6552C16.9066 80.3232 16.2193 79.869 15.637 79.2866C15.0546 78.7042 14.6003 78.0053 14.2742 77.2016C13.948 76.3921 13.785 75.5186 13.785 74.5751C13.785 73.6316 13.948 72.7581 14.2742 71.9486C14.6003 71.139 15.0546 70.446 15.637 69.8636C16.2193 69.2812 16.9124 68.8212 17.7044 68.495C18.5023 68.1631 19.3759 68 20.331 68C21.2861 68 22.1596 68.1631 22.9575 68.495C23.7554 68.827 24.4426 69.2812 25.025 69.8636C25.6073 70.446 26.0616 71.1449 26.3877 71.9486C26.7139 72.7581 26.8769 73.6316 26.8769 74.5751C26.8769 75.5186 26.7139 76.3921 26.3877 77.2016C26.0616 78.0112 25.6073 78.7042 25.025 79.2866C24.4426 79.869 23.7495 80.3291 22.9575 80.6552C22.1596 80.9813 21.2861 81.1502 20.331 81.1502ZM20.331 79.77C21.0648 79.77 21.7287 79.636 22.3402 79.3623C22.9459 79.0886 23.47 78.7217 23.9068 78.2499C24.3436 77.7782 24.6814 77.2249 24.926 76.596C25.1647 75.967 25.287 75.2914 25.287 74.5693C25.287 73.8529 25.1647 73.1774 24.926 72.5426C24.6814 71.9136 24.3436 71.3603 23.9068 70.8886C23.47 70.4169 22.9459 70.0442 22.3402 69.7763C21.7345 69.5025 21.0648 69.3686 20.331 69.3686C19.5972 69.3686 18.9332 69.5025 18.3217 69.7763C17.7161 70.05 17.1919 70.4169 16.7551 70.8886C16.3183 71.3603 15.9806 71.9136 15.736 72.5426C15.4914 73.1716 15.3749 73.8471 15.3749 74.5693C15.3749 75.2856 15.4972 75.9612 15.736 76.596C15.9747 77.2249 16.3183 77.7782 16.7551 78.2499C17.1919 78.7217 17.7102 79.0944 18.3217 79.3623C18.9274 79.636 19.5972 79.77 20.331 79.77Z"
    fill="#757575" />
  <path
    d="M30.5868 68.3086H32.7998L37.0454 78.1217H37.0804L41.3609 68.3086H43.5157V80.8298H42.0306V70.3236H41.9957L37.5055 80.8298H36.6028L32.1126 70.3236H32.0777V80.8298H30.5926V68.3086H30.5868Z"
    fill="#757575" />
  <path
    d="M47.9534 68.3086H51.669C52.2455 68.3086 52.7988 68.3668 53.3229 68.4775C53.8471 68.5881 54.313 68.7803 54.7207 69.0424C55.1283 69.3103 55.4545 69.6597 55.6932 70.1023C55.932 70.5449 56.0543 71.0924 56.0543 71.7388C56.0543 72.4202 55.9262 72.991 55.6641 73.4394C55.402 73.8878 55.0701 74.2431 54.6624 74.4993C54.2548 74.7614 53.8121 74.9419 53.3288 75.0468C52.8454 75.1516 52.3853 75.204 51.9485 75.204H49.4384V80.8298H47.9534V68.3086ZM49.4384 73.8238H51.9485C52.694 73.8238 53.2938 73.6549 53.7597 73.3171C54.2256 72.9793 54.4586 72.461 54.4586 71.7505C54.4586 71.04 54.2256 70.5216 53.7597 70.1839C53.2938 69.8461 52.6881 69.683 51.9485 69.683H49.4384V73.8238Z"
    fill="#757575" />
  <path
    d="M62.5304 68.3086H63.9281L69.2511 80.8298H67.5156L66.2402 77.7548H59.9796L58.6867 80.8298H57.0036L62.5304 68.3086ZM63.2002 70.2188H63.1652L60.5678 76.3746H65.6811L63.2002 70.2188Z"
    fill="#757575" />
  <path
    d="M72.2388 68.3086H74.114L81.3647 78.7099H81.3996V68.3086H82.8847V80.8298H81.0095L73.7588 70.4285H73.7238V80.8298H72.2388V68.3086Z"
    fill="#757575" />
  <path
    d="M90.2751 75.437L85.6044 68.3086H87.4972L91.0148 73.9694L94.643 68.3086H96.4309L91.7602 75.437V80.8298H90.2751V75.437Z"
    fill="#757575" />
  <path
    d="M30.6217 86.8925C30.4936 86.7119 30.3305 86.5722 30.1325 86.4615C29.9345 86.3508 29.6899 86.2984 29.4045 86.2984C29.2589 86.2984 29.1133 86.3217 28.9619 86.3625C28.8105 86.4091 28.6765 86.4731 28.5542 86.5663C28.4319 86.6595 28.3329 86.776 28.2572 86.9099C28.1815 87.0497 28.1466 87.2128 28.1466 87.405C28.1466 87.5971 28.1815 87.7486 28.2572 87.8709C28.3271 87.9932 28.4261 88.098 28.5426 88.1854C28.6591 88.2727 28.7988 88.3426 28.9503 88.4008C29.1017 88.4591 29.2647 88.5115 29.4278 88.5697C29.6316 88.6338 29.8413 88.7095 30.0451 88.7852C30.2548 88.8609 30.4412 88.9657 30.6042 89.088C30.7731 89.2103 30.9071 89.3734 31.0119 89.5656C31.1167 89.7578 31.1691 90.0024 31.1691 90.2936C31.1691 90.5906 31.1109 90.841 31.0002 91.0565C30.8896 91.272 30.744 91.4467 30.5635 91.5865C30.3829 91.7262 30.1791 91.8311 29.9461 91.8951C29.7132 91.9592 29.486 91.9941 29.2473 91.9941C29.0667 91.9941 28.892 91.9767 28.7115 91.9417C28.5309 91.9068 28.3621 91.8485 28.2048 91.7786C28.0417 91.7088 27.8961 91.6156 27.7564 91.5049C27.6166 91.3943 27.4943 91.2662 27.3895 91.1206L27.9078 90.7362C28.0359 90.9458 28.2164 91.1264 28.4436 91.2662C28.6765 91.4059 28.9444 91.4816 29.2589 91.4816C29.4103 91.4816 29.5618 91.4583 29.719 91.4118C29.8762 91.3652 30.016 91.2894 30.1383 91.1963C30.2606 91.0973 30.3654 90.9808 30.447 90.8352C30.5285 90.6954 30.5693 90.5265 30.5693 90.3402C30.5693 90.1363 30.5285 89.9616 30.447 89.8277C30.3654 89.6937 30.2606 89.5772 30.1267 89.4841C29.9927 89.3909 29.8413 89.3152 29.6666 89.2569C29.4919 89.1987 29.3113 89.1346 29.125 89.0706C28.9328 89.0123 28.7406 88.9425 28.5484 88.8609C28.3562 88.7852 28.1873 88.6804 28.0417 88.5581C27.8903 88.4299 27.768 88.2785 27.6807 88.0922C27.5933 87.9058 27.5409 87.6845 27.5409 87.4166C27.5409 87.1312 27.5991 86.8866 27.7098 86.6828C27.8263 86.479 27.9719 86.3101 28.1582 86.1761C28.3388 86.0422 28.5426 85.9432 28.7697 85.8849C28.991 85.8209 29.2123 85.7917 29.4278 85.7917C29.8296 85.7917 30.1674 85.8616 30.4528 86.0072C30.7382 86.147 30.9478 86.3159 31.0934 86.5139L30.6217 86.8925Z"
    fill="#C2C2C2" />
  <path d="M34.7333 91.3185H37.488V91.8543H34.1335V85.949H34.7333V91.3185Z" fill="#C2C2C2" />
  <path
    d="M45.6472 88.8959C45.6472 89.3443 45.5715 89.7578 45.4142 90.1364C45.257 90.5149 45.0415 90.841 44.7678 91.1148C44.4941 91.3885 44.168 91.604 43.7894 91.7612C43.4167 91.9184 43.009 91.9942 42.5664 91.9942C42.1296 91.9942 41.7219 91.9184 41.3434 91.7612C40.9707 91.604 40.6445 91.3885 40.365 91.1148C40.0913 90.841 39.8758 90.5149 39.7185 90.1364C39.5613 89.7578 39.4856 89.3443 39.4856 88.8959C39.4856 88.4475 39.5613 88.034 39.7185 87.6554C39.8758 87.2769 40.0913 86.9507 40.365 86.677C40.6387 86.4033 40.9648 86.1878 41.3434 86.0306C41.7161 85.8733 42.1238 85.7976 42.5664 85.7976C43.0032 85.7976 43.4109 85.8733 43.7894 86.0306C44.1621 86.1878 44.4883 86.4033 44.7678 86.677C45.0415 86.9507 45.257 87.2769 45.4142 87.6554C45.5715 88.034 45.6472 88.4475 45.6472 88.8959ZM45.0124 88.9017C45.0124 88.5581 44.9542 88.232 44.8435 87.9175C44.7329 87.6088 44.5698 87.3351 44.3601 87.0963C44.1505 86.8634 43.8942 86.6712 43.5914 86.5314C43.2886 86.3916 42.945 86.3217 42.5722 86.3217C42.1937 86.3217 41.8559 86.3916 41.5531 86.5314C41.2502 86.6712 40.994 86.8576 40.7843 87.0963C40.5746 87.3351 40.4116 87.6088 40.3009 87.9175C40.1903 88.2262 40.132 88.5581 40.132 88.9017C40.132 89.2453 40.1903 89.5714 40.3009 89.8859C40.4116 90.1946 40.5746 90.4683 40.7843 90.7013C40.994 90.9342 41.2502 91.1206 41.5531 91.2604C41.8559 91.4001 42.1995 91.47 42.5722 91.47C42.9508 91.47 43.2886 91.4001 43.5914 91.2604C43.8942 91.1206 44.1505 90.9342 44.3601 90.7013C44.5698 90.4683 44.7329 90.1946 44.8435 89.8859C44.96 89.5714 45.0124 89.2453 45.0124 88.9017Z"
    fill="#C2C2C2" />
  <path
    d="M53.0493 87.009C52.8454 86.7935 52.6008 86.6246 52.3155 86.5023C52.0301 86.38 51.704 86.3218 51.3371 86.3218C50.9585 86.3218 50.6207 86.3917 50.3179 86.5314C50.015 86.6712 49.7588 86.8576 49.5491 87.0964C49.3395 87.3351 49.1764 87.6089 49.0599 87.9175C48.9435 88.2262 48.891 88.5581 48.891 88.9017C48.891 89.2453 48.9493 89.5715 49.0599 89.886C49.1764 90.1946 49.3395 90.4684 49.5491 90.7013C49.7588 90.9343 50.015 91.1206 50.3179 91.2604C50.6207 91.4002 50.9643 91.47 51.3371 91.47C51.669 91.47 51.9777 91.4351 52.2572 91.3594C52.5368 91.2895 52.7581 91.1963 52.9328 91.0857V89.2919H51.5584V88.7561H53.5326V91.4235C53.2123 91.6156 52.8629 91.7612 52.4902 91.8602C52.1174 91.9534 51.7331 92 51.3312 92C50.8886 92 50.4751 91.9243 50.0966 91.7671C49.718 91.6098 49.3919 91.3943 49.1182 91.1206C48.8445 90.8469 48.6348 90.5208 48.4776 90.1422C48.3261 89.7637 48.2504 89.3502 48.2504 88.9017C48.2504 88.4533 48.3261 88.0398 48.4834 87.6613C48.6406 87.2827 48.8561 86.9566 49.1298 86.6829C49.4035 86.4091 49.7297 86.1937 50.1082 86.0364C50.481 85.8792 50.8886 85.8035 51.3312 85.8035C51.803 85.8035 52.2165 85.8733 52.5659 86.0131C52.9153 86.1529 53.2181 86.3509 53.4686 86.6013L53.0493 87.009Z"
    fill="#C2C2C2" />
  <path
    d="M56.695 91.8485H56.0369L58.5877 85.9431H59.1701L61.7034 91.8485H61.0337L60.3814 90.2993H57.3298L56.695 91.8485ZM57.5569 89.7461H60.1601L58.8614 86.607L57.5569 89.7461Z"
    fill="#C2C2C2" />
  <path
    d="M68.4301 90.9749H68.4475V85.9431H69.0474V91.8485H68.2961L64.8601 86.7701H64.8426V91.8485H64.2427V85.9431H64.994L68.4301 90.9749Z"
    fill="#C2C2C2" />
</svg>