<svg width="97" height="92" viewBox="0 0 97 92" fill="none" xmlns="http://www.w3.org/2000/svg">
  <path
    d="M69.7811 14.3726C66.427 10.6318 61.6707 8.7373 55.6424 8.7373H52.7668C53.2874 10.6274 53.5476 12.8326 53.5476 15.3877C53.5476 15.6371 53.5434 15.8777 53.5392 16.1184H55.6466C59.6934 16.1184 62.6236 17.1947 64.6134 19.4129C66.6368 21.6706 67.6653 25.3852 67.6653 30.4474C67.6653 35.4702 66.6452 39.141 64.6302 41.3593C62.6404 43.5513 59.7018 44.6188 55.6508 44.6188H50.9575C46.9023 44.6188 43.9679 43.5513 41.9781 41.3593C40.0009 39.1804 38.9807 35.597 38.9472 30.7143H35.8323C34.3924 30.7143 33.07 30.5699 31.861 30.2899C31.861 30.3424 31.8568 30.3949 31.8568 30.4474C31.8568 37.4215 33.5318 42.7987 36.8272 46.4346C40.1772 50.1273 44.9292 51.9999 50.9533 51.9999H55.6466C61.6665 51.9999 66.4186 50.1273 69.7727 46.4346C73.0723 42.7987 74.7431 37.4215 74.7431 30.4474C74.7389 23.4469 73.0681 18.0391 69.7811 14.3726Z"
    fill="#757575" />
  <path
    d="M53.5353 16.1142C53.4387 20.8133 52.4144 24.2829 50.412 26.698C48.2039 29.3625 44.8749 30.7145 40.5132 30.7145H38.9348C38.9348 30.627 38.9306 30.5395 38.9306 30.4432C38.9306 27.6562 39.2412 25.2848 39.8583 23.329C40.3663 21.7365 41.0673 20.4195 41.9825 19.4044C43.1327 18.1181 44.6062 17.2212 46.4281 16.6874C47.7505 16.3024 49.245 16.1099 50.9451 16.1099H53.5353V16.1142Z"
    fill="#C2C2C2" />
  <path
    d="M52.7628 8.73303H50.9451C48.9552 8.73303 47.1081 8.94742 45.3954 9.35869C41.9278 10.1944 39.0523 11.8701 36.8064 14.3727C34.8249 16.5822 33.4396 19.4262 32.6462 22.8607C32.1298 25.0921 31.8654 27.5685 31.8528 30.2943C29.3382 29.708 27.3274 28.5136 25.8455 26.7285C23.7549 24.204 22.7432 20.5112 22.7432 15.4403C22.7432 10.3387 23.7633 6.61541 25.8623 4.05588C28.0704 1.36509 31.4204 0 35.8198 0H40.5131C44.9168 0 48.2668 1.36947 50.4623 4.069C51.4866 5.33345 52.2506 6.8823 52.7628 8.73303Z"
    fill="#C2C2C2" />
  <path
    d="M10.0416 70.8879C9.66316 70.3814 9.19735 70.0029 8.64422 69.7467C8.09109 69.4964 7.51468 69.3683 6.90915 69.3683C6.21629 69.3683 5.5758 69.508 4.99356 69.7933C4.41131 70.0786 3.90478 70.457 3.47974 70.9345C3.05471 71.4119 2.72282 71.9651 2.48992 72.5939C2.2512 73.2227 2.13477 73.8806 2.13477 74.5677C2.13477 75.3013 2.2512 75.9825 2.48992 76.6113C2.72282 77.2402 3.0547 77.7875 3.47391 78.2533C3.89313 78.7191 4.39387 79.0859 4.97611 79.3595C5.55835 79.6332 6.20461 79.7671 6.91495 79.7671C7.6835 79.7671 8.36474 79.6157 8.96445 79.3188C9.56416 79.016 10.0882 78.5851 10.5365 78.0204L11.6486 78.9578C11.0838 79.7147 10.4026 80.2678 9.60493 80.623C8.80726 80.9782 7.91061 81.1528 6.90915 81.1528C6.0125 81.1528 5.17407 80.9898 4.39969 80.6579C3.61949 80.326 2.94407 79.8719 2.37347 79.2897C1.80287 78.7074 1.35455 78.0145 1.02849 77.211C0.702436 76.4076 0.539429 75.5342 0.539429 74.5735C0.539429 73.6536 0.696627 72.7918 1.00521 71.9942C1.31963 71.1907 1.75631 70.4978 2.32109 69.9098C2.88586 69.3217 3.56124 68.8559 4.33562 68.5124C5.11582 68.1688 5.96591 68 6.8975 68C7.74757 68 8.56272 68.1514 9.34875 68.46C10.1348 68.7685 10.7869 69.2693 11.3225 69.9622L10.0416 70.8879Z"
    fill="#757575" />
  <path
    d="M20.8598 81.147C19.9049 81.147 19.0315 80.984 18.2338 80.6521C17.4362 80.3202 16.7491 79.8661 16.1669 79.2838C15.5847 78.7016 15.1305 78.0029 14.8045 77.1994C14.4784 76.3901 14.3154 75.5167 14.3154 74.5735C14.3154 73.6303 14.4784 72.7569 14.8045 71.9476C15.1305 71.1383 15.5847 70.4454 16.1669 69.8632C16.7491 69.2809 17.442 68.8209 18.2338 68.4949C19.0315 68.163 19.9049 68 20.8598 68C21.8146 68 22.688 68.163 23.4857 68.4949C24.2833 68.8268 24.9704 69.2809 25.5526 69.8632C26.1349 70.4454 26.589 71.1441 26.9151 71.9476C27.2411 72.7569 27.4042 73.6303 27.4042 74.5735C27.4042 75.5167 27.2411 76.3901 26.9151 77.1994C26.589 78.0087 26.1349 78.7016 25.5526 79.2838C24.9704 79.8661 24.2775 80.326 23.4857 80.6521C22.688 80.9782 21.8146 81.147 20.8598 81.147ZM20.8598 79.7671C21.5934 79.7671 22.2571 79.6332 22.8685 79.3595C23.474 79.0859 23.998 78.7191 24.4347 78.2474C24.8714 77.7758 25.2091 77.2227 25.4537 76.5939C25.6924 75.9651 25.8146 75.2897 25.8146 74.5677C25.8146 73.8515 25.6924 73.1761 25.4537 72.5415C25.2091 71.9127 24.8714 71.3595 24.4347 70.8879C23.998 70.4163 23.474 70.0437 22.8685 69.7758C22.263 69.5022 21.5934 69.3683 20.8598 69.3683C20.1261 69.3683 19.4624 69.5022 18.851 69.7758C18.2455 70.0495 17.7215 70.4163 17.2848 70.8879C16.8481 71.3595 16.5104 71.9127 16.2659 72.5415C16.0213 73.1703 15.9049 73.8457 15.9049 74.5677C15.9049 75.2838 16.0271 75.9592 16.2659 76.5939C16.5046 77.2227 16.8481 77.7758 17.2848 78.2474C17.7215 78.7191 18.2397 79.0917 18.851 79.3595C19.4624 79.6332 20.132 79.7671 20.8598 79.7671Z"
    fill="#757575" />
  <path
    d="M31.1128 68.3086H33.3253L37.5699 78.1194H37.6048L41.8843 68.3086H44.0386V80.8268H42.5539V70.3231H42.5189L38.0298 80.8268H37.1274L32.6383 70.3231H32.6034V80.8268H31.1186V68.3086H31.1128Z"
    fill="#757575" />
  <path
    d="M48.4811 68.3086H52.1958C52.7723 68.3086 53.3254 68.3668 53.8494 68.4774C54.3734 68.5881 54.8392 68.7802 55.2468 69.0422C55.6544 69.31 55.9804 69.6594 56.2192 70.1019C56.4579 70.5444 56.5801 71.0917 56.5801 71.738C56.5801 72.4192 56.452 72.9898 56.19 73.4381C55.928 73.8865 55.5961 74.2416 55.1886 74.4978C54.781 74.7598 54.3385 74.9403 53.8553 75.0451C53.372 75.1499 52.912 75.2023 52.4753 75.2023H49.9658V80.8268H48.4811V68.3086ZM49.9658 73.8282H52.4753C53.2206 73.8282 53.8203 73.6594 54.2861 73.3217C54.7519 72.984 54.9848 72.4658 54.9848 71.7555C54.9848 71.0451 54.7519 70.5269 54.2861 70.1892C53.8203 69.8515 53.2148 69.6885 52.4753 69.6885H49.9658V73.8282Z"
    fill="#757575" />
  <path
    d="M63.049 68.3086H64.4464L69.7681 80.8268H68.033L66.7578 77.7526H60.4987L59.2062 80.8268H57.5235L63.049 68.3086ZM63.7186 70.2183H63.6837L61.0868 76.3726H66.1989L63.7186 70.2183Z"
    fill="#757575" />
  <path
    d="M72.7548 68.3086H74.6296L81.8785 78.7074H81.9134V68.3086H83.3982V80.8268H81.5234L74.2744 70.4279H74.2395V80.8268H72.7548V68.3086Z"
    fill="#757575" />
  <path
    d="M90.7926 75.4352L86.123 68.3086H88.0153L91.532 73.968L95.1594 68.3086H96.9469L92.2773 75.4352V80.8268H90.7926V75.4352Z"
    fill="#757575" />
  <path
    d="M31.1479 86.888C31.0198 86.7075 30.8568 86.5678 30.6588 86.4572C30.4609 86.3465 30.2163 86.2941 29.931 86.2941C29.7855 86.2941 29.6399 86.3174 29.4885 86.3582C29.3371 86.4048 29.2032 86.4688 29.0809 86.562C28.9587 86.6551 28.8597 86.7716 28.784 86.9055C28.7083 87.0452 28.6734 87.2083 28.6734 87.4004C28.6734 87.5925 28.7083 87.7439 28.784 87.8662C28.8538 87.9885 28.9529 88.0933 29.0693 88.1806C29.1858 88.268 29.3255 88.3378 29.4768 88.396C29.6282 88.4543 29.7913 88.5067 29.9543 88.5649C30.1581 88.6289 30.3677 88.7046 30.5715 88.7803C30.7811 88.856 30.9674 88.9608 31.1304 89.0831C31.2993 89.2054 31.4332 89.3684 31.538 89.5605C31.6428 89.7527 31.6952 89.9972 31.6952 90.2883C31.6952 90.5853 31.637 90.8356 31.5263 91.0511C31.4157 91.2665 31.2702 91.4412 31.0897 91.5809C30.9092 91.7206 30.7054 91.8254 30.4725 91.8895C30.2396 91.9535 30.0125 91.9885 29.7738 91.9885C29.5933 91.9885 29.4186 91.971 29.2381 91.9361C29.0576 91.9011 28.8888 91.8429 28.7316 91.773C28.5686 91.7032 28.423 91.61 28.2833 91.4994C28.1435 91.3888 28.0212 91.2607 27.9164 91.1151L28.4346 90.7308C28.5627 90.9404 28.7432 91.1209 28.9703 91.2607C29.2032 91.4004 29.471 91.4761 29.7855 91.4761C29.9368 91.4761 30.0882 91.4528 30.2454 91.4062C30.4026 91.3596 30.5424 91.284 30.6646 91.1908C30.7869 91.0918 30.8917 90.9754 30.9732 90.8298C31.0547 90.6901 31.0955 90.5212 31.0955 90.3349C31.0955 90.1311 31.0547 89.9564 30.9732 89.8225C30.8917 89.6886 30.7869 89.5722 30.653 89.479C30.5191 89.3858 30.3677 89.3102 30.193 89.2519C30.0184 89.1937 29.8379 89.1297 29.6515 89.0656C29.4594 89.0074 29.2672 88.9375 29.0751 88.856C28.883 88.7803 28.7141 88.6755 28.5686 88.5532C28.4172 88.4252 28.2949 88.2738 28.2076 88.0875C28.1144 87.9011 28.0678 87.6799 28.0678 87.4121C28.0678 87.1268 28.1261 86.8822 28.2367 86.6784C28.3532 86.4746 28.4987 86.3058 28.685 86.1719C28.8713 86.038 29.0693 85.939 29.2964 85.8808C29.5176 85.8167 29.7389 85.7876 29.9543 85.7876C30.356 85.7876 30.6937 85.8575 30.979 86.003C31.2643 86.1428 31.474 86.3116 31.6195 86.5096L31.1479 86.888Z"
    fill="#C2C2C2" />
  <path d="M35.2643 91.3131H38.0183V91.8488H34.6646V85.9448H35.2643V91.3131Z" fill="#C2C2C2" />
  <path
    d="M46.1698 88.891C46.1698 89.3393 46.0941 89.7527 45.9369 90.1311C45.7797 90.5096 45.5642 90.8357 45.2906 91.1093C45.0169 91.383 44.6909 91.5984 44.3124 91.7556C43.9398 91.9128 43.5322 91.9885 43.0897 91.9885C42.653 91.9885 42.2455 91.9128 41.867 91.7556C41.4944 91.5984 41.1683 91.383 40.8888 91.1093C40.6152 90.8357 40.3998 90.5096 40.2426 90.1311C40.0853 89.7527 40.0096 89.3393 40.0096 88.891C40.0096 88.4426 40.0853 88.0293 40.2426 87.6508C40.3998 87.2724 40.6152 86.9463 40.8888 86.6726C41.1625 86.399 41.4885 86.1836 41.867 86.0264C42.2396 85.8691 42.6472 85.7935 43.0897 85.7935C43.5264 85.7935 43.934 85.8691 44.3124 86.0264C44.6851 86.1836 45.0111 86.399 45.2906 86.6726C45.5642 86.9463 45.7797 87.2724 45.9369 87.6508C46.0941 88.0293 46.1698 88.4426 46.1698 88.891ZM45.5351 88.8968C45.5351 88.5533 45.4769 88.2272 45.3663 87.9128C45.2556 87.6042 45.0926 87.3306 44.883 87.0918C44.6734 86.8589 44.4172 86.6668 44.1144 86.5271C43.8117 86.3873 43.4682 86.3175 43.0955 86.3175C42.7171 86.3175 42.3794 86.3873 42.0766 86.5271C41.7738 86.6668 41.5176 86.8531 41.308 87.0918C41.0984 87.3306 40.9354 87.6042 40.8248 87.9128C40.7142 88.2214 40.6559 88.5533 40.6559 88.8968C40.6559 89.2403 40.7142 89.5664 40.8248 89.8808C40.9354 90.1894 41.0984 90.463 41.308 90.6959C41.5176 90.9288 41.7738 91.1151 42.0766 91.2549C42.3794 91.3946 42.7229 91.4645 43.0955 91.4645C43.474 91.4645 43.8117 91.3946 44.1144 91.2549C44.4172 91.1151 44.6734 90.9288 44.883 90.6959C45.0926 90.463 45.2556 90.1894 45.3663 89.8808C45.4827 89.5664 45.5351 89.2403 45.5351 88.8968Z"
    fill="#C2C2C2" />
  <path
    d="M53.5699 87.0104C53.3662 86.795 53.1216 86.6261 52.8363 86.5039C52.551 86.3816 52.225 86.3234 51.8582 86.3234C51.4797 86.3234 51.142 86.3932 50.8392 86.533C50.5365 86.6727 50.2803 86.859 50.0707 87.0978C49.8611 87.3365 49.6981 87.6101 49.5816 87.9187C49.4652 88.2273 49.4128 88.5592 49.4128 88.9027C49.4128 89.2462 49.471 89.5723 49.5816 89.8867C49.6981 90.1953 49.8553 90.4689 50.0707 90.7018C50.2803 90.9347 50.5365 91.121 50.8392 91.2608C51.142 91.4005 51.4855 91.4704 51.8582 91.4704C52.19 91.4704 52.4986 91.4355 52.7781 91.3598C53.0576 91.2899 53.2789 91.1967 53.4535 91.0861V89.2928H52.0794V88.7571H54.0532V91.4238C53.733 91.6159 53.3836 91.7615 53.011 91.8605C52.6384 91.9536 52.2541 92.0002 51.8524 92.0002C51.4099 92.0002 50.9964 91.9245 50.618 91.7673C50.2395 91.6101 49.9135 91.3947 49.6398 91.121C49.3662 90.8474 49.1566 90.5213 48.9994 90.1429C48.848 89.7644 48.7723 89.351 48.7723 88.9027C48.7723 88.4544 48.848 88.041 49.0052 87.6625C49.1624 87.2841 49.3778 86.958 49.6515 86.6844C49.9251 86.4107 50.2512 86.1953 50.6296 86.0381C51.0023 85.8809 51.4099 85.8052 51.8524 85.8052C52.324 85.8052 52.7374 85.8751 53.0867 86.0148C53.4361 86.1545 53.7388 86.3525 53.9892 86.6028L53.5699 87.0104Z"
    fill="#C2C2C2" />
  <path
    d="M57.2149 91.8429H56.5569L59.1072 85.939H59.6894L62.2222 91.8429H61.5526L60.9005 90.2941H57.8495L57.2149 91.8429ZM58.0825 89.741H60.6851L59.3867 86.6027L58.0825 89.741Z"
    fill="#C2C2C2" />
  <path
    d="M68.9469 90.9695H68.9644V85.939H69.5641V91.8429H68.813L65.3778 86.7657H65.3603V91.8429H64.7606V85.939H65.5117L68.9469 90.9695Z"
    fill="#C2C2C2" />
</svg>