<svg width="98" height="92" viewBox="0 0 98 92" fill="none" xmlns="http://www.w3.org/2000/svg">
  <path
    d="M43.4468 18.3967L46.917 21.8403C48.1064 23.0244 50.0302 23.0244 51.2197 21.8403L54.0692 19.012L54.6691 18.3761L71.3474 1.7011C71.9731 1.07547 71.5284 0 70.6441 0H64.7795C62.8971 0 61.087 0.749725 59.7579 2.07855L49.0632 12.7712L45.531 9.23973C44.2277 7.93676 42.4591 7.20255 40.618 7.20255H32.2918L43.4624 18.3709L43.4468 18.3967Z"
    fill="#E3E3E3" />
  <path
    d="M54.6847 33.6085L51.2197 30.1649C50.0251 28.9808 48.1013 28.9808 46.9118 30.1649L44.0623 32.9932L43.4624 33.6291L26.7841 50.3041C26.1584 50.9297 26.6031 52 27.4874 52H33.414C35.2603 52 37.029 51.2658 38.3322 49.9628L49.0684 39.2288L52.554 42.7138C53.8882 44.0478 55.6983 44.7975 57.5859 44.7975H65.8397L54.6691 33.6291L54.6847 33.6085Z"
    fill="#C2C2C2" />
  <path
    d="M35.8395 26.0026L32.3332 29.5083C31.0144 30.8267 30.2697 32.6209 30.2697 34.4875V42.7707L41.4403 31.6023L41.461 31.623L44.9156 28.1432C46.0999 26.9489 46.0999 25.0203 44.9052 23.831L24.7517 3.7125C24.1311 3.09204 23.0658 3.53153 23.0658 4.41052V10.2998C23.0658 12.1922 23.8001 13.9657 25.1395 15.3048L35.8395 26.0026Z"
    fill="#757575" />
  <path
    d="M73.023 36.7212L62.3541 26.0027L65.8966 22.4454C67.1791 21.1579 67.898 19.4103 67.898 17.5954V9.22949L56.774 20.403L56.7533 20.3823L53.3504 23.8259C52.1765 25.0099 52.1713 26.9179 53.3349 28.1123L56.7585 31.6282L56.7791 31.6075L73.416 48.3239C74.0263 48.934 75.0658 48.5048 75.0658 47.6413V41.6746C75.0658 39.808 74.3418 38.05 73.023 36.7212Z"
    fill="#757575" />
  <path
    d="M10.3641 70.8938C9.98568 70.3873 9.51989 70.0088 8.96676 69.7526C8.41363 69.4964 7.8372 69.3742 7.23167 69.3742C6.5388 69.3742 5.89833 69.5139 5.31609 69.7992C4.73384 70.0845 4.22731 70.463 3.80227 70.9404C3.37723 71.4178 3.04535 71.971 2.81245 72.5998C2.57373 73.2286 2.45728 73.8865 2.45728 74.5736C2.45728 75.3072 2.57373 75.9884 2.81245 76.6173C3.04535 77.2461 3.37723 77.7934 3.79644 78.2592C4.21566 78.725 4.71638 79.0918 5.29862 79.3654C5.88086 79.6391 6.52716 79.773 7.2375 79.773C8.00606 79.773 8.68727 79.6216 9.28698 79.3247C9.88669 79.0219 10.4107 78.5911 10.859 78.0263L11.9711 78.9637C11.4064 79.7206 10.7251 80.2737 9.92745 80.6289C9.12978 80.9841 8.23312 81.1587 7.23167 81.1587C6.33502 81.1587 5.49659 80.9957 4.72221 80.6638C3.942 80.332 3.26659 79.8778 2.696 79.2956C2.1254 78.7133 1.67708 78.0205 1.35102 77.217C1.02496 76.4135 0.861938 75.5401 0.861938 74.5852C0.861938 73.6653 1.01915 72.8036 1.32774 72.0059C1.64215 71.2024 2.07882 70.5095 2.6436 69.9215C3.20837 69.3334 3.88379 68.8676 4.65817 68.5241C5.43837 68.1806 6.28844 68.0117 7.22003 68.0117C8.0701 68.0117 8.88524 68.1631 9.67126 68.4717C10.4573 68.7803 11.1094 69.281 11.6451 69.9739L10.3641 70.8938Z"
    fill="#757575" />
  <path
    d="M21.188 81.147C20.2331 81.147 19.3598 80.984 18.5621 80.6521C17.7644 80.3202 17.0774 79.8661 16.4951 79.2838C15.9129 78.7016 15.4588 78.0029 15.1327 77.1994C14.8066 76.3901 14.6436 75.5167 14.6436 74.5735C14.6436 73.6303 14.8066 72.7569 15.1327 71.9476C15.4588 71.1383 15.9129 70.4454 16.4951 69.8632C17.0774 69.2809 17.7702 68.821 18.5621 68.4949C19.3598 68.163 20.2331 68 21.188 68C22.1429 68 23.0163 68.163 23.8139 68.4949C24.6116 68.8268 25.2986 69.2809 25.8809 69.8632C26.4631 70.4454 26.9173 71.1441 27.2433 71.9476C27.5694 72.7569 27.7324 73.6303 27.7324 74.5735C27.7324 75.5167 27.5694 76.3901 27.2433 77.1994C26.9173 78.0087 26.4631 78.7016 25.8809 79.2838C25.2986 79.8661 24.6058 80.3261 23.8139 80.6521C23.0163 80.984 22.1429 81.147 21.188 81.147ZM21.188 79.7729C21.9216 79.7729 22.5854 79.639 23.1968 79.3654C23.8023 79.0917 24.3263 78.7249 24.763 78.2533C25.1997 77.7817 25.5374 77.2285 25.7819 76.5997C26.0206 75.9709 26.1429 75.2955 26.1429 74.5735C26.1429 73.8515 26.0206 73.182 25.7819 72.5473C25.5374 71.9185 25.1997 71.3654 24.763 70.8937C24.3263 70.4221 23.8023 70.0495 23.1968 69.7817C22.5912 69.508 21.9216 69.3741 21.188 69.3741C20.4544 69.3741 19.7906 69.508 19.1793 69.7817C18.5737 70.0553 18.0497 70.4221 17.6131 70.8937C17.1764 71.3654 16.8387 71.9185 16.5941 72.5473C16.3496 73.1761 16.2331 73.8515 16.2331 74.5735C16.2331 75.2955 16.3554 75.9651 16.5941 76.5997C16.8328 77.2285 17.1764 77.7817 17.6131 78.2533C18.0497 78.7249 18.5679 79.0975 19.1793 79.3654C19.7848 79.6332 20.4544 79.7729 21.188 79.7729Z"
    fill="#757575" />
  <path
    d="M31.4413 68.3145H33.6538L37.8984 78.1252H37.9333L42.2128 68.3145H44.3729V80.8327H42.8882V70.329H42.8532L38.3642 80.8327H37.4617L32.9726 70.329H32.9377V80.8327H31.453V68.3145H31.4413Z"
    fill="#757575" />
  <path
    d="M48.8037 68.3145H52.5184C53.0949 68.3145 53.648 68.3727 54.172 68.4833C54.696 68.5939 55.1618 68.7861 55.5694 69.0481C55.977 69.3159 56.303 69.6653 56.5417 70.1078C56.7805 70.5503 56.9027 71.0976 56.9027 71.7439C56.9027 72.4251 56.7746 72.9957 56.5126 73.444C56.2506 73.8923 55.9188 74.2475 55.5112 74.5037C55.1036 74.7657 54.6611 74.9462 54.1778 75.051C53.6946 75.1558 53.2346 75.2082 52.7979 75.2082H50.2885V80.8327H48.8037V68.3145ZM50.2885 73.8283H52.7979C53.5432 73.8283 54.1429 73.6594 54.6087 73.3217C55.0745 72.984 55.3074 72.4658 55.3074 71.7555C55.3074 71.051 55.0745 70.527 54.6087 70.1893C54.1429 69.8516 53.5374 69.6885 52.7979 69.6885H50.2885V73.8283Z"
    fill="#757575" />
  <path
    d="M63.3715 68.3145H64.7688L70.0905 80.8327H68.3554L67.0803 77.7584H60.8212L59.5287 80.8327H57.846L63.3715 68.3145ZM64.0469 70.2242H64.0119L61.4151 76.3785H66.5272L64.0469 70.2242Z"
    fill="#757575" />
  <path
    d="M73.0833 68.3145H74.9581L82.207 78.7133H82.2419V68.3145H83.7266V80.8327H81.8518L74.6029 70.4338H74.568V80.8327H73.0833V68.3145Z"
    fill="#757575" />
  <path
    d="M91.1153 75.4352L86.4457 68.3086H88.338L91.8548 73.968L95.4821 68.3086H97.2696L92.6 75.4352V80.8268H91.1153V75.4352Z"
    fill="#757575" />
  <path
    d="M31.4762 86.8937C31.3481 86.7132 31.1851 86.5734 30.9813 86.4628C30.7834 86.3522 30.5388 86.2998 30.2535 86.2998C30.108 86.2998 29.9624 86.3231 29.811 86.3638C29.6596 86.4046 29.5257 86.4744 29.4035 86.5676C29.2812 86.6608 29.1822 86.7772 29.1065 86.9111C29.0308 87.0509 28.9959 87.2139 28.9959 87.406C28.9959 87.5982 29.0308 87.7495 29.1065 87.8718C29.1764 87.9941 29.2753 88.0989 29.3918 88.1862C29.5082 88.2736 29.648 88.3434 29.7994 88.4017C29.9508 88.4599 30.1138 88.5123 30.2768 88.5705C30.4806 88.6345 30.6902 88.7102 30.894 88.7859C31.1036 88.8616 31.2899 88.9664 31.4529 89.0887C31.6218 89.211 31.7557 89.374 31.8605 89.5661C31.9653 89.7583 32.0177 90.0028 32.0177 90.2939C32.0177 90.5909 31.9595 90.8412 31.8489 91.0567C31.7382 91.2721 31.5927 91.4468 31.4122 91.5865C31.2317 91.7263 31.0279 91.8311 30.795 91.8951C30.5621 91.9592 30.3292 91.9941 30.0963 91.9941C29.9158 91.9941 29.7411 91.9766 29.5607 91.9417C29.3802 91.9068 29.2113 91.8485 29.0541 91.7787C28.8911 91.7088 28.7455 91.6156 28.6058 91.505C28.466 91.3944 28.3438 91.2663 28.239 91.1207L28.7572 90.7364C28.8852 90.946 29.0658 91.1265 29.2928 91.2663C29.5257 91.406 29.7935 91.4817 30.108 91.4817C30.2593 91.4817 30.4107 91.4584 30.5679 91.4118C30.7251 91.3653 30.8649 91.2896 30.9871 91.1964C31.1094 91.0974 31.2142 90.981 31.2957 90.8354C31.3773 90.6957 31.418 90.5268 31.418 90.3405C31.418 90.1367 31.3773 89.9621 31.2957 89.8281C31.2142 89.6942 31.1094 89.5778 30.9755 89.4846C30.8416 89.3915 30.6902 89.3158 30.5155 89.2576C30.3408 89.1993 30.1604 89.1353 29.974 89.0712C29.7819 89.013 29.5898 88.9431 29.3976 88.8616C29.2113 88.7859 29.0366 88.6811 28.8911 88.5589C28.7397 88.4308 28.6174 88.2794 28.5301 88.0931C28.4369 87.9067 28.3903 87.6855 28.3903 87.4177C28.3903 87.1324 28.4486 86.8878 28.5592 86.684C28.6756 86.4803 28.8212 86.3114 29.0075 86.1775C29.1938 86.0436 29.3918 85.9446 29.6189 85.8864C29.8401 85.8223 30.0614 85.7932 30.2768 85.7932C30.6786 85.7932 31.0163 85.8631 31.3015 86.0028C31.5868 86.1426 31.7965 86.3114 31.942 86.5094L31.4762 86.8937Z"
    fill="#C2C2C2" />
  <path d="M35.5869 91.3129H38.3409V91.8485H34.9872V85.9446H35.5869V91.3129Z" fill="#C2C2C2" />
  <path
    d="M46.4981 88.8966C46.4981 89.3449 46.4224 89.7583 46.2652 90.1368C46.108 90.5152 45.8925 90.8413 45.6189 91.1149C45.3452 91.3886 45.0192 91.604 44.6407 91.7612C44.2681 91.9184 43.8605 91.9941 43.418 91.9941C42.9813 91.9941 42.5738 91.9184 42.1953 91.7612C41.8227 91.604 41.4966 91.3886 41.2171 91.1149C40.9435 90.8413 40.7281 90.5152 40.5709 90.1368C40.4137 89.7583 40.338 89.3449 40.338 88.8966C40.338 88.4483 40.4137 88.0349 40.5709 87.6564C40.7281 87.278 40.9435 86.9519 41.2171 86.6783C41.4908 86.4046 41.8168 86.1892 42.1953 86.032C42.5679 85.8748 42.9755 85.7991 43.418 85.7991C43.8547 85.7991 44.2623 85.8748 44.6407 86.032C45.0134 86.1892 45.3394 86.4046 45.6189 86.6783C45.8925 86.9519 46.108 87.278 46.2652 87.6564C46.4166 88.0291 46.4981 88.4425 46.4981 88.8966ZM45.8634 88.9024C45.8634 88.5589 45.8052 88.2328 45.6946 87.9184C45.584 87.6098 45.4209 87.3362 45.2113 87.0975C45.0017 86.8646 44.7455 86.6724 44.4428 86.5327C44.14 86.393 43.7965 86.3231 43.4238 86.3231C43.0454 86.3231 42.7077 86.393 42.4049 86.5327C42.1022 86.6724 41.846 86.8588 41.6364 87.0975C41.4267 87.3362 41.2637 87.6098 41.1531 87.9184C41.0425 88.227 40.9842 88.5589 40.9842 88.9024C40.9842 89.2459 41.0425 89.572 41.1531 89.8864C41.2637 90.195 41.4267 90.4687 41.6364 90.7016C41.846 90.9344 42.1022 91.1208 42.4049 91.2605C42.7077 91.4002 43.0512 91.4701 43.4238 91.4701C43.8023 91.4701 44.14 91.4002 44.4428 91.2605C44.7455 91.1208 45.0017 90.9344 45.2113 90.7016C45.4209 90.4687 45.584 90.195 45.6946 89.8864C45.8052 89.572 45.8634 89.2459 45.8634 88.9024Z"
    fill="#C2C2C2" />
  <path
    d="M53.8926 87.0102C53.6888 86.7947 53.4442 86.6259 53.1589 86.5036C52.8736 86.3814 52.5476 86.3231 52.1808 86.3231C51.8023 86.3231 51.4646 86.393 51.1618 86.5327C50.8591 86.6725 50.6029 86.8588 50.3933 87.0975C50.1837 87.3362 50.0207 87.6099 49.9042 87.9185C49.7878 88.2271 49.7353 88.5589 49.7353 88.9025C49.7353 89.246 49.7936 89.572 49.9042 89.8865C50.0207 90.195 50.1779 90.4687 50.3933 90.7016C50.6029 90.9345 50.8591 91.1208 51.1618 91.2605C51.4646 91.4003 51.8081 91.4702 52.1808 91.4702C52.5127 91.4702 52.8212 91.4352 53.1007 91.3595C53.3802 91.2897 53.6014 91.1965 53.7761 91.0859V89.2926H52.402V88.7569H54.3758V91.4236C54.0556 91.6157 53.7062 91.7613 53.3336 91.8603C52.961 91.9534 52.5767 92 52.1749 92C51.7324 92 51.3191 91.9243 50.9406 91.7671C50.5621 91.6099 50.2361 91.3945 49.9624 91.1208C49.6888 90.8472 49.4792 90.5211 49.322 90.1426C49.1706 89.7642 49.0949 89.3508 49.0949 88.9025C49.0949 88.4541 49.1706 88.0407 49.3278 87.6623C49.485 87.2838 49.7004 86.9578 49.9741 86.6841C50.2477 86.4105 50.5738 86.195 50.9522 86.0378C51.3249 85.8806 51.7324 85.8049 52.1749 85.8049C52.6466 85.8049 53.0599 85.8748 53.4093 86.0145C53.7586 86.1543 54.0614 86.3522 54.3118 86.6026L53.8926 87.0102Z"
    fill="#C2C2C2" />
  <path
    d="M57.5374 91.8485H56.8795L59.4297 85.9446H60.0119L62.5447 91.8485H61.8751L61.223 90.2997H58.172L57.5374 91.8485ZM58.4049 89.7466H61.0076L59.7092 86.6083L58.4049 89.7466Z"
    fill="#C2C2C2" />
  <path
    d="M69.2754 90.9693H69.2929V85.9387H69.8926V91.8427H69.1415L65.7062 86.7655H65.6888V91.8427H65.0891V85.9387H65.8402L69.2754 90.9693Z"
    fill="#C2C2C2" />
</svg>