<svg width="15" height="15" viewBox="0 0 15 15" fill="none" xmlns="http://www.w3.org/2000/svg">
  <path
    d="M6.75 5.25H8.25C8.44892 5.25 8.63968 5.32902 8.78033 5.46967C8.92099 5.61032 9 5.80109 9 6C9 6.19891 9.07902 6.38968 9.21967 6.53033C9.36033 6.67098 9.55109 6.75 9.75 6.75C9.94892 6.75 10.1397 6.67098 10.2803 6.53033C10.421 6.38968 10.5 6.19891 10.5 6C10.5 5.40326 10.263 4.83097 9.84099 4.40901C9.41904 3.98705 8.84674 3.75 8.25 3.75H6.75C6.15327 3.75 5.58097 3.98705 5.15901 4.40901C4.73706 4.83097 4.5 5.40326 4.5 6V9C4.5 9.59674 4.73706 10.169 5.15901 10.591C5.58097 11.0129 6.15327 11.25 6.75 11.25H8.25C8.84674 11.25 9.41904 11.0129 9.84099 10.591C10.263 10.169 10.5 9.59674 10.5 9C10.5 8.80109 10.421 8.61032 10.2803 8.46967C10.1397 8.32902 9.94892 8.25 9.75 8.25C9.55109 8.25 9.36033 8.32902 9.21967 8.46967C9.07902 8.61032 9 8.80109 9 9C9 9.19891 8.92099 9.38968 8.78033 9.53033C8.63968 9.67098 8.44892 9.75 8.25 9.75H6.75C6.55109 9.75 6.36033 9.67098 6.21967 9.53033C6.07902 9.38968 6 9.19891 6 9V6C6 5.80109 6.07902 5.61032 6.21967 5.46967C6.36033 5.32902 6.55109 5.25 6.75 5.25ZM7.5 0C6.01664 0 4.5666 0.439867 3.33323 1.26398C2.09986 2.08809 1.13856 3.25943 0.570907 4.62987C0.00324963 6.00032 -0.145275 7.50832 0.144114 8.96318C0.433503 10.418 1.14781 11.7544 2.1967 12.8033C3.2456 13.8522 4.58197 14.5665 6.03683 14.8559C7.49168 15.1453 8.99968 14.9968 10.3701 14.4291C11.7406 13.8614 12.9119 12.9001 13.736 11.6668C14.5601 10.4334 15 8.98336 15 7.5C15 6.51509 14.806 5.53982 14.4291 4.62987C14.0522 3.71993 13.4997 2.89314 12.8033 2.1967C12.1069 1.50026 11.2801 0.947814 10.3701 0.570904C9.46019 0.193993 8.48492 0 7.5 0ZM7.5 13.5C6.31332 13.5 5.15328 13.1481 4.16658 12.4888C3.17989 11.8295 2.41085 10.8925 1.95673 9.7961C1.5026 8.69974 1.38378 7.49334 1.61529 6.32946C1.8468 5.16557 2.41825 4.09647 3.25736 3.25736C4.09648 2.41824 5.16558 1.8468 6.32946 1.61529C7.49335 1.38378 8.69975 1.5026 9.7961 1.95672C10.8925 2.41085 11.8295 3.17988 12.4888 4.16658C13.1481 5.15327 13.5 6.31331 13.5 7.5C13.5 9.0913 12.8679 10.6174 11.7426 11.7426C10.6174 12.8679 9.0913 13.5 7.5 13.5Z"
    fill="#2E2E2E" />
</svg>