<svg width="104" height="172" viewBox="0 0 104 172" fill="none" xmlns="http://www.w3.org/2000/svg">
<circle cx="4" cy="4" r="4" fill="#7B74FF"/>
<circle cx="28" cy="4" r="4" fill="#7B74FF"/>
<circle cx="52" cy="4" r="4" fill="#7B74FF"/>
<circle cx="76" cy="4" r="4" fill="#7B74FF"/>
<circle cx="100" cy="4" r="4" fill="#7B74FF"/>
<circle cx="4" cy="28" r="4" fill="#7B74FF"/>
<circle cx="28" cy="28" r="4" fill="#7B74FF"/>
<circle cx="52" cy="28" r="4" fill="#7B74FF"/>
<circle cx="76" cy="28" r="4" fill="#7B74FF"/>
<circle cx="100" cy="28" r="4" fill="#7B74FF"/>
<circle cx="4" cy="52" r="4" fill="#7B74FF"/>
<circle cx="28" cy="52" r="4" fill="#7B74FF"/>
<circle cx="52" cy="52" r="4" fill="#7B74FF"/>
<circle cx="76" cy="52" r="4" fill="#7B74FF"/>
<circle cx="100" cy="52" r="4" fill="#7B74FF"/>
<circle cx="4" cy="76" r="4" fill="#7B74FF"/>
<circle cx="28" cy="76" r="4" fill="#7B74FF"/>
<circle cx="52" cy="76" r="4" fill="#7B74FF"/>
<circle cx="76" cy="76" r="4" fill="#7B74FF"/>
<circle cx="100" cy="76" r="4" fill="#7B74FF"/>
<circle cx="4" cy="96" r="4" fill="#7B74FF"/>
<circle cx="28" cy="96" r="4" fill="#7B74FF"/>
<circle cx="52" cy="96" r="4" fill="#7B74FF"/>
<circle cx="76" cy="96" r="4" fill="#7B74FF"/>
<circle cx="100" cy="96" r="4" fill="#7B74FF"/>
<circle cx="4" cy="120" r="4" fill="#7B74FF"/>
<circle cx="28" cy="120" r="4" fill="#7B74FF"/>
<circle cx="52" cy="120" r="4" fill="#7B74FF"/>
<circle cx="76" cy="120" r="4" fill="#7B74FF"/>
<circle cx="100" cy="120" r="4" fill="#7B74FF"/>
<circle cx="4" cy="144" r="4" fill="#7B74FF"/>
<circle cx="28" cy="144" r="4" fill="#7B74FF"/>
<circle cx="52" cy="144" r="4" fill="#7B74FF"/>
<circle cx="76" cy="144" r="4" fill="#7B74FF"/>
<circle cx="100" cy="144" r="4" fill="#7B74FF"/>
<circle cx="4" cy="168" r="4" fill="#7B74FF"/>
<circle cx="28" cy="168" r="4" fill="#7B74FF"/>
<circle cx="52" cy="168" r="4" fill="#7B74FF"/>
<circle cx="76" cy="168" r="4" fill="#7B74FF"/>
<circle cx="100" cy="168" r="4" fill="#7B74FF"/>
</svg>
