<svg width="433" height="178" viewBox="0 0 433 178" fill="none" xmlns="http://www.w3.org/2000/svg">
<g filter="url(#filter0_d_1_2325)">
<rect x="41" y="41" width="343" height="88" rx="16" fill="white" shape-rendering="crispEdges"/>
<circle cx="77" cy="77" r="20" fill="#7A77FF"/>
<path d="M66.0321 82.5879V70.9239H68.5281V75.9159L68.2241 75.6119H74.3201L74.0161 75.9159V70.9239H76.5121V82.5879H74.0161V77.4359L74.3201 77.7399H68.2241L68.5281 77.4359V82.5879H66.0321ZM79.3364 82.5879V70.9239H85.0964C85.7684 70.9239 86.3604 70.9986 86.8724 71.1479C87.3844 71.2866 87.8058 71.4999 88.1364 71.7879C88.4778 72.0759 88.7338 72.4279 88.9044 72.8439C89.0751 73.2492 89.1604 73.7239 89.1604 74.2679C89.1604 74.9612 88.9791 75.5586 88.6164 76.0599C88.2538 76.5612 87.7631 76.8919 87.1444 77.0519V77.1639C87.7311 77.2812 88.1631 77.5266 88.4404 77.8999C88.7284 78.2626 88.8724 78.7692 88.8724 79.4199V81.2439C88.8724 81.4572 88.8778 81.6812 88.8884 81.9159C88.9098 82.1399 88.9738 82.3639 89.0804 82.5879H86.5684C86.5044 82.4492 86.4564 82.2626 86.4244 82.0279C86.3924 81.7932 86.3764 81.5319 86.3764 81.2439V79.8519C86.3764 79.5212 86.3231 79.2439 86.2164 79.0199C86.1204 78.7852 85.9444 78.6092 85.6884 78.4919C85.4324 78.3639 85.0698 78.2999 84.6004 78.2999H81.8324V82.5879H79.3364ZM81.8324 76.3159H84.7284C85.4111 76.3159 85.8964 76.1559 86.1844 75.8359C86.4724 75.5159 86.6164 75.1052 86.6164 74.6039C86.6164 74.2092 86.5364 73.8946 86.3764 73.6599C86.2164 73.4252 85.9924 73.2546 85.7044 73.1479C85.4271 73.0412 85.1018 72.9879 84.7284 72.9879H81.8324V76.3159Z" fill="white"/>
<path d="M114.408 76V64.336H116.152V69.584L115.896 69.328H122.936L122.68 69.584V64.336H124.424V76H122.68V70.592L122.936 70.848H115.896L116.152 70.592V76H114.408ZM130.276 76.144C129.646 76.144 129.102 76.0213 128.644 75.776C128.185 75.52 127.833 75.1413 127.588 74.64C127.353 74.128 127.236 73.4987 127.236 72.752V67.536H128.884V72.336C128.884 72.8587 128.948 73.3013 129.076 73.664C129.214 74.0267 129.433 74.304 129.732 74.496C130.03 74.6773 130.414 74.768 130.884 74.768C131.353 74.768 131.758 74.656 132.1 74.432C132.452 74.208 132.724 73.8933 132.916 73.488C133.108 73.0827 133.204 72.624 133.204 72.112V67.536H134.852V76H133.284L133.204 74.288H133.108C132.894 74.864 132.532 75.3173 132.02 75.648C131.508 75.9787 130.926 76.144 130.276 76.144ZM137.401 76V67.536H138.969L139.033 69.216H139.129C139.364 68.6187 139.732 68.1707 140.233 67.872C140.745 67.5627 141.311 67.408 141.929 67.408C142.548 67.408 143.103 67.5573 143.593 67.856C144.095 68.1547 144.452 68.6667 144.665 69.392H144.793C145.028 68.7307 145.412 68.2347 145.945 67.904C146.489 67.5733 147.097 67.408 147.769 67.408C148.324 67.408 148.82 67.5253 149.257 67.76C149.705 67.9947 150.057 68.3733 150.313 68.896C150.569 69.4187 150.697 70.112 150.697 70.976V76H149.065V71.312C149.065 70.736 148.996 70.2613 148.857 69.888C148.719 69.504 148.511 69.2213 148.233 69.04C147.956 68.8587 147.593 68.768 147.145 68.768C146.687 68.768 146.287 68.8853 145.945 69.12C145.604 69.3547 145.337 69.6693 145.145 70.064C144.964 70.448 144.873 70.8853 144.873 71.376V76H143.225V71.312C143.225 70.736 143.156 70.2613 143.017 69.888C142.879 69.504 142.671 69.2213 142.393 69.04C142.116 68.8587 141.759 68.768 141.321 68.768C140.852 68.768 140.447 68.8853 140.105 69.12C139.764 69.3547 139.497 69.6693 139.305 70.064C139.124 70.448 139.033 70.8853 139.033 71.376V76H137.401ZM156.117 76.144C155.605 76.144 155.136 76.048 154.709 75.856C154.293 75.664 153.93 75.3867 153.621 75.024C153.312 74.6507 153.072 74.192 152.901 73.648C152.741 73.104 152.661 72.4747 152.661 71.76C152.661 70.8213 152.805 70.0267 153.093 69.376C153.392 68.7253 153.797 68.2347 154.309 67.904C154.832 67.5627 155.434 67.392 156.117 67.392C156.586 67.392 157.013 67.4667 157.397 67.616C157.792 67.7653 158.122 67.9787 158.389 68.256C158.666 68.5227 158.869 68.8373 158.997 69.2H159.093L159.157 67.536H160.741V76H159.093V74.32H158.997C158.794 74.864 158.442 75.3067 157.941 75.648C157.44 75.9787 156.832 76.144 156.117 76.144ZM156.693 74.784C157.216 74.784 157.653 74.6613 158.005 74.416C158.357 74.1707 158.624 73.856 158.805 73.472C158.986 73.088 159.077 72.6773 159.077 72.24V71.28C159.077 70.8427 158.986 70.432 158.805 70.048C158.624 69.664 158.357 69.3493 158.005 69.104C157.653 68.8587 157.216 68.736 156.693 68.736C156.224 68.736 155.813 68.8533 155.461 69.088C155.109 69.312 154.837 69.648 154.645 70.096C154.453 70.5333 154.357 71.088 154.357 71.76C154.357 72.4213 154.453 72.976 154.645 73.424C154.837 73.872 155.109 74.2133 155.461 74.448C155.813 74.672 156.224 74.784 156.693 74.784ZM163.369 76V67.536H164.937L165.001 69.216H165.097C165.343 68.6187 165.727 68.1707 166.249 67.872C166.772 67.5627 167.343 67.408 167.961 67.408C168.399 67.408 168.799 67.472 169.161 67.6C169.535 67.728 169.855 67.936 170.121 68.224C170.399 68.5013 170.612 68.8693 170.761 69.328C170.911 69.776 170.985 70.3253 170.985 70.976V76H169.337V71.312C169.337 70.736 169.268 70.2613 169.129 69.888C168.991 69.504 168.777 69.2213 168.489 69.04C168.201 68.8587 167.828 68.768 167.369 68.768C166.889 68.768 166.468 68.8853 166.105 69.12C165.753 69.3547 165.481 69.6693 165.289 70.064C165.097 70.448 165.001 70.8853 165.001 71.376V76H163.369ZM177.687 76V64.336H183.127C183.767 64.336 184.327 64.4053 184.807 64.544C185.298 64.6827 185.703 64.8907 186.023 65.168C186.343 65.4453 186.583 65.7867 186.743 66.192C186.914 66.5867 186.999 67.04 186.999 67.552C186.999 68.256 186.818 68.8587 186.455 69.36C186.103 69.8613 185.597 70.1973 184.935 70.368V70.48C185.575 70.5867 186.034 70.832 186.311 71.216C186.589 71.5893 186.727 72.112 186.727 72.784V74.736C186.727 74.928 186.733 75.1307 186.743 75.344C186.765 75.5573 186.823 75.776 186.919 76H185.159C185.085 75.84 185.037 75.6533 185.015 75.44C184.994 75.216 184.983 74.9707 184.983 74.704V73.088C184.983 72.6827 184.925 72.3467 184.807 72.08C184.69 71.8133 184.482 71.616 184.183 71.488C183.885 71.3493 183.458 71.28 182.903 71.28H179.431V76H177.687ZM179.431 69.872H182.887C183.719 69.872 184.311 69.6747 184.663 69.28C185.026 68.8853 185.207 68.384 185.207 67.776C185.207 67.3067 185.111 66.928 184.919 66.64C184.727 66.352 184.455 66.144 184.103 66.016C183.762 65.8773 183.357 65.808 182.887 65.808H179.431V69.872ZM192.631 76.144C191.788 76.144 191.057 75.968 190.439 75.616C189.831 75.2533 189.361 74.7467 189.031 74.096C188.7 73.4347 188.535 72.672 188.535 71.808C188.535 70.912 188.7 70.1333 189.031 69.472C189.361 68.8107 189.825 68.304 190.423 67.952C191.031 67.5893 191.745 67.408 192.567 67.408C193.495 67.408 194.257 67.616 194.855 68.032C195.463 68.4373 195.9 68.9973 196.167 69.712C196.433 70.416 196.524 71.2107 196.439 72.096H190.167C190.177 72.672 190.284 73.168 190.487 73.584C190.689 73.9893 190.972 74.2987 191.335 74.512C191.708 74.7253 192.14 74.832 192.631 74.832C193.196 74.832 193.676 74.704 194.071 74.448C194.465 74.1813 194.716 73.8293 194.823 73.392H196.391C196.316 73.9467 196.108 74.432 195.767 74.848C195.425 75.2533 194.983 75.5733 194.439 75.808C193.905 76.032 193.303 76.144 192.631 76.144ZM190.183 71.168L190.023 70.928H194.983L194.823 71.2C194.844 70.6133 194.753 70.1387 194.551 69.776C194.359 69.4027 194.087 69.1307 193.735 68.96C193.393 68.7893 192.999 68.704 192.551 68.704C192.081 68.704 191.671 68.8053 191.319 69.008C190.967 69.2 190.695 69.4827 190.503 69.856C190.311 70.2293 190.204 70.6667 190.183 71.168ZM201.692 76.16C200.529 76.16 199.633 75.904 199.004 75.392C198.385 74.8693 198.076 74.1867 198.076 73.344H199.708C199.708 73.92 199.9 74.3413 200.284 74.608C200.668 74.864 201.153 74.992 201.74 74.992C202.348 74.992 202.807 74.8853 203.116 74.672C203.436 74.448 203.596 74.1387 203.596 73.744C203.596 73.424 203.527 73.1787 203.388 73.008C203.249 72.8373 203.031 72.7093 202.732 72.624C202.433 72.528 202.044 72.4427 201.564 72.368C201.084 72.304 200.647 72.224 200.252 72.128C199.857 72.0213 199.511 71.8773 199.212 71.696C198.924 71.5147 198.7 71.28 198.54 70.992C198.391 70.704 198.316 70.3467 198.316 69.92C198.316 69.376 198.455 68.9173 198.732 68.544C199.02 68.1707 199.42 67.8827 199.932 67.68C200.444 67.4773 201.041 67.376 201.724 67.376C202.428 67.376 203.025 67.4827 203.516 67.696C204.017 67.9093 204.401 68.2133 204.668 68.608C204.945 69.0027 205.089 69.4773 205.1 70.032H203.484C203.484 69.6907 203.409 69.4133 203.26 69.2C203.111 68.976 202.903 68.8107 202.636 68.704C202.369 68.5973 202.055 68.544 201.692 68.544C201.137 68.544 200.711 68.656 200.412 68.88C200.113 69.104 199.964 69.3973 199.964 69.76C199.964 70.0267 200.039 70.2453 200.188 70.416C200.337 70.5867 200.567 70.72 200.876 70.816C201.185 70.9013 201.575 70.976 202.044 71.04C202.492 71.104 202.908 71.184 203.292 71.28C203.676 71.376 204.017 71.5147 204.316 71.696C204.615 71.8667 204.849 72.1067 205.02 72.416C205.191 72.7253 205.276 73.12 205.276 73.6C205.276 74.464 204.956 75.1093 204.316 75.536C203.676 75.952 202.801 76.16 201.692 76.16ZM211.116 76.144C210.497 76.144 209.932 76.0427 209.42 75.84C208.918 75.6373 208.486 75.344 208.124 74.96C207.761 74.576 207.478 74.1173 207.276 73.584C207.073 73.0507 206.972 72.4533 206.972 71.792C206.972 70.9173 207.137 70.1547 207.468 69.504C207.809 68.8427 208.289 68.3307 208.908 67.968C209.537 67.5947 210.273 67.408 211.116 67.408C211.734 67.408 212.294 67.5093 212.796 67.712C213.308 67.904 213.745 68.192 214.108 68.576C214.47 68.96 214.748 69.424 214.94 69.968C215.142 70.5013 215.244 71.104 215.244 71.776C215.244 72.64 215.078 73.4027 214.748 74.064C214.417 74.7147 213.942 75.2267 213.324 75.6C212.705 75.9627 211.969 76.144 211.116 76.144ZM211.116 74.768C211.606 74.768 212.033 74.656 212.396 74.432C212.769 74.1973 213.057 73.856 213.26 73.408C213.462 72.96 213.564 72.416 213.564 71.776C213.564 71.296 213.505 70.8747 213.388 70.512C213.281 70.1387 213.121 69.824 212.908 69.568C212.694 69.3013 212.438 69.104 212.14 68.976C211.841 68.8373 211.5 68.768 211.116 68.768C210.625 68.768 210.193 68.8853 209.82 69.12C209.457 69.3547 209.169 69.696 208.956 70.144C208.753 70.5813 208.652 71.1307 208.652 71.792C208.652 72.2613 208.705 72.6827 208.812 73.056C208.929 73.4187 209.094 73.728 209.308 73.984C209.532 74.24 209.793 74.4373 210.092 74.576C210.401 74.704 210.742 74.768 211.116 74.768ZM220.249 76.144C219.62 76.144 219.076 76.0213 218.617 75.776C218.159 75.52 217.807 75.1413 217.561 74.64C217.327 74.128 217.209 73.4987 217.209 72.752V67.536H218.857V72.336C218.857 72.8587 218.921 73.3013 219.049 73.664C219.188 74.0267 219.407 74.304 219.705 74.496C220.004 74.6773 220.388 74.768 220.857 74.768C221.327 74.768 221.732 74.656 222.073 74.432C222.425 74.208 222.697 73.8933 222.889 73.488C223.081 73.0827 223.177 72.624 223.177 72.112V67.536H224.825V76H223.257L223.177 74.288H223.081C222.868 74.864 222.505 75.3173 221.993 75.648C221.481 75.9787 220.9 76.144 220.249 76.144ZM227.375 76V67.536H228.847L228.927 69.04H229.007C229.188 68.496 229.503 68.0907 229.951 67.824C230.399 67.5573 230.9 67.424 231.455 67.424C231.551 67.424 231.636 67.4293 231.711 67.44C231.796 67.44 231.876 67.4453 231.951 67.456V69.008C231.887 68.9973 231.807 68.992 231.711 68.992C231.626 68.992 231.535 68.992 231.439 68.992C230.938 68.992 230.511 69.0773 230.159 69.248C229.807 69.4187 229.535 69.6693 229.343 70C229.151 70.32 229.039 70.7093 229.007 71.168V76H227.375ZM236.981 76.144C236.362 76.144 235.797 76.0427 235.285 75.84C234.784 75.6267 234.352 75.328 233.989 74.944C233.637 74.56 233.36 74.1013 233.157 73.568C232.965 73.0347 232.869 72.4373 232.869 71.776C232.869 70.9013 233.04 70.1387 233.381 69.488C233.722 68.8267 234.208 68.3147 234.837 67.952C235.466 67.5893 236.202 67.408 237.045 67.408C237.728 67.408 238.336 67.536 238.869 67.792C239.413 68.048 239.845 68.4053 240.165 68.864C240.496 69.3227 240.682 69.856 240.725 70.464H239.125C239.061 70.0907 238.928 69.7813 238.725 69.536C238.522 69.2907 238.272 69.104 237.973 68.976C237.685 68.848 237.36 68.784 236.997 68.784C236.474 68.784 236.032 68.912 235.669 69.168C235.306 69.4133 235.029 69.76 234.837 70.208C234.645 70.656 234.549 71.184 234.549 71.792C234.549 72.4213 234.65 72.96 234.853 73.408C235.056 73.8453 235.338 74.1813 235.701 74.416C236.064 74.6507 236.49 74.768 236.981 74.768C237.397 74.768 237.76 74.6933 238.069 74.544C238.378 74.3947 238.624 74.1867 238.805 73.92C238.997 73.6427 239.114 73.328 239.157 72.976H240.757C240.714 73.616 240.528 74.176 240.197 74.656C239.866 75.1253 239.424 75.4933 238.869 75.76C238.314 76.016 237.685 76.144 236.981 76.144ZM246.27 76.144C245.427 76.144 244.696 75.968 244.078 75.616C243.47 75.2533 243 74.7467 242.67 74.096C242.339 73.4347 242.174 72.672 242.174 71.808C242.174 70.912 242.339 70.1333 242.67 69.472C243 68.8107 243.464 68.304 244.062 67.952C244.67 67.5893 245.384 67.408 246.206 67.408C247.134 67.408 247.896 67.616 248.494 68.032C249.102 68.4373 249.539 68.9973 249.806 69.712C250.072 70.416 250.163 71.2107 250.078 72.096H243.806C243.816 72.672 243.923 73.168 244.126 73.584C244.328 73.9893 244.611 74.2987 244.974 74.512C245.347 74.7253 245.779 74.832 246.27 74.832C246.835 74.832 247.315 74.704 247.71 74.448C248.104 74.1813 248.355 73.8293 248.462 73.392H250.03C249.955 73.9467 249.747 74.432 249.406 74.848C249.064 75.2533 248.622 75.5733 248.078 75.808C247.544 76.032 246.942 76.144 246.27 76.144ZM243.822 71.168L243.662 70.928H248.622L248.462 71.2C248.483 70.6133 248.392 70.1387 248.19 69.776C247.998 69.4027 247.726 69.1307 247.374 68.96C247.032 68.7893 246.638 68.704 246.19 68.704C245.72 68.704 245.31 68.8053 244.958 69.008C244.606 69.2 244.334 69.4827 244.142 69.856C243.95 70.2293 243.843 70.6667 243.822 71.168Z" fill="#2E2E2E"/>
<path d="M119.352 104.144C118.488 104.144 117.704 104.005 117 103.728C116.307 103.451 115.704 103.056 115.192 102.544C114.691 102.021 114.307 101.392 114.04 100.656C113.773 99.92 113.64 99.0933 113.64 98.176C113.64 97.248 113.773 96.416 114.04 95.68C114.307 94.944 114.696 94.32 115.208 93.808C115.72 93.2853 116.323 92.8907 117.016 92.624C117.709 92.3467 118.488 92.208 119.352 92.208C120.312 92.208 121.165 92.3733 121.912 92.704C122.669 93.0347 123.288 93.504 123.768 94.112C124.248 94.7093 124.541 95.4187 124.648 96.24H122.888C122.781 95.7493 122.568 95.3173 122.248 94.944C121.939 94.56 121.539 94.2613 121.048 94.048C120.557 93.824 119.992 93.712 119.352 93.712C118.552 93.712 117.853 93.888 117.256 94.24C116.669 94.592 116.216 95.0987 115.896 95.76C115.587 96.4213 115.432 97.2267 115.432 98.176C115.432 98.88 115.523 99.5093 115.704 100.064C115.885 100.619 116.147 101.088 116.488 101.472C116.829 101.845 117.24 102.133 117.72 102.336C118.211 102.539 118.755 102.64 119.352 102.64C119.981 102.64 120.541 102.533 121.032 102.32C121.533 102.107 121.944 101.808 122.264 101.424C122.584 101.029 122.792 100.571 122.888 100.048L124.648 100.064C124.552 100.885 124.264 101.605 123.784 102.224C123.315 102.832 122.696 103.307 121.928 103.648C121.171 103.979 120.312 104.144 119.352 104.144ZM126.753 104V95.536H128.225L128.305 97.04H128.385C128.567 96.496 128.881 96.0907 129.329 95.824C129.777 95.5573 130.279 95.424 130.833 95.424C130.929 95.424 131.015 95.4293 131.089 95.44C131.175 95.44 131.255 95.4453 131.329 95.456V97.008C131.265 96.9973 131.185 96.992 131.089 96.992C131.004 96.992 130.913 96.992 130.817 96.992C130.316 96.992 129.889 97.0773 129.537 97.248C129.185 97.4187 128.913 97.6693 128.721 98C128.529 98.32 128.417 98.7093 128.385 99.168V104H126.753ZM136.391 104.144C135.773 104.144 135.207 104.043 134.695 103.84C134.194 103.637 133.762 103.344 133.399 102.96C133.037 102.576 132.754 102.117 132.551 101.584C132.349 101.051 132.247 100.453 132.247 99.792C132.247 98.9173 132.413 98.1547 132.743 97.504C133.085 96.8427 133.565 96.3307 134.183 95.968C134.813 95.5947 135.549 95.408 136.391 95.408C137.01 95.408 137.57 95.5093 138.071 95.712C138.583 95.904 139.021 96.192 139.383 96.576C139.746 96.96 140.023 97.424 140.215 97.968C140.418 98.5013 140.519 99.104 140.519 99.776C140.519 100.64 140.354 101.403 140.023 102.064C139.693 102.715 139.218 103.227 138.599 103.6C137.981 103.963 137.245 104.144 136.391 104.144ZM136.391 102.768C136.882 102.768 137.309 102.656 137.671 102.432C138.045 102.197 138.333 101.856 138.535 101.408C138.738 100.96 138.839 100.416 138.839 99.776C138.839 99.296 138.781 98.8747 138.663 98.512C138.557 98.1387 138.397 97.824 138.183 97.568C137.97 97.3013 137.714 97.104 137.415 96.976C137.117 96.8373 136.775 96.768 136.391 96.768C135.901 96.768 135.469 96.8853 135.095 97.12C134.733 97.3547 134.445 97.696 134.231 98.144C134.029 98.5813 133.927 99.1307 133.927 99.792C133.927 100.261 133.981 100.683 134.087 101.056C134.205 101.419 134.37 101.728 134.583 101.984C134.807 102.24 135.069 102.437 135.367 102.576C135.677 102.704 136.018 102.768 136.391 102.768ZM145.717 104.16C144.554 104.16 143.658 103.904 143.029 103.392C142.41 102.869 142.101 102.187 142.101 101.344H143.733C143.733 101.92 143.925 102.341 144.309 102.608C144.693 102.864 145.178 102.992 145.765 102.992C146.373 102.992 146.832 102.885 147.141 102.672C147.461 102.448 147.621 102.139 147.621 101.744C147.621 101.424 147.552 101.179 147.413 101.008C147.274 100.837 147.056 100.709 146.757 100.624C146.458 100.528 146.069 100.443 145.589 100.368C145.109 100.304 144.672 100.224 144.277 100.128C143.882 100.021 143.536 99.8773 143.237 99.696C142.949 99.5147 142.725 99.28 142.565 98.992C142.416 98.704 142.341 98.3467 142.341 97.92C142.341 97.376 142.48 96.9173 142.757 96.544C143.045 96.1707 143.445 95.8827 143.957 95.68C144.469 95.4773 145.066 95.376 145.749 95.376C146.453 95.376 147.05 95.4827 147.541 95.696C148.042 95.9093 148.426 96.2133 148.693 96.608C148.97 97.0027 149.114 97.4773 149.125 98.032H147.509C147.509 97.6907 147.434 97.4133 147.285 97.2C147.136 96.976 146.928 96.8107 146.661 96.704C146.394 96.5973 146.08 96.544 145.717 96.544C145.162 96.544 144.736 96.656 144.437 96.88C144.138 97.104 143.989 97.3973 143.989 97.76C143.989 98.0267 144.064 98.2453 144.213 98.416C144.362 98.5867 144.592 98.72 144.901 98.816C145.21 98.9013 145.6 98.976 146.069 99.04C146.517 99.104 146.933 99.184 147.317 99.28C147.701 99.376 148.042 99.5147 148.341 99.696C148.64 99.8667 148.874 100.107 149.045 100.416C149.216 100.725 149.301 101.12 149.301 101.6C149.301 102.464 148.981 103.109 148.341 103.536C147.701 103.952 146.826 104.16 145.717 104.16ZM154.646 104.16C153.484 104.16 152.588 103.904 151.958 103.392C151.34 102.869 151.03 102.187 151.03 101.344H152.662C152.662 101.92 152.854 102.341 153.238 102.608C153.622 102.864 154.108 102.992 154.694 102.992C155.302 102.992 155.761 102.885 156.07 102.672C156.39 102.448 156.55 102.139 156.55 101.744C156.55 101.424 156.481 101.179 156.342 101.008C156.204 100.837 155.985 100.709 155.686 100.624C155.388 100.528 154.998 100.443 154.518 100.368C154.038 100.304 153.601 100.224 153.206 100.128C152.812 100.021 152.465 99.8773 152.166 99.696C151.878 99.5147 151.654 99.28 151.494 98.992C151.345 98.704 151.27 98.3467 151.27 97.92C151.27 97.376 151.409 96.9173 151.686 96.544C151.974 96.1707 152.374 95.8827 152.886 95.68C153.398 95.4773 153.996 95.376 154.678 95.376C155.382 95.376 155.98 95.4827 156.47 95.696C156.972 95.9093 157.356 96.2133 157.622 96.608C157.9 97.0027 158.044 97.4773 158.054 98.032H156.438C156.438 97.6907 156.364 97.4133 156.214 97.2C156.065 96.976 155.857 96.8107 155.59 96.704C155.324 96.5973 155.009 96.544 154.646 96.544C154.092 96.544 153.665 96.656 153.366 96.88C153.068 97.104 152.918 97.3973 152.918 97.76C152.918 98.0267 152.993 98.2453 153.142 98.416C153.292 98.5867 153.521 98.72 153.83 98.816C154.14 98.9013 154.529 98.976 154.998 99.04C155.446 99.104 155.862 99.184 156.246 99.28C156.63 99.376 156.972 99.5147 157.27 99.696C157.569 99.8667 157.804 100.107 157.974 100.416C158.145 100.725 158.23 101.12 158.23 101.6C158.23 102.464 157.91 103.109 157.27 103.536C156.63 103.952 155.756 104.16 154.646 104.16ZM163.576 104.16C162.413 104.16 161.517 103.904 160.888 103.392C160.269 102.869 159.96 102.187 159.96 101.344H161.592C161.592 101.92 161.784 102.341 162.168 102.608C162.552 102.864 163.037 102.992 163.624 102.992C164.232 102.992 164.691 102.885 165 102.672C165.32 102.448 165.48 102.139 165.48 101.744C165.48 101.424 165.411 101.179 165.272 101.008C165.133 100.837 164.915 100.709 164.616 100.624C164.317 100.528 163.928 100.443 163.448 100.368C162.968 100.304 162.531 100.224 162.136 100.128C161.741 100.021 161.395 99.8773 161.096 99.696C160.808 99.5147 160.584 99.28 160.424 98.992C160.275 98.704 160.2 98.3467 160.2 97.92C160.2 97.376 160.339 96.9173 160.616 96.544C160.904 96.1707 161.304 95.8827 161.816 95.68C162.328 95.4773 162.925 95.376 163.608 95.376C164.312 95.376 164.909 95.4827 165.4 95.696C165.901 95.9093 166.285 96.2133 166.552 96.608C166.829 97.0027 166.973 97.4773 166.984 98.032H165.368C165.368 97.6907 165.293 97.4133 165.144 97.2C164.995 96.976 164.787 96.8107 164.52 96.704C164.253 96.5973 163.939 96.544 163.576 96.544C163.021 96.544 162.595 96.656 162.296 96.88C161.997 97.104 161.848 97.3973 161.848 97.76C161.848 98.0267 161.923 98.2453 162.072 98.416C162.221 98.5867 162.451 98.72 162.76 98.816C163.069 98.9013 163.459 98.976 163.928 99.04C164.376 99.104 164.792 99.184 165.176 99.28C165.56 99.376 165.901 99.5147 166.2 99.696C166.499 99.8667 166.733 100.107 166.904 100.416C167.075 100.725 167.16 101.12 167.16 101.6C167.16 102.464 166.84 103.109 166.2 103.536C165.56 103.952 164.685 104.16 163.576 104.16Z" fill="#757575"/>
<path d="M292.048 90L296.192 78.336H298.64L302.784 90H300.96L300 87.28H294.832L293.872 90H292.048ZM295.248 85.92H299.568L298.288 82.32L297.472 79.936H297.376L296.56 82.32L295.248 85.92ZM304.284 92.672V81.536H305.868L305.932 83.2H306.028C306.231 82.656 306.583 82.2187 307.084 81.888C307.596 81.5573 308.205 81.392 308.909 81.392C309.42 81.392 309.884 81.488 310.3 81.68C310.727 81.872 311.095 82.1547 311.405 82.528C311.714 82.9013 311.948 83.36 312.109 83.904C312.279 84.448 312.365 85.072 312.365 85.776C312.365 86.7147 312.22 87.5093 311.932 88.16C311.644 88.8107 311.239 89.3067 310.717 89.648C310.205 89.9787 309.602 90.144 308.909 90.144C308.45 90.144 308.023 90.0693 307.628 89.92C307.244 89.7707 306.914 89.5627 306.636 89.296C306.37 89.0187 306.167 88.6987 306.028 88.336H305.932V92.672H304.284ZM308.332 88.784C308.802 88.784 309.212 88.672 309.564 88.448C309.917 88.224 310.189 87.888 310.38 87.44C310.583 86.992 310.685 86.4373 310.685 85.776C310.685 85.104 310.583 84.5493 310.38 84.112C310.189 83.664 309.917 83.328 309.564 83.104C309.212 82.8693 308.802 82.752 308.332 82.752C307.82 82.752 307.383 82.8747 307.02 83.12C306.668 83.3547 306.402 83.6693 306.22 84.064C306.039 84.448 305.948 84.8587 305.948 85.296V86.24C305.948 86.5707 305.996 86.8907 306.092 87.2C306.199 87.4987 306.354 87.7707 306.556 88.016C306.759 88.2507 307.01 88.4373 307.308 88.576C307.607 88.7147 307.948 88.784 308.332 88.784ZM314.433 92.672V81.536H316.017L316.081 83.2H316.177C316.379 82.656 316.731 82.2187 317.233 81.888C317.745 81.5573 318.353 81.392 319.057 81.392C319.569 81.392 320.033 81.488 320.449 81.68C320.875 81.872 321.243 82.1547 321.553 82.528C321.862 82.9013 322.097 83.36 322.257 83.904C322.427 84.448 322.513 85.072 322.513 85.776C322.513 86.7147 322.369 87.5093 322.081 88.16C321.793 88.8107 321.387 89.3067 320.865 89.648C320.353 89.9787 319.75 90.144 319.057 90.144C318.598 90.144 318.171 90.0693 317.777 89.92C317.393 89.7707 317.062 89.5627 316.785 89.296C316.518 89.0187 316.315 88.6987 316.177 88.336H316.081V92.672H314.433ZM318.481 88.784C318.95 88.784 319.361 88.672 319.713 88.448C320.065 88.224 320.337 87.888 320.529 87.44C320.731 86.992 320.833 86.4373 320.833 85.776C320.833 85.104 320.731 84.5493 320.529 84.112C320.337 83.664 320.065 83.328 319.713 83.104C319.361 82.8693 318.95 82.752 318.481 82.752C317.969 82.752 317.531 82.8747 317.169 83.12C316.817 83.3547 316.55 83.6693 316.369 84.064C316.187 84.448 316.097 84.8587 316.097 85.296V86.24C316.097 86.5707 316.145 86.8907 316.241 87.2C316.347 87.4987 316.502 87.7707 316.705 88.016C316.907 88.2507 317.158 88.4373 317.457 88.576C317.755 88.7147 318.097 88.784 318.481 88.784ZM324.581 90V78.336H326.229V90H324.581ZM328.278 92.672V91.312H329.19C329.436 91.312 329.644 91.2747 329.814 91.2C329.996 91.136 330.15 91.0293 330.278 90.88C330.406 90.7413 330.513 90.56 330.598 90.336L331.11 89.024V89.744L327.638 81.536H329.446L331.382 86.688L331.734 87.696H331.798L332.134 86.688L333.958 81.536H335.702L332.182 90.736C332.001 91.216 331.782 91.5947 331.526 91.872C331.281 92.16 330.988 92.3627 330.646 92.48C330.305 92.608 329.91 92.672 329.462 92.672H328.278Z" fill="#7A77FF"/>
<path d="M354 80L358 85L354 90" stroke="#7A77FF" stroke-width="1.5" stroke-linecap="round" stroke-linejoin="round"/>
<rect x="41.5" y="41.5" width="342" height="87" rx="15.5" stroke="#C2C2C2" shape-rendering="crispEdges"/>
</g>
<defs>
<filter id="filter0_d_1_2325" x="0" y="0" width="433" height="178" filterUnits="userSpaceOnUse" color-interpolation-filters="sRGB">
<feFlood flood-opacity="0" result="BackgroundImageFix"/>
<feColorMatrix in="SourceAlpha" type="matrix" values="0 0 0 0 0 0 0 0 0 0 0 0 0 0 0 0 0 0 127 0" result="hardAlpha"/>
<feOffset dx="4" dy="4"/>
<feGaussianBlur stdDeviation="22.5"/>
<feComposite in2="hardAlpha" operator="out"/>
<feColorMatrix type="matrix" values="0 0 0 0 0 0 0 0 0 0 0 0 0 0 0 0 0 0 0.05 0"/>
<feBlend mode="normal" in2="BackgroundImageFix" result="effect1_dropShadow_1_2325"/>
<feBlend mode="normal" in="SourceGraphic" in2="effect1_dropShadow_1_2325" result="shape"/>
</filter>
</defs>
</svg>
