<svg width="22" height="22" viewBox="0 0 22 22" fill="none" xmlns="http://www.w3.org/2000/svg">
  <path fill-rule="evenodd" clip-rule="evenodd"
    d="M10.6388 20.0597C15.5352 20.0597 19.5045 16.0904 19.5045 11.194C19.5045 6.29767 15.5352 2.32837 10.6388 2.32837C5.74243 2.32837 1.77313 6.29767 1.77313 11.194C1.77313 16.0904 5.74243 20.0597 10.6388 20.0597ZM14.7099 8.9426C14.9354 8.65272 14.8832 8.23497 14.5933 8.00951C14.3034 7.78405 13.8857 7.83627 13.6602 8.12615L10.1077 12.6936C10.0287 12.7952 9.88016 12.8084 9.78452 12.7223L7.53735 10.6998C7.26439 10.4542 6.84397 10.4763 6.59831 10.7493C6.35264 11.0222 6.37477 11.4426 6.64773 11.6883L8.8949 13.7108C9.56437 14.3133 10.6045 14.221 11.1575 13.5101L14.7099 8.9426Z"
    fill="#7A77FF" />
</svg>