<svg width="97" height="92" viewBox="0 0 97 92" fill="none" xmlns="http://www.w3.org/2000/svg">
  <path
    d="M42.1433 38.9988L48.644 45.5044L42.1433 52.0001L22.6465 32.4982L29.1471 25.9976L35.6427 32.4982L42.1433 25.9976L48.644 32.4982L42.1433 38.9988Z"
    fill="#E3E3E3" />
  <path
    d="M74.6465 32.4982L55.1446 52.0001L48.644 45.5044L55.1446 38.9988L48.644 32.4982L55.1446 25.9976L61.6452 32.4982L68.1508 25.9976L74.6465 32.4982Z"
    fill="#757575" />
  <path
    d="M74.6465 19.4969L68.1508 25.9975L61.6452 19.4969L55.1446 25.9975L48.644 19.4969L55.1446 13.0013L48.644 6.50062L55.1446 0L74.6465 19.4969Z"
    fill="#C2C2C2" />
  <path
    d="M42.1433 13.0013L48.644 19.4969L42.1433 25.9975L35.6427 19.4969L29.1471 25.9975L22.6465 19.4969L42.1433 0L48.644 6.50062L42.1433 13.0013Z"
    fill="#757575" />
  <path
    d="M9.93541 70.8886C9.55686 70.3819 9.09096 70.0034 8.53769 69.7472C7.98443 69.4967 7.40786 69.3686 6.80219 69.3686C6.10915 69.3686 5.46852 69.5084 4.88614 69.7938C4.30376 70.0791 3.7971 70.4576 3.37196 70.9352C2.94682 71.4128 2.61485 71.966 2.3819 72.595C2.14312 73.224 2.02663 73.8821 2.02663 74.5693C2.02663 75.3031 2.14312 75.9845 2.3819 76.6134C2.61485 77.2424 2.94681 77.7899 3.36613 78.2558C3.78544 78.7217 4.28628 79.0886 4.86867 79.3623C5.45105 79.636 6.09751 79.7699 6.80801 79.7699C7.57676 79.7699 8.25814 79.6186 8.858 79.3215C9.45785 79.0187 9.98201 78.5877 10.4304 78.0228L11.5428 78.9605C10.9779 79.7176 10.2965 80.2708 9.49862 80.6261C8.70076 80.9813 7.80388 81.156 6.80219 81.156C5.90531 81.156 5.06668 80.993 4.29211 80.661C3.51172 80.3291 2.83615 79.8748 2.26541 79.2924C1.69468 78.71 1.24624 78.017 0.920108 77.2133C0.593973 76.4096 0.430908 75.536 0.430908 74.5751C0.430908 73.6549 0.588162 72.793 0.896826 71.9951C1.21131 71.1915 1.64809 70.4984 2.213 69.9102C2.77791 69.322 3.45349 68.8561 4.22806 68.5125C5.00845 68.1689 5.85873 68 6.79054 68C7.64082 68 8.45616 68.1514 9.24237 68.4601C10.0286 68.7687 10.6809 69.2696 11.2167 69.9626L9.93541 70.8886Z"
    fill="#757575" />
  <path
    d="M20.7619 81.1502C19.8068 81.1502 18.9332 80.9871 18.1354 80.6552C17.3375 80.3232 16.6503 79.869 16.0679 79.2866C15.4855 78.7042 15.0313 78.0053 14.7051 77.2017C14.379 76.3921 14.2159 75.5186 14.2159 74.5751C14.2159 73.6316 14.379 72.7581 14.7051 71.9485C15.0313 71.139 15.4855 70.446 16.0679 69.8636C16.6503 69.2813 17.3433 68.8211 18.1354 68.495C18.9332 68.1631 19.8068 68 20.7619 68C21.717 68 22.5906 68.1631 23.3885 68.495C24.1863 68.827 24.8736 69.2813 25.4559 69.8636C26.0383 70.446 26.4926 71.1449 26.8187 71.9485C27.1448 72.7581 27.3079 73.6316 27.3079 74.5751C27.3079 75.5186 27.1448 76.3921 26.8187 77.2017C26.4926 78.0112 26.0383 78.7042 25.4559 79.2866C24.8736 79.869 24.1805 80.329 23.3885 80.6552C22.5906 80.9813 21.717 81.1502 20.7619 81.1502ZM20.7619 79.7699C21.4957 79.7699 22.1597 79.636 22.7712 79.3623C23.3768 79.0886 23.901 78.7217 24.3378 78.2499C24.7746 77.7782 25.1123 77.225 25.3569 76.596C25.5957 75.967 25.718 75.2914 25.718 74.5693C25.718 73.8529 25.5957 73.1774 25.3569 72.5426C25.1123 71.9136 24.7746 71.3603 24.3378 70.8886C23.901 70.4169 23.3768 70.0442 22.7712 69.7763C22.1655 69.5025 21.4957 69.3686 20.7619 69.3686C20.0281 69.3686 19.3642 69.5025 18.7527 69.7763C18.147 70.05 17.6229 70.4169 17.1861 70.8886C16.7493 71.3603 16.4115 71.9136 16.1669 72.5426C15.9223 73.1716 15.8058 73.8471 15.8058 74.5693C15.8058 75.2856 15.9282 75.9612 16.1669 76.596C16.4057 77.225 16.7493 77.7782 17.1861 78.2499C17.6229 78.7217 18.1412 79.0944 18.7527 79.3623C19.3584 79.636 20.0281 79.7699 20.7619 79.7699Z"
    fill="#757575" />
  <path
    d="M31.0177 68.3086H33.2308L37.4763 78.1218H37.5113L41.7918 68.3086H43.9524V80.8298H42.4673V70.3237H42.4324L37.9422 80.8298H37.0395L32.5494 70.3237H32.5144V80.8298H31.0293V68.3086H31.0177Z"
    fill="#757575" />
  <path
    d="M48.3844 68.3086H52.1C52.6765 68.3086 53.2298 68.3669 53.7539 68.4775C54.2781 68.5882 54.744 68.7803 55.1517 69.0424C55.5593 69.3103 55.8855 69.6597 56.1242 70.1023C56.363 70.545 56.4853 71.0924 56.4853 71.7388C56.4853 72.4202 56.3572 72.991 56.0951 73.4394C55.8331 73.8878 55.5011 74.2431 55.0934 74.4993C54.6858 74.7614 54.2432 74.9419 53.7598 75.0468C53.2764 75.1516 52.8163 75.204 52.3795 75.204H49.8695V80.8298H48.3844V68.3086ZM49.8695 73.8296H52.3795C53.125 73.8296 53.7248 73.6607 54.1907 73.3229C54.6566 72.9852 54.8896 72.4668 54.8896 71.7563C54.8896 71.0458 54.6566 70.5275 54.1907 70.1897C53.7248 69.8519 53.1192 69.6888 52.3795 69.6888H49.8695V73.8296Z"
    fill="#757575" />
  <path
    d="M62.9556 68.3086H64.3533L69.6763 80.8298H67.9408L66.6654 77.7549H60.4048L59.1119 80.8298H57.4288L62.9556 68.3086ZM63.6312 70.2188H63.5962L60.9988 76.3746H66.1121L63.6312 70.2188Z"
    fill="#757575" />
  <path
    d="M72.6698 68.3086H74.5451L81.7958 78.71H81.8307V68.3086H83.3158V80.8298H81.4405L74.1898 70.4285H74.1549V80.8298H72.6698V68.3086Z"
    fill="#757575" />
  <path
    d="M90.7062 75.437L86.0355 68.3086H87.9282L91.4458 73.9694L95.0741 68.3086H96.862L92.1913 75.437V80.8298H90.7062V75.437Z"
    fill="#757575" />
  <path
    d="M31.0526 86.8925C30.9245 86.7119 30.7614 86.5722 30.5576 86.4615C30.3596 86.3509 30.115 86.2984 29.8296 86.2984C29.684 86.2984 29.5384 86.3217 29.387 86.3625C29.2356 86.4032 29.1016 86.4731 28.9793 86.5663C28.857 86.6595 28.758 86.776 28.6823 86.9099C28.6066 87.0497 28.5717 87.2128 28.5717 87.405C28.5717 87.5971 28.6066 87.7486 28.6823 87.8709C28.7522 87.9932 28.8512 88.098 28.9677 88.1853C29.0842 88.2727 29.2239 88.3426 29.3754 88.4008C29.5268 88.4591 29.6898 88.5115 29.8529 88.5697C30.0568 88.6338 30.2664 88.7095 30.4702 88.7852C30.6799 88.8609 30.8663 88.9657 31.0293 89.088C31.1982 89.2103 31.3322 89.3734 31.437 89.5656C31.5418 89.7578 31.5942 90.0024 31.5942 90.2936C31.5942 90.5906 31.536 90.841 31.4253 91.0565C31.3147 91.272 31.1691 91.4467 30.9886 91.5865C30.808 91.7262 30.6042 91.8311 30.3712 91.8951C30.1383 91.9592 29.9053 91.9941 29.6724 91.9941C29.4918 91.9941 29.3171 91.9767 29.1366 91.9417C28.956 91.9068 28.7872 91.8486 28.6299 91.7787C28.4668 91.7088 28.3212 91.6156 28.1815 91.5049C28.0417 91.3943 27.9194 91.2662 27.8146 91.1206L28.3329 90.7362C28.461 90.9458 28.6416 91.1264 28.8687 91.2662C29.1016 91.4059 29.3695 91.4816 29.684 91.4816C29.8354 91.4816 29.9869 91.4584 30.1441 91.4118C30.3014 91.3652 30.4411 91.2895 30.5634 91.1963C30.6857 91.0973 30.7906 90.9808 30.8721 90.8352C30.9536 90.6954 30.9944 90.5265 30.9944 90.3402C30.9944 90.1363 30.9536 89.9616 30.8721 89.8277C30.7906 89.6937 30.6857 89.5773 30.5518 89.4841C30.4178 89.3909 30.2664 89.3152 30.0917 89.2569C29.917 89.1987 29.7364 89.1346 29.5501 89.0706C29.3579 89.0123 29.1657 88.9425 28.9735 88.8609C28.7871 88.7852 28.6124 88.6804 28.4668 88.5581C28.3154 88.4299 28.1931 88.2785 28.1058 88.0922C28.0126 87.9058 27.966 87.6845 27.966 87.4166C27.966 87.1312 28.0242 86.8866 28.1349 86.6828C28.2514 86.479 28.3969 86.3101 28.5833 86.1761C28.7697 86.0422 28.9677 85.9432 29.1948 85.8849C29.4161 85.8209 29.6374 85.7917 29.8529 85.7917C30.2548 85.7917 30.5925 85.8616 30.8779 86.0072C31.1633 86.147 31.3729 86.3159 31.5185 86.5139L31.0526 86.8925Z"
    fill="#C2C2C2" />
  <path d="M35.1642 91.3185H37.9189V91.8543H34.5644V85.949H35.1642V91.3185Z" fill="#C2C2C2" />
  <path
    d="M46.0781 88.8959C46.0781 89.3443 46.0024 89.7578 45.8452 90.1364C45.6879 90.5149 45.4724 90.8411 45.1987 91.1148C44.925 91.3885 44.5989 91.604 44.2203 91.7612C43.8476 91.9185 43.4399 91.9942 42.9973 91.9942C42.5605 91.9942 42.1528 91.9185 41.7743 91.7612C41.4016 91.604 41.0754 91.3885 40.7959 91.1148C40.5222 90.8411 40.3067 90.5149 40.1495 90.1364C39.9922 89.7578 39.9165 89.3443 39.9165 88.8959C39.9165 88.4475 39.9922 88.034 40.1495 87.6554C40.3067 87.2769 40.5222 86.9507 40.7959 86.677C41.0696 86.4033 41.3957 86.1878 41.7743 86.0305C42.147 85.8733 42.5547 85.7976 42.9973 85.7976C43.4341 85.7976 43.8418 85.8733 44.2203 86.0305C44.593 86.1878 44.9192 86.4033 45.1987 86.677C45.4724 86.9507 45.6879 87.2769 45.8452 87.6554C45.9966 88.034 46.0781 88.4475 46.0781 88.8959ZM45.4433 88.9017C45.4433 88.5581 45.3851 88.232 45.2744 87.9175C45.1638 87.6088 45.0007 87.3351 44.7911 87.0963C44.5814 86.8634 44.3251 86.6712 44.0223 86.5314C43.7195 86.3916 43.3759 86.3217 43.0031 86.3217C42.6246 86.3217 42.2868 86.3916 41.984 86.5314C41.6811 86.6712 41.4249 86.8575 41.2152 87.0963C41.0055 87.3351 40.8425 87.6088 40.7318 87.9175C40.6212 88.2262 40.5629 88.5581 40.5629 88.9017C40.5629 89.2453 40.6212 89.5715 40.7318 89.886C40.8425 90.1946 41.0055 90.4683 41.2152 90.7013C41.4249 90.9342 41.6811 91.1206 41.984 91.2604C42.2868 91.4001 42.6304 91.47 43.0031 91.47C43.3817 91.47 43.7195 91.4001 44.0223 91.2604C44.3251 91.1206 44.5814 90.9342 44.7911 90.7013C45.0007 90.4683 45.1638 90.1946 45.2744 89.886C45.3851 89.5715 45.4433 89.2453 45.4433 88.9017Z"
    fill="#C2C2C2" />
  <path
    d="M53.4744 87.009C53.2706 86.7935 53.0259 86.6246 52.7406 86.5023C52.4552 86.38 52.1291 86.3218 51.7622 86.3218C51.3836 86.3218 51.0458 86.3917 50.743 86.5314C50.4402 86.6712 50.1839 86.8576 49.9743 87.0963C49.7646 87.3351 49.6015 87.6089 49.4851 87.9175C49.3686 88.2262 49.3162 88.5581 49.3162 88.9018C49.3162 89.2454 49.3744 89.5715 49.4851 89.886C49.6015 90.1946 49.7588 90.4683 49.9743 90.7013C50.1839 90.9342 50.4402 91.1206 50.743 91.2604C51.0458 91.4002 51.3895 91.47 51.7622 91.47C52.0941 91.47 52.4028 91.4351 52.6823 91.3594C52.9619 91.2895 53.1832 91.1963 53.3579 91.0857V89.2919H51.9835V88.7562H53.9578V91.4234C53.6374 91.6215 53.288 91.7612 52.9153 91.8602C52.5426 91.9534 52.1582 92 51.7564 92C51.3137 92 50.9002 91.9243 50.5217 91.7671C50.1432 91.6098 49.817 91.3944 49.5433 91.1206C49.2696 90.8469 49.0599 90.5208 48.9027 90.1422C48.7513 89.7637 48.6755 89.3502 48.6755 88.9018C48.6755 88.4533 48.7512 88.0398 48.9085 87.6613C49.0657 87.2827 49.2812 86.9566 49.5549 86.6829C49.8287 86.4092 50.1548 86.1936 50.5333 86.0364C50.9061 85.8792 51.3137 85.8035 51.7564 85.8035C52.2281 85.8035 52.6416 85.8733 52.991 86.0131C53.3404 86.1529 53.6433 86.3509 53.8937 86.6013L53.4744 87.009Z"
    fill="#C2C2C2" />
  <path
    d="M57.1201 91.8485H56.462L59.0128 85.9431H59.5952L62.1286 91.8485H61.4589L60.8066 90.2993H57.7549L57.1201 91.8485ZM57.9879 89.7461H60.5911L59.2924 86.607L57.9879 89.7461Z"
    fill="#C2C2C2" />
  <path
    d="M68.861 90.9749H68.8784V85.9431H69.4783V91.8485H68.727L65.2909 86.7701H65.2735V91.8485H64.6736V85.9431H65.4249L68.861 90.9749Z"
    fill="#C2C2C2" />
</svg>