<svg width="97" height="92" viewBox="0 0 97 92" fill="none" xmlns="http://www.w3.org/2000/svg">
  <path
    d="M59.7465 33.3693C59.7465 34.8218 59.567 36.2744 59.2305 37.6932C59.1969 37.8335 59.1688 37.9793 59.1296 38.1195C59.1296 38.1251 59.124 38.1307 59.124 38.1363C58.3108 41.2209 56.7068 44.1203 54.2896 46.5431C52.3604 48.4724 50.1283 49.88 47.7448 50.783C47.7392 50.7886 47.7391 50.7886 47.7335 50.7886C45.608 51.5906 43.3591 51.9944 41.1102 51.9944C36.5058 51.9944 31.9182 50.3007 28.3345 46.9189C28.2055 46.7955 28.0709 46.6665 27.9419 46.5431C27.8185 46.4141 27.6896 46.2851 27.5662 46.1505C24.1788 42.5668 22.4906 37.9793 22.4906 33.3749C22.4906 32.8813 22.5131 32.3878 22.5524 31.8999C23.2702 32.9038 24.0834 33.8628 24.9863 34.7657C27.9307 37.7157 31.4976 39.6898 35.2663 40.6825C35.2719 40.6881 35.2831 40.6881 35.2944 40.6881C36.4889 41.0021 37.7003 41.2209 38.9229 41.3386C39.1753 41.3611 39.4389 41.3779 39.6913 41.4003C40.1624 41.4284 40.6334 41.4396 41.1045 41.4396C41.1101 41.4396 41.1214 41.4452 41.127 41.4452C42.4225 41.4452 43.7124 41.333 44.9911 41.1143C46.2698 40.8956 47.5316 40.5647 48.7655 40.1216C48.9225 40.0655 49.0795 40.0151 49.2365 39.959H49.2422C52.1697 38.8486 54.9121 37.11 57.2676 34.7601C58.1705 33.8572 58.9781 32.8982 59.696 31.8887C59.7128 32.0962 59.7297 32.3093 59.7409 32.5224C59.7409 32.8028 59.7465 33.0832 59.7465 33.3693Z"
    fill="#C2C2C2" />
  <path
    d="M74.485 18.6139C74.485 19.1074 74.4626 19.6066 74.4234 20.1001C73.6999 19.0962 72.8923 18.1372 71.9894 17.2343C69.0394 14.2843 65.4781 12.3102 61.7094 11.3175C61.7038 11.3119 61.6925 11.3119 61.6813 11.3119C60.2512 10.9306 58.7875 10.695 57.3181 10.5997C56.8302 10.5716 56.3367 10.5548 55.8487 10.5548C55.5066 10.5548 55.1589 10.5604 54.8168 10.5772C54.3681 10.5997 53.9195 10.6333 53.4708 10.6782C53.1679 10.7062 52.8707 10.7455 52.5735 10.7903C52.4277 10.8128 52.2763 10.8352 52.1304 10.8633C52.0631 10.8689 51.9958 10.8801 51.9341 10.8913C51.9173 10.8969 51.9061 10.8969 51.8893 10.8969C51.822 10.9081 51.7547 10.9193 51.6874 10.9362C51.5415 10.9642 51.3901 10.9922 51.2443 11.0203C51.0985 11.0483 50.9471 11.0876 50.8013 11.1212C50.7228 11.1381 50.6555 11.1549 50.5825 11.1717C50.5433 11.1829 50.504 11.1885 50.4704 11.1998C50.4311 11.2054 50.3975 11.2166 50.3582 11.2278C50.2124 11.2614 50.061 11.3007 49.9152 11.34C49.7301 11.3904 49.5506 11.4409 49.3656 11.4914C49.3487 11.497 49.3263 11.5026 49.3095 11.5082C49.2926 11.5138 49.2814 11.5194 49.2646 11.525C49.259 11.525 49.2478 11.5306 49.2365 11.5306C49.2309 11.5306 49.231 11.5306 49.2254 11.5362C49.1973 11.5419 49.158 11.5531 49.1244 11.5643C49.1075 11.5699 49.0964 11.5699 49.0851 11.5755C49.0683 11.5811 49.0571 11.5867 49.0403 11.5923C48.9505 11.6204 48.8664 11.6484 48.7767 11.6765C48.6981 11.7045 48.6253 11.7269 48.5524 11.755C48.5411 11.7606 48.5243 11.7606 48.5131 11.7662C48.4738 11.7774 48.4346 11.7942 48.4009 11.8054C48.3617 11.8167 48.3224 11.8335 48.2887 11.8447C48.2495 11.8559 48.2159 11.8727 48.1766 11.884C48.0308 11.9344 47.8906 11.9849 47.7504 12.041H47.7448C44.8172 13.1514 42.0748 14.89 39.7249 17.2399C38.822 18.1428 38.0088 19.1018 37.2909 20.1057C37.2741 19.8982 37.2629 19.6907 37.2517 19.4832C37.2404 19.2028 37.2348 18.9224 37.2348 18.6419C37.2348 18.44 37.2517 18.2438 37.2517 18.0419C37.2909 16.7688 37.4648 15.4901 37.7676 14.2451C37.7956 14.1217 37.8181 14.0039 37.8517 13.8805C37.8517 13.8749 37.8517 13.8749 37.8574 13.8693C38.6706 10.7847 40.2745 7.88526 42.6917 5.46248C44.6209 3.53323 46.853 2.12555 49.2422 1.22262C51.3845 0.409421 53.6503 0.0112305 55.9272 0.0112305C60.5036 0.0112305 65.0743 1.71053 68.6524 5.08672C68.7814 5.2101 68.9104 5.33349 69.0394 5.46248V5.4681C69.1684 5.59148 69.2918 5.72045 69.4207 5.85505C72.7913 9.43314 74.485 14.0151 74.485 18.6139Z"
    fill="#C2C2C2" />
  <path
    d="M39.7193 34.7657C40.6222 35.6687 41.5812 36.4819 42.5851 37.1997C42.0972 37.239 41.6093 37.2614 41.1214 37.2614C39.523 37.2614 37.919 37.0539 36.3655 36.6445C36.3599 36.6445 36.3543 36.6389 36.3487 36.6389C33.2698 35.8257 30.3647 34.2217 27.9419 31.8046C26.0127 29.8753 24.5994 27.6432 23.6964 25.2597C22.8888 23.1285 22.485 20.874 22.485 18.6195C22.485 14.0207 24.1788 9.43312 27.5606 5.84382C27.6839 5.71483 27.8129 5.58584 27.9419 5.45685C28.0653 5.32786 28.1999 5.20448 28.3289 5.07549C31.9182 1.68809 36.5058 0 41.1158 0C41.6093 0 42.0972 0.0224249 42.5907 0.0616829C42.5683 0.0785077 42.5459 0.0897223 42.5234 0.112155C41.542 0.818799 40.6054 1.61518 39.7193 2.49568C36.7694 5.44563 34.7896 9.01251 33.8026 12.7757C33.797 12.7813 33.797 12.7925 33.7913 12.7981C33.2866 14.7105 33.0398 16.6734 33.0398 18.6363C33.0398 21.3844 33.5334 24.1324 34.526 26.7403C35.6309 29.6678 37.3694 32.4159 39.7193 34.7657Z"
    fill="#E3E3E3" />
  <path
    d="M74.485 33.3804C74.485 37.9792 72.7913 42.5668 69.4096 46.1561C69.2862 46.2851 69.1572 46.4141 69.0282 46.5431C68.8992 46.6721 68.7702 46.7955 68.6412 46.9244C65.0519 50.3119 60.4699 52 55.8655 52C55.372 52 54.8729 51.9775 54.3849 51.9383C55.3888 51.2204 56.3479 50.4072 57.2508 49.5099C60.1952 46.5599 62.1749 42.9986 63.1675 39.2299C63.1731 39.2187 63.1731 39.2131 63.1731 39.2018C63.3638 38.484 63.5153 37.7605 63.633 37.0314C63.7115 36.5491 63.7732 36.0612 63.8237 35.5733C63.891 34.8386 63.9303 34.1039 63.9303 33.3692C63.9303 30.6156 63.4367 27.8675 62.444 25.2541C61.8888 23.7903 61.1766 22.377 60.3073 21.0254C59.4436 19.6794 58.4173 18.4063 57.2452 17.2342C56.3423 16.3257 55.3776 15.5181 54.3681 14.7946C54.5756 14.7778 54.7888 14.7666 55.0019 14.7553C55.2823 14.7441 55.5627 14.7385 55.8431 14.7385C56.2413 14.7385 56.6451 14.7497 57.0489 14.7778C58.2434 14.8563 59.4324 15.047 60.6045 15.3554C60.6102 15.3554 60.6101 15.361 60.6214 15.361C63.7003 16.1742 66.6054 17.7782 69.0282 20.1954C70.9574 22.1246 72.3651 24.3567 73.2737 26.7402C74.0813 28.8714 74.485 31.1259 74.485 33.3804Z"
    fill="#757575" />
  <path
    d="M9.77404 70.8889C9.39549 70.3822 8.9296 70.0037 8.37634 69.7474C7.82307 69.497 7.24649 69.3689 6.64081 69.3689C5.94778 69.3689 5.30717 69.5086 4.72478 69.794C4.1424 70.0794 3.63574 70.4579 3.2106 70.9355C2.78546 71.413 2.4535 71.9663 2.22054 72.5953C1.98177 73.2242 1.8653 73.8823 1.8653 74.5696C1.8653 75.3034 1.98177 75.9848 2.22054 76.6137C2.4535 77.2427 2.78546 77.7901 3.20477 78.256C3.62409 78.7219 4.12491 79.0889 4.7073 79.3626C5.28968 79.6363 5.93613 79.7702 6.64664 79.7702C7.41539 79.7702 8.09679 79.6188 8.69664 79.3218C9.2965 79.019 9.82065 78.588 10.2691 78.0231L11.3814 78.9607C10.8165 79.7178 10.1351 80.2711 9.33725 80.6263C8.53938 80.9816 7.64251 81.1563 6.64081 81.1563C5.74394 81.1563 4.90531 80.9932 4.13074 80.6613C3.35035 80.3293 2.6748 79.8751 2.10406 79.2927C1.53332 78.7103 1.08489 78.0173 0.758756 77.2136C0.432622 76.4099 0.269539 75.5363 0.269539 74.5812C0.269539 73.661 0.426811 72.7991 0.735474 72.0012C1.04996 71.1976 1.48672 70.5045 2.05163 69.9163C2.61654 69.3281 3.29212 68.8622 4.06669 68.5186C4.84708 68.175 5.69738 68.0061 6.62919 68.0061C7.47947 68.0061 8.29478 68.1575 9.081 68.4662C9.86722 68.7748 10.5195 69.2757 11.0553 69.9687L9.77404 70.8889Z"
    fill="#757575" />
  <path
    d="M20.5947 81.1502C19.6396 81.1502 18.766 80.9872 17.9682 80.6552C17.1703 80.3232 16.4831 79.869 15.9007 79.2866C15.3183 78.7042 14.8641 78.0053 14.5379 77.2016C14.2118 76.3921 14.0487 75.5186 14.0487 74.5751C14.0487 73.6317 14.2118 72.7581 14.5379 71.9486C14.8641 71.139 15.3183 70.446 15.9007 69.8636C16.4831 69.2813 17.1761 68.8212 17.9682 68.495C18.766 68.1631 19.6396 68 20.5947 68C21.5498 68 22.4234 68.1631 23.2213 68.495C24.0191 68.827 24.7064 69.2813 25.2887 69.8636C25.8711 70.446 26.3254 71.1449 26.6515 71.9486C26.9777 72.7581 27.1407 73.6317 27.1407 74.5751C27.1407 75.5186 26.9777 76.3921 26.6515 77.2016C26.3254 78.0112 25.8711 78.7042 25.2887 79.2866C24.7064 79.869 24.0133 80.3291 23.2213 80.6552C22.4292 80.9813 21.5498 81.1502 20.5947 81.1502ZM20.5947 79.77C21.3285 79.77 21.9925 79.636 22.604 79.3623C23.2096 79.0886 23.7338 78.7217 24.1706 78.2499C24.6074 77.7782 24.9451 77.225 25.1897 76.596C25.4285 75.967 25.5508 75.2914 25.5508 74.5693C25.5508 73.853 25.4285 73.1774 25.1897 72.5426C24.9451 71.9136 24.6074 71.3603 24.1706 70.8886C23.7338 70.4169 23.2096 70.0442 22.604 69.7763C21.9983 69.5025 21.3285 69.3686 20.5947 69.3686C19.8609 69.3686 19.197 69.5025 18.5855 69.7763C17.9798 70.05 17.4557 70.4169 17.0189 70.8886C16.5821 71.3603 16.2443 71.9136 15.9997 72.5426C15.7551 73.1716 15.6386 73.8471 15.6386 74.5693C15.6386 75.2856 15.7609 75.9612 15.9997 76.596C16.2385 77.225 16.5821 77.7782 17.0189 78.2499C17.4557 78.7217 17.974 79.0944 18.5855 79.3623C19.197 79.636 19.8668 79.77 20.5947 79.77Z"
    fill="#757575" />
  <path
    d="M30.8563 68.3086H33.0694L37.315 78.1218H37.3499L41.6304 68.3086H43.7852V80.8298H42.3002V70.3236H42.2652L37.775 80.8298H36.8723L32.3822 70.3236H32.3472V80.8298H30.8621V68.3086H30.8563Z"
    fill="#757575" />
  <path
    d="M48.223 68.3086H51.9386C52.5151 68.3086 53.0684 68.3668 53.5925 68.4775C54.1167 68.5881 54.5826 68.7803 54.9903 69.0424C55.3979 69.3103 55.7241 69.6597 55.9628 70.1023C56.2016 70.5449 56.3239 71.0924 56.3239 71.7388C56.3239 72.4202 56.1958 72.991 55.9337 73.4394C55.6717 73.8878 55.3397 74.2431 54.932 74.4993C54.5244 74.7614 54.0817 74.9419 53.5984 75.0468C53.115 75.1516 52.6549 75.204 52.2181 75.204H49.7081V80.8298H48.223V68.3086ZM49.7081 73.8238H52.2181C52.9636 73.8238 53.5634 73.6549 54.0293 73.3171C54.4952 72.9793 54.7282 72.461 54.7282 71.7505C54.7282 71.04 54.4952 70.5217 54.0293 70.1839C53.5634 69.8461 52.9577 69.683 52.2181 69.683H49.7081V73.8238Z"
    fill="#757575" />
  <path
    d="M62.7942 68.3086H64.1919L69.5149 80.8298H67.7794L66.504 77.7548H60.2434L58.9505 80.8298H57.2674L62.7942 68.3086ZM63.4639 70.2188H63.429L60.8316 76.3746H65.9449L63.4639 70.2188Z"
    fill="#757575" />
  <path
    d="M72.5025 68.3086H74.3778L81.6285 78.7099H81.6634V68.3086H83.1485V80.8298H81.2732L74.0226 70.4285H73.9876V80.8298H72.5025V68.3086Z"
    fill="#757575" />
  <path
    d="M90.5448 75.437L85.8741 68.3086H87.7668L91.2844 73.9694L94.9126 68.3086H96.7006L92.0298 75.437V80.8298H90.5448V75.437Z"
    fill="#757575" />
  <path
    d="M30.8912 86.8925C30.7631 86.7119 30.6001 86.5722 30.3962 86.4615C30.1982 86.3509 29.9536 86.2984 29.6683 86.2984C29.5227 86.2984 29.3771 86.3217 29.2256 86.3625C29.0742 86.4091 28.9403 86.4731 28.818 86.5663C28.6957 86.6595 28.5967 86.776 28.5209 86.9099C28.4452 87.0497 28.4103 87.2128 28.4103 87.405C28.4103 87.5971 28.4452 87.7486 28.5209 87.8709C28.5908 87.9932 28.6898 88.098 28.8063 88.1854C28.9228 88.2727 29.0626 88.3426 29.214 88.4008C29.3654 88.4591 29.5285 88.5115 29.6915 88.5697C29.8954 88.6338 30.105 88.7095 30.3089 88.7852C30.5185 88.8609 30.7049 88.9657 30.868 89.088C31.0369 89.2103 31.1708 89.3734 31.2756 89.5656C31.3805 89.7578 31.4329 90.0024 31.4329 90.2936C31.4329 90.5906 31.3746 90.841 31.264 91.0565C31.1533 91.272 31.0077 91.4467 30.8272 91.5865C30.6467 91.7262 30.4428 91.8311 30.2099 91.8951C29.9769 91.9592 29.744 91.9941 29.511 91.9941C29.3305 91.9941 29.1558 91.9767 28.9752 91.9417C28.7947 91.9068 28.6258 91.8485 28.4685 91.7786C28.3055 91.7088 28.1599 91.6156 28.0201 91.5049C27.8803 91.3943 27.758 91.2662 27.6532 91.1206L28.1715 90.7362C28.2997 90.9459 28.4802 91.1264 28.7073 91.2662C28.9403 91.4059 29.2082 91.4816 29.5227 91.4816C29.6741 91.4816 29.8255 91.4584 29.9827 91.4118C30.14 91.3652 30.2798 91.2894 30.4021 91.1963C30.5244 91.0973 30.6292 90.9808 30.7107 90.8352C30.7922 90.6954 30.833 90.5265 30.833 90.3402C30.833 90.1363 30.7922 89.9616 30.7107 89.8277C30.6292 89.6937 30.5244 89.5772 30.3904 89.4841C30.2565 89.3909 30.105 89.3152 29.9303 89.2569C29.7556 89.1987 29.575 89.1346 29.3887 89.0706C29.1965 89.0123 29.0043 88.9425 28.8121 88.8609C28.6199 88.7852 28.4511 88.6804 28.3055 88.5581C28.154 88.4299 28.0317 88.2785 27.9444 88.0922C27.8512 87.9058 27.8046 87.6845 27.8046 87.4166C27.8046 87.1312 27.8628 86.8866 27.9735 86.6828C28.09 86.479 28.2356 86.3101 28.4219 86.1761C28.6083 86.0422 28.8063 85.9432 29.0334 85.8849C29.2547 85.8209 29.4761 85.7917 29.6915 85.7917C30.0934 85.7917 30.4312 85.8616 30.7165 86.0072C31.0019 86.147 31.2115 86.3159 31.3571 86.5139L30.8912 86.8925Z"
    fill="#C2C2C2" />
  <path d="M35.0028 91.3185H37.7575V91.8543H34.403V85.949H35.0028V91.3185Z" fill="#C2C2C2" />
  <path
    d="M45.9109 88.8959C45.9109 89.3443 45.8352 89.7578 45.6779 90.1364C45.5207 90.5149 45.3052 90.841 45.0315 91.1148C44.7578 91.3885 44.4316 91.604 44.0531 91.7612C43.6803 91.9184 43.2727 91.9942 42.8301 91.9942C42.3875 91.9942 41.9856 91.9184 41.6071 91.7612C41.2344 91.604 40.9082 91.3885 40.6287 91.1148C40.355 90.841 40.1395 90.5149 39.9822 90.1364C39.825 89.7578 39.7493 89.3443 39.7493 88.8959C39.7493 88.4475 39.825 88.034 39.9822 87.6554C40.1395 87.2769 40.355 86.9507 40.6287 86.677C40.9024 86.4033 41.2285 86.1878 41.6071 86.0306C41.9798 85.8733 42.3875 85.7976 42.8301 85.7976C43.2727 85.7976 43.6745 85.8733 44.0531 86.0306C44.4258 86.1878 44.752 86.4033 45.0315 86.677C45.3052 86.9507 45.5207 87.2769 45.6779 87.6554C45.8352 88.034 45.9109 88.4475 45.9109 88.8959ZM45.2819 88.9017C45.2819 88.5581 45.2237 88.232 45.113 87.9175C45.0024 87.6088 44.8393 87.3351 44.6297 87.0963C44.42 86.8634 44.1637 86.6712 43.8609 86.5314C43.5581 86.3916 43.2145 86.3217 42.8417 86.3217C42.4632 86.3217 42.1254 86.3916 41.8226 86.5314C41.5197 86.6712 41.2635 86.8576 41.0538 87.0963C40.8442 87.3351 40.6811 87.6088 40.5704 87.9175C40.4598 88.2262 40.4016 88.5581 40.4016 88.9017C40.4016 89.2453 40.4598 89.5714 40.5704 89.8859C40.6811 90.1946 40.8442 90.4683 41.0538 90.7013C41.2635 90.9342 41.5197 91.1206 41.8226 91.2604C42.1254 91.4001 42.469 91.47 42.8417 91.47C43.2203 91.47 43.5581 91.4001 43.8609 91.2604C44.1637 91.1206 44.42 90.9342 44.6297 90.7013C44.8393 90.4683 45.0024 90.1946 45.113 89.8859C45.2237 89.5714 45.2819 89.2453 45.2819 88.9017Z"
    fill="#C2C2C2" />
  <path
    d="M53.313 87.009C53.1091 86.7935 52.8645 86.6246 52.5792 86.5023C52.2938 86.38 51.9677 86.3218 51.6008 86.3218C51.2222 86.3218 50.8844 86.3917 50.5816 86.5314C50.2788 86.6712 50.0225 86.8576 49.8129 87.0964C49.6032 87.3351 49.4401 87.6089 49.3237 87.9175C49.2072 88.2262 49.1548 88.5581 49.1548 88.9017C49.1548 89.2453 49.213 89.5715 49.3237 89.886C49.4401 90.1946 49.5974 90.4684 49.8129 90.7013C50.0225 90.9343 50.2788 91.1206 50.5816 91.2604C50.8844 91.4002 51.2222 91.47 51.6008 91.47C51.9327 91.47 52.2414 91.4351 52.5209 91.3594C52.8005 91.2895 53.0218 91.1963 53.1965 91.0857V89.2919H51.8221V88.7561H53.7964V91.4235C53.4761 91.6156 53.1266 91.7612 52.7539 91.8602C52.3812 91.9534 51.9968 92 51.5949 92C51.1523 92 50.7388 91.9243 50.3603 91.7671C49.9817 91.6098 49.6556 91.3943 49.3819 91.1206C49.1082 90.8469 48.8985 90.5208 48.7413 90.1422C48.5899 89.7637 48.5141 89.3502 48.5141 88.9017C48.5141 88.4533 48.5899 88.0398 48.7471 87.6613C48.9044 87.2827 49.1198 86.9566 49.3936 86.6829C49.6673 86.4091 49.9934 86.1937 50.372 86.0364C50.7447 85.8792 51.1523 85.8035 51.5949 85.8035C52.0667 85.8035 52.4802 85.8733 52.8296 86.0131C53.179 86.1529 53.4819 86.3509 53.7323 86.6013L53.313 87.009Z"
    fill="#C2C2C2" />
  <path
    d="M56.9587 91.8485H56.3006L58.8514 85.9431H59.4338L61.9672 91.8485H61.2975L60.6452 90.2993H57.5935L56.9587 91.8485ZM57.8264 89.7461H60.4297L59.131 86.607L57.8264 89.7461Z"
    fill="#C2C2C2" />
  <path
    d="M68.6937 90.9749H68.7112V85.9431H69.3111V91.8485H68.5598L65.1237 86.7701H65.1062V91.8485H64.5064V85.9431H65.2577L68.6937 90.9749Z"
    fill="#C2C2C2" />
</svg>