<svg width="98" height="92" viewBox="0 0 98 92" fill="none" xmlns="http://www.w3.org/2000/svg">
  <path
    d="M23.7088 24.0659C23.7032 24.0716 23.6918 24.0716 23.6862 24.0716C23.6862 24.0773 23.6918 24.0773 23.6918 24.0773C23.8787 24.1169 24.0656 24.1566 24.2525 24.1905C24.0656 24.1452 23.8901 24.0999 23.7088 24.0659ZM23.7088 24.0659C23.7032 24.0716 23.6918 24.0716 23.6862 24.0716C23.6862 24.0773 23.6918 24.0773 23.6918 24.0773C23.8787 24.1169 24.0656 24.1566 24.2525 24.1905C24.0656 24.1452 23.8901 24.0999 23.7088 24.0659ZM23.7088 24.0659C23.7032 24.0716 23.6918 24.0716 23.6862 24.0716C23.6862 24.0773 23.6918 24.0773 23.6918 24.0773C23.8787 24.1169 24.0656 24.1566 24.2525 24.1905C24.0656 24.1452 23.8901 24.0999 23.7088 24.0659ZM23.7088 24.0659C23.7032 24.0716 23.6918 24.0716 23.6862 24.0716C23.6862 24.0773 23.6918 24.0773 23.6918 24.0773C23.8787 24.1169 24.0656 24.1566 24.2525 24.1905C24.0656 24.1452 23.8901 24.0999 23.7088 24.0659ZM23.7088 24.0659C23.7032 24.0716 23.6918 24.0716 23.6862 24.0716C23.6862 24.0773 23.6918 24.0773 23.6918 24.0773C23.8787 24.1169 24.0656 24.1566 24.2525 24.1905C24.0656 24.1452 23.8901 24.0999 23.7088 24.0659Z"
    fill="#C2C2C2" />
  <path
    d="M47.7408 8.0824C47.7408 10.5915 47.4746 13.027 46.9705 15.3435C46.4721 17.6543 45.7358 19.8519 44.8069 21.9022C42.7736 22.8254 40.5929 23.5561 38.3047 24.0545C35.9656 24.5642 33.5131 24.8361 30.9814 24.8361C28.6705 24.8361 26.4163 24.6096 24.2584 24.1791C24.2527 24.1791 24.247 24.1734 24.247 24.1734C24.0658 24.1338 23.8902 24.0885 23.709 24.0488C23.8902 24.0092 24.0658 23.9695 24.247 23.9242C24.0601 23.9582 23.8732 23.9979 23.6863 24.0375C25.006 17.9715 27.9286 12.6814 31.8819 8.86965C35.6881 4.96158 40.9441 2.073 46.9648 0.764648V0.770318C46.9705 0.781646 46.9705 0.792972 46.9705 0.8043C47.4746 3.13781 47.7408 5.5733 47.7408 8.0824Z"
    fill="#C2C2C2" />
  <path
    d="M24.2469 24.1847C24.06 24.1508 23.8731 24.1111 23.6862 24.0715C23.6862 24.0715 23.6805 24.0714 23.6805 24.0658V24.0601C23.6862 24.0601 23.6975 24.0601 23.7032 24.0544C23.8901 24.0998 24.0656 24.1451 24.2469 24.1847Z"
    fill="#C2C2C2" />
  <path
    d="M46.9648 0.775948C44.637 0.271863 42.1902 0 39.6698 0C34.6629 0 29.9505 1.0648 25.8442 2.93388C23.9752 7.04019 22.9104 11.7525 22.9104 16.7594C22.9104 19.2798 23.1822 21.7266 23.6863 24.0544C23.6863 24.0488 23.692 24.0488 23.692 24.0488C25.0117 17.9828 27.9342 12.6927 31.8876 8.88095C35.6937 4.97287 40.9498 2.0843 46.9705 0.775948H46.9648Z"
    fill="#E3E3E3" />
  <path
    d="M50.8275 0.798522C50.8218 0.792858 50.8218 0.781543 50.8218 0.775879H50.8161C50.8105 0.775879 50.8105 0.781548 50.8105 0.781548C50.7708 0.968456 50.7312 1.15536 50.6972 1.34227C50.7481 1.16102 50.7878 0.979766 50.8275 0.798522ZM50.8275 0.798522C50.8218 0.792858 50.8218 0.781543 50.8218 0.775879H50.8161C50.8105 0.775879 50.8105 0.781548 50.8105 0.781548C50.7708 0.968456 50.7312 1.15536 50.6972 1.34227C50.7481 1.16102 50.7878 0.979766 50.8275 0.798522ZM50.8275 0.798522C50.8218 0.792858 50.8218 0.781543 50.8218 0.775879H50.8161C50.8105 0.775879 50.8105 0.781548 50.8105 0.781548C50.7708 0.968456 50.7312 1.15536 50.6972 1.34227C50.7481 1.16102 50.7878 0.979766 50.8275 0.798522ZM50.8275 0.798522C50.8218 0.792858 50.8218 0.781543 50.8218 0.775879H50.8161C50.8105 0.775879 50.8105 0.781548 50.8105 0.781548C50.7708 0.968456 50.7312 1.15536 50.6972 1.34227C50.7481 1.16102 50.7878 0.979766 50.8275 0.798522ZM50.8275 0.798522C50.8218 0.792858 50.8218 0.781543 50.8218 0.775879H50.8161C50.8105 0.775879 50.8105 0.781548 50.8105 0.781548C50.7708 0.968456 50.7312 1.15536 50.6972 1.34227C50.7481 1.16102 50.7878 0.979766 50.8275 0.798522Z"
    fill="#C2C2C2" />
  <path
    d="M66.8109 24.8473C64.3018 24.8473 61.8664 24.5811 59.5442 24.077C57.2277 23.5786 55.0301 22.8423 52.9797 21.9077C52.0565 19.8744 51.3259 17.6938 50.8275 15.3999C50.3177 13.0608 50.0459 10.6026 50.0459 8.07656C50.0459 5.76004 50.2724 3.51149 50.7028 1.35355C50.7028 1.34789 50.7085 1.34221 50.7085 1.34221C50.7482 1.16097 50.7935 0.985381 50.8331 0.804137C50.8728 0.985381 50.9124 1.16097 50.9577 1.34221C50.9237 1.1553 50.8841 0.968402 50.8444 0.781494C56.9161 2.10118 62.2062 5.02938 66.0179 8.9771C69.926 12.7889 72.8146 18.0393 74.123 24.0657H74.1173C74.106 24.0713 74.0946 24.0713 74.0833 24.0713C71.7611 24.5811 69.3257 24.8473 66.8109 24.8473Z"
    fill="#C2C2C2" />
  <path
    d="M50.7028 1.33665C50.7368 1.14974 50.7765 0.962841 50.8161 0.775933C50.8161 0.775933 50.8161 0.770264 50.8218 0.770264H50.8275C50.8275 0.775928 50.8274 0.787277 50.8331 0.792941C50.7878 0.979849 50.7481 1.16107 50.7028 1.33665Z"
    fill="#C2C2C2" />
  <path
    d="M74.1286 24.0658C74.6327 21.7379 74.9046 19.2911 74.9046 16.7707C74.9046 11.7582 73.8397 7.04586 71.965 2.93955C67.8587 1.07047 63.1464 0 58.1339 0C55.6134 0 53.1666 0.271863 50.8331 0.775948C50.8388 0.775948 50.8388 0.781617 50.8388 0.781617C56.9104 2.1013 62.2005 5.0295 66.0123 8.97722C69.9203 12.789 72.8089 18.0394 74.1173 24.0658H74.1286C74.1286 24.0658 74.123 24.0658 74.1286 24.0658Z"
    fill="#757575" />
  <path
    d="M74.0946 27.9342C74.1003 27.9285 74.1117 27.9285 74.1173 27.9285V27.9229C74.1173 27.9172 74.1117 27.9172 74.1117 27.9172C73.9247 27.8776 73.7378 27.8379 73.5509 27.804C73.7378 27.8549 73.9191 27.8946 74.0946 27.9342ZM74.0946 27.9342C74.1003 27.9285 74.1117 27.9285 74.1173 27.9285V27.9229C74.1173 27.9172 74.1117 27.9172 74.1117 27.9172C73.9247 27.8776 73.7378 27.8379 73.5509 27.804C73.7378 27.8549 73.9191 27.8946 74.0946 27.9342ZM74.0946 27.9342C74.1003 27.9285 74.1117 27.9285 74.1173 27.9285V27.9229C74.1173 27.9172 74.1117 27.9172 74.1117 27.9172C73.9247 27.8776 73.7378 27.8379 73.5509 27.804C73.7378 27.8549 73.9191 27.8946 74.0946 27.9342ZM74.0946 27.9342C74.1003 27.9285 74.1117 27.9285 74.1173 27.9285V27.9229C74.1173 27.9172 74.1117 27.9172 74.1117 27.9172C73.9247 27.8776 73.7378 27.8379 73.5509 27.804C73.7378 27.8549 73.9191 27.8946 74.0946 27.9342ZM74.0946 27.9342C74.1003 27.9285 74.1117 27.9285 74.1173 27.9285V27.9229C74.1173 27.9172 74.1117 27.9172 74.1117 27.9172C73.9247 27.8776 73.7378 27.8379 73.5509 27.804C73.7378 27.8549 73.9191 27.8946 74.0946 27.9342Z"
    fill="#C2C2C2" />
  <path
    d="M50.0628 43.9119C50.0628 41.4028 50.329 38.9674 50.8331 36.6509C51.3315 34.34 52.0678 32.1424 52.9967 30.0921C55.03 29.1689 57.2106 28.4382 59.4988 27.9398C61.838 27.4301 64.2905 27.1582 66.8222 27.1582C69.1331 27.1582 71.3873 27.3847 73.5452 27.8152C73.5509 27.8152 73.5566 27.8209 73.5566 27.8209C73.7378 27.8605 73.9134 27.9058 74.0946 27.9455C73.9134 27.9851 73.7378 28.0248 73.5566 28.0701C73.7435 28.0361 73.9304 27.9964 74.1173 27.9568C72.7976 34.0228 69.8751 39.3129 65.9217 43.1247C62.1156 47.0327 56.8595 49.9213 50.8388 51.2297V51.224C50.8331 51.2127 50.8331 51.2013 50.8331 51.19C50.329 48.8622 50.0628 46.421 50.0628 43.9119Z"
    fill="#C2C2C2" />
  <path
    d="M73.5566 27.8152C73.7435 27.8492 73.9304 27.8888 74.1173 27.9285C74.1173 27.9285 74.123 27.9285 74.123 27.9341V27.9398C74.1173 27.9398 74.106 27.9398 74.1003 27.9455C73.9191 27.8945 73.7379 27.8548 73.5566 27.8152Z"
    fill="#C2C2C2" />
  <path
    d="M50.8445 51.2241C53.1723 51.7281 55.6191 52 58.1396 52C63.1464 52 67.8587 50.9352 71.965 49.0661C73.8341 44.9598 74.8989 40.2475 74.8989 35.2406C74.8989 32.7202 74.6271 30.2734 74.123 27.9456C74.123 27.9512 74.1173 27.9512 74.1173 27.9512C72.7976 34.0172 69.8751 39.3073 65.9217 43.1191C62.1156 47.0271 56.8595 49.9157 50.8388 51.2241H50.8445Z"
    fill="#E3E3E3" />
  <path
    d="M46.976 51.2015C46.9816 51.2071 46.9817 51.2184 46.9817 51.2241H46.9873C46.993 51.2241 46.993 51.2184 46.993 51.2184C47.0326 51.0315 47.0723 50.8446 47.1063 50.6577C47.0553 50.839 47.0156 51.0202 46.976 51.2015ZM46.976 51.2015C46.9816 51.2071 46.9817 51.2184 46.9817 51.2241H46.9873C46.993 51.2241 46.993 51.2184 46.993 51.2184C47.0326 51.0315 47.0723 50.8446 47.1063 50.6577C47.0553 50.839 47.0156 51.0202 46.976 51.2015ZM46.976 51.2015C46.9816 51.2071 46.9817 51.2184 46.9817 51.2241H46.9873C46.993 51.2241 46.993 51.2184 46.993 51.2184C47.0326 51.0315 47.0723 50.8446 47.1063 50.6577C47.0553 50.839 47.0156 51.0202 46.976 51.2015ZM46.976 51.2015C46.9816 51.2071 46.9817 51.2184 46.9817 51.2241H46.9873C46.993 51.2241 46.993 51.2184 46.993 51.2184C47.0326 51.0315 47.0723 50.8446 47.1063 50.6577C47.0553 50.839 47.0156 51.0202 46.976 51.2015ZM46.976 51.2015C46.9816 51.2071 46.9817 51.2184 46.9817 51.2241H46.9873C46.993 51.2241 46.993 51.2184 46.993 51.2184C47.0326 51.0315 47.0723 50.8446 47.1063 50.6577C47.0553 50.839 47.0156 51.0202 46.976 51.2015Z"
    fill="#C2C2C2" />
  <path
    d="M30.9926 27.1526C33.5017 27.1526 35.9371 27.4188 38.2593 27.9229C40.5759 28.4213 42.7734 29.1576 44.8237 30.0921C45.7469 32.1255 46.4776 34.3061 46.976 36.5999C47.4858 38.9391 47.7576 41.3972 47.7576 43.9233C47.7576 46.2398 47.5311 48.4884 47.1006 50.6463C47.1006 50.652 47.095 50.6577 47.095 50.6577C47.0553 50.8389 47.01 51.0145 46.9704 51.1957C46.9307 51.0145 46.8911 50.8389 46.8457 50.6577C46.8797 50.8446 46.9194 51.0315 46.959 51.2184C40.8874 49.8987 35.5973 46.9705 31.7855 43.0228C27.8775 39.211 24.9889 33.9606 23.6805 27.9342H23.6862C23.6975 27.9285 23.7088 27.9285 23.7201 27.9285C26.0423 27.4188 28.4835 27.1526 30.9926 27.1526Z"
    fill="#C2C2C2" />
  <path
    d="M47.1006 50.6577C47.0666 50.8446 47.027 51.0315 46.9873 51.2184C46.9873 51.2184 46.9873 51.2241 46.9817 51.2241H46.976C46.976 51.2184 46.976 51.2071 46.9704 51.2015C47.0157 51.0202 47.0553 50.839 47.1006 50.6577Z"
    fill="#C2C2C2" />
  <path
    d="M23.6805 27.9343C23.1764 30.2622 22.9046 32.709 22.9046 35.2294C22.9046 40.2419 23.9694 44.9543 25.8441 49.0606C29.9504 50.9296 34.6628 52.0001 39.6753 52.0001C42.1957 52.0001 44.6425 51.7282 46.976 51.2242C46.9703 51.2242 46.9704 51.2185 46.9704 51.2185C40.8987 49.8988 35.6086 46.9706 31.7968 43.0229C27.8888 39.2111 25.0002 33.9607 23.6918 27.9343H23.6805Z"
    fill="#757575" />
  <path
    d="M10.203 70.8938C9.82451 70.3872 9.35871 70.0088 8.80558 69.7526C8.25245 69.5022 7.67604 69.3741 7.07051 69.3741C6.37764 69.3741 5.73715 69.5139 5.15491 69.7992C4.57266 70.0845 4.06613 70.4629 3.64109 70.9404C3.21605 71.4178 2.88417 71.9709 2.65127 72.5998C2.41255 73.2286 2.29611 73.8865 2.29611 74.5736C2.29611 75.3072 2.41255 75.9884 2.65127 76.6172C2.88417 77.2461 3.21605 77.7934 3.63526 78.2592C4.05448 78.725 4.55522 79.0918 5.13746 79.3654C5.7197 79.6391 6.36596 79.773 7.0763 79.773C7.84486 79.773 8.52609 79.6216 9.1258 79.3246C9.72551 79.0219 10.2495 78.591 10.6979 78.0263L11.8099 78.9637C11.2452 79.7206 10.564 80.2737 9.76629 80.6289C8.96862 80.9841 8.07196 81.1587 7.07051 81.1587C6.17385 81.1587 5.33543 80.9957 4.56104 80.6638C3.78084 80.332 3.10541 79.8778 2.53482 79.2955C1.96422 78.7133 1.51589 78.0204 1.18984 77.2169C0.863783 76.4134 0.700775 75.5401 0.700775 74.5794C0.700775 73.6595 0.857973 72.7977 1.16656 72.0001C1.48097 71.1966 1.91766 70.5037 2.48243 69.9156C3.04721 69.3276 3.72259 68.8618 4.49697 68.5182C5.27717 68.1747 6.12726 68.0059 7.05885 68.0059C7.90892 68.0059 8.72407 68.1573 9.5101 68.4659C10.2961 68.7744 10.9482 69.2751 11.4839 69.968L10.203 70.8938Z"
    fill="#757575" />
  <path
    d="M21.021 81.147C20.0661 81.147 19.1928 80.984 18.3951 80.6521C17.5974 80.3202 16.9104 79.8661 16.3281 79.2838C15.7459 78.7016 15.2918 78.0029 14.9657 77.1994C14.6397 76.3901 14.4766 75.5167 14.4766 74.5735C14.4766 73.6303 14.6397 72.7569 14.9657 71.9476C15.2918 71.1383 15.7459 70.4454 16.3281 69.8631C16.9104 69.2809 17.6032 68.8209 18.3951 68.4949C19.1928 68.163 20.0661 68 21.021 68C21.9759 68 22.8492 68.163 23.6469 68.4949C24.4446 68.8268 25.1316 69.2809 25.7139 69.8631C26.2961 70.4454 26.7503 71.1441 27.0763 71.9476C27.4024 72.7569 27.5654 73.6303 27.5654 74.5735C27.5654 75.5167 27.4024 76.3901 27.0763 77.1994C26.7503 78.0087 26.2961 78.7016 25.7139 79.2838C25.1316 79.8661 24.4388 80.3261 23.6469 80.6521C22.8492 80.984 21.9759 81.147 21.021 81.147ZM21.021 79.7671C21.7546 79.7671 22.4184 79.6332 23.0297 79.3595C23.6353 79.0859 24.1593 78.7191 24.596 78.2474C25.0327 77.7758 25.3704 77.2227 25.6149 76.5939C25.8536 75.965 25.9759 75.2897 25.9759 74.5677C25.9759 73.8515 25.8536 73.1761 25.6149 72.5415C25.3704 71.9127 25.0327 71.3595 24.596 70.8879C24.1593 70.4163 23.6353 70.0437 23.0297 69.7758C22.4242 69.5022 21.7546 69.3683 21.021 69.3683C20.2874 69.3683 19.6236 69.5022 19.0123 69.7758C18.4067 70.0495 17.8827 70.4163 17.446 70.8879C17.0093 71.3595 16.6716 71.9127 16.4271 72.5415C16.1826 73.1703 16.0661 73.8457 16.0661 74.5677C16.0661 75.2838 16.1884 75.9592 16.4271 76.5939C16.6658 77.2227 17.0093 77.7758 17.446 78.2474C17.8827 78.7191 18.4009 79.0917 19.0123 79.3595C19.6236 79.6332 20.2932 79.7671 21.021 79.7671Z"
    fill="#757575" />
  <path
    d="M31.2743 68.3086H33.4868L37.7314 78.1194H37.7663L42.0458 68.3086H44.2001V80.8268H42.7153V70.3232H42.6804L38.1913 80.8268H37.2888L32.7998 70.3232H32.7649V80.8268H31.2801V68.3086H31.2743Z"
    fill="#757575" />
  <path
    d="M48.6426 68.3086H52.3573C52.9337 68.3086 53.4869 68.3668 54.0109 68.4774C54.5349 68.5881 55.0007 68.7802 55.4082 69.0422C55.8158 69.3101 56.1419 69.6594 56.3806 70.1019C56.6193 70.5444 56.7416 71.0917 56.7416 71.738C56.7416 72.4192 56.6135 72.9898 56.3515 73.4381C56.0894 73.8865 55.7576 74.2416 55.35 74.4978C54.9424 74.7598 54.5 74.9403 54.0167 75.0451C53.5334 75.1499 53.0734 75.2024 52.6367 75.2024H50.1273V80.8268H48.6426V68.3086ZM50.1273 73.8282H52.6367C53.382 73.8282 53.9818 73.6594 54.4475 73.3217C54.9133 72.984 55.1462 72.4658 55.1462 71.7555C55.1462 71.0451 54.9133 70.5269 54.4475 70.1892C53.9818 69.8515 53.3762 69.6885 52.6367 69.6885H50.1273V73.8282Z"
    fill="#757575" />
  <path
    d="M63.2102 68.3086H64.6076L69.9293 80.8268H68.1943L66.9191 77.7526H60.66L59.3674 80.8268H57.6848L63.2102 68.3086ZM63.8798 70.2184H63.8449L61.2481 76.3726H66.3602L63.8798 70.2184Z"
    fill="#757575" />
  <path
    d="M72.9163 68.3086H74.7911L82.04 78.7074H82.0749V68.3086H83.5597V80.8268H81.6849L74.4359 70.428H74.401V80.8268H72.9163V68.3086Z"
    fill="#757575" />
  <path
    d="M90.9541 75.4352L86.2845 68.3086H88.1768L91.6936 73.968L95.3209 68.3086H97.1085L92.4389 75.4352V80.8268H90.9541V75.4352Z"
    fill="#757575" />
  <path
    d="M31.3092 86.8936C31.1811 86.7131 31.0181 86.5734 30.8201 86.4628C30.6222 86.3521 30.3776 86.2998 30.0923 86.2998C29.9468 86.2998 29.8012 86.323 29.6498 86.3638C29.4984 86.4104 29.3645 86.4744 29.2422 86.5676C29.12 86.6607 29.021 86.7772 28.9453 86.9111C28.8696 87.0508 28.8347 87.2139 28.8347 87.406C28.8347 87.5981 28.8696 87.7495 28.9453 87.8718C29.0151 87.9941 29.1142 88.0989 29.2306 88.1862C29.3471 88.2736 29.4868 88.3434 29.6381 88.4016C29.7895 88.4599 29.9526 88.5123 30.1156 88.5705C30.3194 88.6345 30.529 88.7102 30.7328 88.7859C30.9424 88.8616 31.1287 88.9664 31.2917 89.0887C31.4606 89.211 31.5945 89.374 31.6993 89.5661C31.8041 89.7583 31.8565 90.0028 31.8565 90.2939C31.8565 90.5909 31.7983 90.8412 31.6877 91.0567C31.577 91.2721 31.4315 91.4468 31.251 91.5865C31.0705 91.7262 30.8667 91.8311 30.6338 91.8951C30.4009 91.9591 30.1738 91.9941 29.9351 91.9941C29.7546 91.9941 29.5799 91.9766 29.3994 91.9417C29.2189 91.9068 29.0501 91.8485 28.8929 91.7786C28.7299 91.7088 28.5843 91.6156 28.4446 91.505C28.3048 91.3944 28.1825 91.2663 28.0777 91.1207L28.5959 90.7364C28.724 90.946 28.9045 91.1265 29.1316 91.2663C29.3645 91.406 29.6323 91.4817 29.9468 91.4817C30.0981 91.4817 30.2495 91.4584 30.4067 91.4118C30.5639 91.3652 30.7037 91.2896 30.8259 91.1964C30.9482 91.0974 31.053 90.981 31.1345 90.8354C31.216 90.6957 31.2568 90.5268 31.2568 90.3405C31.2568 90.1367 31.216 89.9621 31.1345 89.8281C31.053 89.6942 30.9482 89.5778 30.8143 89.4846C30.6804 89.3914 30.529 89.3157 30.3543 89.2575C30.1797 89.1993 29.9992 89.1353 29.8128 89.0712C29.6207 89.013 29.4285 88.9431 29.2364 88.8616C29.0443 88.7859 28.8754 88.6811 28.7299 88.5589C28.5785 88.4308 28.4562 88.2794 28.3689 88.093C28.2757 87.9067 28.2291 87.6855 28.2291 87.4177C28.2291 87.1324 28.2874 86.8878 28.398 86.684C28.5145 86.4802 28.66 86.3114 28.8463 86.1775C29.0326 86.0436 29.2306 85.9446 29.4577 85.8864C29.6789 85.8223 29.9002 85.7932 30.1156 85.7932C30.5173 85.7932 30.855 85.8631 31.1403 86.0028C31.4256 86.1425 31.6353 86.3114 31.7808 86.5094L31.3092 86.8936Z"
    fill="#C2C2C2" />
  <path d="M35.4256 91.3129H38.1796V91.8485H34.8259V85.9446H35.4256V91.3129Z" fill="#C2C2C2" />
  <path
    d="M46.331 88.8966C46.331 89.3449 46.2553 89.7583 46.0981 90.1368C45.9409 90.5152 45.7255 90.8413 45.4519 91.1149C45.1782 91.3886 44.8521 91.6041 44.4737 91.7613C44.1011 91.9185 43.6935 91.9941 43.251 91.9941C42.8143 91.9941 42.4067 91.9185 42.0283 91.7613C41.6556 91.6041 41.3296 91.3886 41.0501 91.1149C40.7765 90.8413 40.561 90.5152 40.4038 90.1368C40.2466 89.7583 40.1709 89.3449 40.1709 88.8966C40.1709 88.4483 40.2466 88.0349 40.4038 87.6564C40.561 87.278 40.7765 86.9519 41.0501 86.6783C41.3238 86.4046 41.6498 86.1892 42.0283 86.032C42.4009 85.8748 42.8085 85.7991 43.251 85.7991C43.6876 85.7991 44.0952 85.8748 44.4737 86.032C44.8463 86.1892 45.1724 86.4046 45.4519 86.6783C45.7255 86.9519 45.9409 87.278 46.0981 87.6564C46.2553 88.0291 46.331 88.4425 46.331 88.8966ZM45.6964 88.8966C45.6964 88.5531 45.6382 88.227 45.5275 87.9126C45.4169 87.604 45.2539 87.3304 45.0443 87.0917C44.8347 86.8529 44.5785 86.6666 44.2757 86.5269C43.9729 86.3871 43.6294 86.3173 43.2568 86.3173C42.8783 86.3173 42.5406 86.3871 42.2379 86.5269C41.9351 86.6666 41.6789 86.8529 41.4693 87.0917C41.2597 87.3304 41.0967 87.604 40.9861 87.9126C40.8754 88.2212 40.8172 88.5531 40.8172 88.8966C40.8172 89.2401 40.8754 89.5662 40.9861 89.8806C41.0967 90.1892 41.2597 90.4629 41.4693 90.6957C41.6789 90.9286 41.9351 91.115 42.2379 91.2547C42.5406 91.3945 42.8842 91.4643 43.2568 91.4643C43.6352 91.4643 43.9729 91.3945 44.2757 91.2547C44.5785 91.115 44.8347 90.9286 45.0443 90.6957C45.2539 90.4629 45.4169 90.1892 45.5275 89.8806C45.644 89.572 45.6964 89.2401 45.6964 88.8966Z"
    fill="#C2C2C2" />
  <path
    d="M53.7313 87.0102C53.5275 86.7947 53.283 86.6259 52.9977 86.5036C52.7124 86.3814 52.3863 86.3231 52.0195 86.3231C51.6411 86.3231 51.3034 86.393 51.0006 86.5327C50.6978 86.6725 50.4417 86.8588 50.2321 87.0975C50.0225 87.3362 49.8594 87.6099 49.743 87.9185C49.6265 88.2271 49.5741 88.5589 49.5741 88.9025C49.5741 89.246 49.6324 89.572 49.743 89.8865C49.8594 90.195 50.0166 90.4687 50.2321 90.7016C50.4417 90.9345 50.6978 91.1208 51.0006 91.2605C51.3034 91.4003 51.6469 91.4702 52.0195 91.4702C52.3514 91.4702 52.66 91.4352 52.9395 91.3595C53.219 91.2897 53.4402 91.1965 53.6149 91.0859V89.2926H52.2408V88.7569H54.2146V91.4236C53.8944 91.6215 53.545 91.7613 53.1724 91.8603C52.7998 91.9534 52.4155 92 52.0137 92C51.5712 92 51.1578 91.9243 50.7794 91.7671C50.4009 91.6099 50.0748 91.3945 49.8012 91.1208C49.5275 90.8472 49.3179 90.5211 49.1607 90.1426C49.0094 89.7642 48.9337 89.3508 48.9337 88.9025C48.9337 88.4541 49.0094 88.0407 49.1666 87.6623C49.3238 87.2838 49.5392 86.9578 49.8128 86.6841C50.0865 86.4105 50.4126 86.195 50.791 86.0378C51.1636 85.8806 51.5712 85.8049 52.0137 85.8049C52.4854 85.8049 52.8987 85.8748 53.2481 86.0146C53.5974 86.1543 53.9002 86.3522 54.1506 86.6026L53.7313 87.0102Z"
    fill="#C2C2C2" />
  <path
    d="M57.3762 91.8485H56.7182L59.2685 85.9446H59.8507L62.3835 91.8485H61.7139L61.0618 90.2998H58.0108L57.3762 91.8485ZM58.2437 89.7466H60.8463L59.5479 86.6083L58.2437 89.7466Z"
    fill="#C2C2C2" />
  <path
    d="M69.1083 90.9693H69.1258V85.9387H69.7255V91.8426H68.9744L65.5392 86.7655H65.5218V91.8426H64.922V85.9387H65.6731L69.1083 90.9693Z"
    fill="#C2C2C2" />
</svg>