<svg width="97" height="92" viewBox="0 0 97 92" fill="none" xmlns="http://www.w3.org/2000/svg">
  <path
    d="M63.4135 7.91033C61.6278 7.56572 59.816 7.37775 58.0041 7.37775C54.5893 7.37775 51.1797 7.99388 47.9425 9.22091L47.9268 9.22614L47.8642 9.25224C47.4203 9.41932 46.987 9.60207 46.5536 9.79527L46.4335 9.84748H46.4283C45.9897 10.0459 45.5563 10.2547 45.1281 10.474H45.1229L45.008 10.5367C44.5903 10.7508 44.1778 10.9805 43.7653 11.2155C43.7027 11.2573 43.64 11.2938 43.5826 11.3304C43.2171 11.5444 42.862 11.769 42.5122 11.9987C42.4757 12.0248 42.413 12.0561 42.3347 12.1083C40.8048 13.1317 39.3428 14.317 37.9957 15.6694V15.6746C37.9905 15.6746 37.9905 15.6746 37.9905 15.6746C37.98 15.685 37.9644 15.7007 37.9539 15.7163C38.0061 15.591 38.0531 15.4657 38.1053 15.3456L38.1106 15.3404L38.1367 15.2777C38.3769 14.7399 38.6379 14.2126 38.9199 13.6904C40.5698 10.6046 42.8098 7.88945 45.5041 5.69646L45.5093 5.69123L45.5145 5.68602C45.6607 5.56593 45.8226 5.44583 45.9844 5.32052C46.1045 5.22653 46.2142 5.13777 46.3134 5.05945C46.4022 4.99679 46.5014 4.92891 46.6058 4.85059C46.7885 4.72006 46.9661 4.58952 47.1384 4.46942C47.4047 4.28145 47.6762 4.10393 47.9477 3.93162L47.9581 3.92639L47.9895 3.90552C48.2766 3.72277 48.5638 3.54524 48.8562 3.37815L48.8614 3.37293C51.9316 1.58198 55.3934 0.412397 59.0902 0.00512695C61.0273 2.42264 62.4632 5.10121 63.4135 7.91033Z"
    fill="#C2C2C2" />
  <path
    d="M66.8858 37.5158C66.9223 36.9049 66.9432 36.294 66.9432 35.6831C66.9432 32.2735 66.3271 28.8587 65.1001 25.6267L65.0949 25.611L65.074 25.5588C64.9173 25.1619 64.7607 24.7651 64.5884 24.3787C64.5048 24.1803 64.4108 23.9924 64.3325 23.8148C64.2594 23.6582 64.1863 23.4859 64.0976 23.3031L64.0923 23.2927L64.0349 23.1778C63.9984 23.1047 63.9618 23.0316 63.9252 22.9637L63.9044 22.9167C63.9044 22.9115 63.8991 22.9115 63.8991 22.9063C63.8939 22.9011 63.8939 22.8958 63.8939 22.8906L63.8783 22.8645L63.8678 22.8436L63.8574 22.8227L63.8469 22.8019C63.7999 22.7079 63.7529 22.6139 63.7007 22.5199L63.6955 22.5147L63.6903 22.499L63.6851 22.4938C63.612 22.3528 63.5389 22.2118 63.4553 22.0709L63.4501 22.0604L63.4449 22.05L63.4292 22.0187L63.3822 21.9456V21.9403C63.2882 21.768 63.189 21.5905 63.0846 21.4077L63.0794 21.4025L63.0742 21.3921L63.0689 21.3816L63.0637 21.3712C62.9332 21.1519 62.7974 20.9222 62.646 20.6872L62.6408 20.6768C62.505 20.4627 62.3641 20.2434 62.2231 20.0241L62.2074 20.0032L62.1917 19.9823C62.1291 19.8883 62.0508 19.7682 61.962 19.6377L61.915 19.5698L61.9098 19.5594L61.8941 19.5437L61.8889 19.5385L61.8732 19.5124L61.8628 19.5019L61.8576 19.4915L61.7845 19.3923L61.7793 19.3818C61.6644 19.22 61.5495 19.0581 61.4242 18.891V18.8858H61.419L61.4033 18.8597C61.3981 18.8597 61.3981 18.8597 61.3981 18.8545C61.2937 18.7083 61.184 18.5673 61.0691 18.4211C60.996 18.3271 60.9386 18.254 60.9021 18.207C60.7976 18.066 60.688 17.9303 60.5731 17.7945L60.5679 17.7893L60.5157 17.7267C60.3904 17.57 60.2546 17.4081 60.1084 17.2411L60.1032 17.2358V17.2306C59.6437 16.698 59.1581 16.1811 58.6516 15.6694C58.6412 15.6642 58.636 15.6538 58.6255 15.6433C58.7613 15.7007 58.9075 15.7582 59.0432 15.8209C64.0453 18.0661 68.2068 21.8359 70.948 26.5404L70.9585 26.5561C72.7442 29.621 73.9138 33.0828 74.3211 36.7691C71.9088 38.7063 69.2354 40.1369 66.4263 41.0872C66.442 40.9933 66.4576 40.9045 66.4681 40.8262C66.5046 40.633 66.5412 40.4398 66.5777 40.2361V40.2205L66.583 40.1996C66.6769 39.6096 66.7552 39.0143 66.8127 38.4191C66.8283 38.2468 66.8388 38.0849 66.8492 37.9283C66.8597 37.7978 66.8753 37.662 66.8858 37.5158Z"
    fill="#C2C2C2" />
  <path
    d="M58.6881 36.2939C58.662 36.3514 58.6411 36.4088 58.615 36.461C58.5732 36.5655 58.5367 36.6542 58.5054 36.7273C56.2601 41.7242 52.4851 45.8909 47.7858 48.6269C44.7156 50.4179 41.2538 51.5874 37.5571 51.9999C35.6199 49.5824 34.184 46.9038 33.2285 44.0947C35.0142 44.4393 36.8208 44.6221 38.6327 44.6221C42.0475 44.6221 45.4623 44.0112 48.6995 42.7842C49.1173 42.6223 49.5298 42.45 49.937 42.2724L50.0258 42.2359H50.0362L50.0467 42.2307C50.266 42.1315 50.48 42.0375 50.6785 41.9435L50.6941 41.9331L50.7098 41.9278L50.7359 41.9122C50.8821 41.8443 51.0231 41.7764 51.164 41.7085L51.1745 41.7033L51.1902 41.6929L51.2006 41.6877L51.2371 41.6668L51.3103 41.6302C51.3103 41.6302 51.3102 41.6302 51.3155 41.6302L51.3729 41.6041C51.4721 41.5571 51.5609 41.5049 51.6444 41.4631L51.6862 41.4422L51.7071 41.4318L51.7123 41.4266L51.7436 41.4109L51.7802 41.39H51.7906L51.7958 41.3848H51.8011V41.3796C51.9055 41.3274 51.9995 41.2752 52.0935 41.223C52.1405 41.2021 52.1979 41.1707 52.2658 41.129H52.271L52.2814 41.1237L52.318 41.1029H52.3232L52.3284 41.0976C52.4851 41.0089 52.6469 40.9149 52.814 40.8209L52.8871 40.7791L52.8923 40.7739C52.9132 40.7635 52.9863 40.7217 53.0646 40.6695C53.19 40.6016 53.31 40.5285 53.4249 40.4606C53.4249 40.4606 53.4249 40.4606 53.4249 40.4554L53.5085 40.4084L53.5189 40.398H53.5241C53.5659 40.3719 53.6442 40.3249 53.733 40.2674C53.9157 40.1526 54.0985 40.0325 54.2812 39.9124L54.3021 39.8967L54.323 39.8863L54.3334 39.8811C54.5005 39.7662 54.6781 39.6461 54.8608 39.5103L54.8712 39.5051L54.8765 39.4999L54.8869 39.4947C55.0383 39.3902 55.1845 39.2858 55.3203 39.1814H55.3255C55.3307 39.1762 55.3359 39.1762 55.3412 39.1709C55.5918 38.9882 55.832 38.8054 56.0722 38.6175L56.1192 38.5809L56.1348 38.5653C56.2601 38.4661 56.3907 38.3616 56.516 38.2624L56.5317 38.2467H56.5369L56.5891 38.205L56.5943 38.1998L56.6048 38.1893L56.6152 38.1789C56.7823 38.0483 56.9389 37.9126 57.0851 37.7873V37.782C57.6229 37.3226 58.1451 36.8422 58.6516 36.3305L58.6881 36.2939Z"
    fill="#C2C2C2" />
  <path
    d="M38.0218 36.362C37.9174 36.3202 37.8077 36.2785 37.7033 36.2315L37.6981 36.2262L37.5989 36.1845C33.3539 34.2787 29.7198 31.2711 27.036 27.5274C26.5608 26.859 26.1066 26.175 25.6941 25.4649L25.6784 25.4388C23.9031 22.3791 22.7335 18.9225 22.3263 15.2362C24.7438 13.299 27.4223 11.8631 30.2315 10.9128C29.8816 12.6986 29.6989 14.5104 29.6989 16.3222C29.6989 19.737 30.315 23.1466 31.542 26.3839C32.2783 28.3262 33.239 30.2112 34.4295 31.9865V31.9917C35.4529 33.5268 36.6381 34.9783 37.9905 36.3359C38.0009 36.3463 38.0114 36.3568 38.0218 36.362Z"
    fill="#C2C2C2" />
  <path
    d="M46.1985 2.53239C41.8491 5.4616 38.3612 9.57084 36.1891 14.4059C35.3328 16.3065 34.6853 18.3167 34.2624 20.4157C33.9073 22.2067 33.7142 24.0602 33.7142 25.9608V26.0548C33.6567 25.9086 33.5888 25.7677 33.5366 25.6267C32.3984 22.6348 31.8344 19.4811 31.8344 16.3221C31.8344 14.0665 32.1216 11.816 32.7012 9.62305C33.6045 6.18214 35.2284 2.90832 37.5571 0C40.6325 0.344613 43.5408 1.21659 46.1985 2.53239Z"
    fill="#757575" />
  <path
    d="M74.3262 15.2361C73.9816 18.3115 73.1097 21.2198 71.7939 23.8827C68.8542 19.5333 64.7554 16.0454 59.9204 13.8733C59.0223 13.4713 58.0981 13.1058 57.1478 12.7977H57.1426C56.9964 12.7455 56.8554 12.7037 56.7144 12.6619H56.7092L56.704 12.6567C56.5526 12.6097 56.4012 12.5627 56.2445 12.521L56.2341 12.5157H56.2236L56.1819 12.5053C55.9417 12.4322 55.7067 12.3695 55.4717 12.3069C55.2368 12.2442 54.9809 12.1816 54.7199 12.1241H54.7146L54.6885 12.1137C54.4379 12.0563 54.1821 12.004 53.9262 11.9466H53.8949C53.8949 11.9466 53.8949 11.9414 53.8897 11.9414H53.8688V11.9362C53.7591 11.9205 53.6234 11.8892 53.4615 11.8578L53.3832 11.8422H53.378L53.3519 11.837H53.3362L53.3101 11.8317H53.2996L53.284 11.8265C53.2318 11.8213 53.1848 11.8108 53.1743 11.8108L53.1587 11.8056H53.1482C52.9603 11.7691 52.7618 11.7377 52.553 11.7116L52.5164 11.7064C52.3389 11.6751 52.1562 11.649 51.9786 11.6281C51.8585 11.6124 51.7593 11.602 51.6967 11.5968C51.5296 11.5707 51.3573 11.555 51.1798 11.5393L51.1745 11.5341L51.0962 11.5289H51.091C50.8926 11.508 50.6889 11.4871 50.4644 11.4767L50.4487 11.4715C49.7491 11.4192 49.039 11.3931 48.3236 11.3931H48.2766C48.4176 11.3357 48.5534 11.273 48.6944 11.2156C51.6862 10.0826 54.8504 9.51343 58.0094 9.51343C60.2598 9.51343 62.5102 9.80583 64.7032 10.3802C68.1389 11.2835 71.4179 12.9126 74.3262 15.2361Z"
    fill="#757575" />
  <path
    d="M64.8076 35.6936C64.8076 37.944 64.5204 40.1944 63.9408 42.3822C63.0375 45.8179 61.4137 49.0917 59.0901 52C56.02 51.6554 53.1116 50.7834 50.4487 49.4729C54.7929 46.5332 58.2808 42.4292 60.4529 37.5994V37.5942C60.6513 37.1608 60.8341 36.717 61.0116 36.2679L61.0168 36.2575C61.1056 36.033 61.1839 35.8137 61.2622 35.6048V35.5996L61.2675 35.5839V35.5787L61.2831 35.5474C61.3353 35.3907 61.3876 35.2445 61.4345 35.0983L61.4398 35.0931L61.445 35.0722L61.4502 35.0618L61.4659 35.0096C61.5129 34.8686 61.5546 34.7381 61.5912 34.618L61.6173 34.5396L61.6225 34.5344V34.524C61.6852 34.336 61.7478 34.1376 61.8053 33.9235L61.8105 33.9131V33.8974C61.8836 33.6677 61.941 33.4432 61.9985 33.2186C62.0089 33.1873 62.0298 33.1142 62.0507 33.0202C62.0872 32.8792 62.1238 32.7383 62.1551 32.6129V32.6077C62.1551 32.6077 62.1551 32.6077 62.1551 32.6025L62.176 32.5137L62.1812 32.5085V32.5033C62.1916 32.4563 62.2125 32.3728 62.2334 32.2631C62.2804 32.0543 62.3274 31.8402 62.3744 31.6261L62.3796 31.6V31.5791L62.3848 31.5635C62.4214 31.3598 62.4684 31.1405 62.5049 30.9108C62.5049 30.9108 62.5049 30.9108 62.5049 30.9056C62.5415 30.7176 62.5676 30.5296 62.5937 30.3573C62.5937 30.3573 62.5937 30.3573 62.5937 30.3521C62.6459 30.044 62.6825 29.7464 62.719 29.4436L62.7295 29.3809V29.36C62.7503 29.1982 62.766 29.0415 62.7869 28.8744V28.8588L62.7921 28.7804L62.7973 28.7648C62.8182 28.5507 62.8339 28.3366 62.8495 28.1382C62.9018 27.4333 62.9279 26.7232 62.9279 26.0027V25.9504C62.9853 26.0966 63.048 26.2376 63.1054 26.3838C64.2384 29.3757 64.8076 32.5346 64.8076 35.6936Z"
    fill="#757575" />
  <path
    d="M48.3707 40.6122C48.2297 40.6696 48.0835 40.7322 47.9425 40.7897C44.9506 41.9227 41.7917 42.4919 38.6327 42.4919C36.3823 42.4919 34.1319 42.1995 31.9389 41.6251C28.5032 40.7166 25.2241 39.0927 22.321 36.7692C22.6604 33.6938 23.5376 30.7803 24.8534 28.1226C27.7826 32.472 31.8919 35.9599 36.7217 38.132C38.6223 38.9935 40.6325 39.641 42.7315 40.0587C44.5381 40.4242 46.4074 40.6174 48.3237 40.6174C48.3393 40.6174 48.355 40.6122 48.3707 40.6122Z"
    fill="#757575" />
  <path
    d="M9.61265 70.8886C9.2341 70.382 8.7682 70.0034 8.21493 69.7472C7.66167 69.4968 7.0851 69.3686 6.47943 69.3686C5.78639 69.3686 5.14576 69.5084 4.56338 69.7938C3.981 70.0791 3.47434 70.4577 3.0492 70.9352C2.62406 71.4128 2.29209 71.966 2.05914 72.595C1.82036 73.224 1.70388 73.8821 1.70388 74.5693C1.70388 75.3031 1.82036 75.9845 2.05914 76.6135C2.29209 77.2425 2.62405 77.7899 3.04337 78.2558C3.46269 78.7217 3.96353 79.0886 4.54591 79.3623C5.12829 79.636 5.77475 79.77 6.48526 79.77C7.254 79.77 7.93538 79.6186 8.53524 79.3216C9.13509 79.0187 9.65924 78.5877 10.1077 78.0228L11.22 78.9605C10.6551 79.7176 9.97373 80.2708 9.17586 80.6261C8.378 80.9813 7.48112 81.1561 6.47943 81.1561C5.58256 81.1561 4.74393 80.993 3.96936 80.661C3.18896 80.3291 2.51339 79.8748 1.94266 79.2924C1.37192 78.71 0.923488 78.017 0.597354 77.2133C0.271219 76.4096 0.108154 75.5361 0.108154 74.581C0.108154 73.6608 0.265408 72.7989 0.574071 72.001C0.888558 71.1973 1.32533 70.5043 1.89024 69.9161C2.45516 69.3279 3.13073 68.8619 3.9053 68.5183C4.6857 68.1747 5.53597 68.0059 6.46778 68.0059C7.31806 68.0059 8.1334 68.1573 8.91961 68.4659C9.70583 68.7746 10.3581 69.2755 10.8939 69.9685L9.61265 70.8886Z"
    fill="#C2C2C2" />
  <path
    d="M20.4391 81.1502C19.484 81.1502 18.6104 80.9871 17.8126 80.6552C17.0147 80.3232 16.3275 79.869 15.7451 79.2866C15.1627 78.7042 14.7085 78.0053 14.3823 77.2016C14.0562 76.3921 13.8931 75.5186 13.8931 74.5751C13.8931 73.6316 14.0562 72.7581 14.3823 71.9486C14.7085 71.139 15.1627 70.446 15.7451 69.8636C16.3275 69.2812 17.0205 68.8212 17.8126 68.495C18.6104 68.1631 19.484 68 20.4391 68C21.3942 68 22.2678 68.1631 23.0657 68.495C23.8635 68.827 24.5507 69.2812 25.1331 69.8636C25.7155 70.446 26.1698 71.1449 26.4959 71.9486C26.822 72.7581 26.9851 73.6316 26.9851 74.5751C26.9851 75.5186 26.822 76.3921 26.4959 77.2016C26.1698 78.0112 25.7155 78.7042 25.1331 79.2866C24.5507 79.869 23.8577 80.3291 23.0657 80.6552C22.2678 80.9813 21.3942 81.1502 20.4391 81.1502ZM20.4391 79.77C21.1729 79.77 21.8368 79.636 22.4483 79.3623C23.054 79.0886 23.5782 78.7217 24.0149 78.2499C24.4517 77.7782 24.7895 77.225 25.0341 76.596C25.2729 75.967 25.3952 75.2914 25.3952 74.5693C25.3952 73.8529 25.2729 73.1774 25.0341 72.5426C24.7895 71.9136 24.4517 71.3603 24.0149 70.8886C23.5782 70.4169 23.054 70.0442 22.4483 69.7763C21.8427 69.5025 21.1729 69.3686 20.4391 69.3686C19.7053 69.3686 19.0414 69.5025 18.4299 69.7763C17.8242 70.05 17.3001 70.4169 16.8633 70.8886C16.4265 71.3603 16.0887 71.9136 15.8441 72.5426C15.5995 73.1716 15.483 73.8471 15.483 74.5693C15.483 75.2856 15.6053 75.9612 15.8441 76.596C16.0829 77.225 16.4265 77.7782 16.8633 78.2499C17.3001 78.7217 17.8184 79.0944 18.4299 79.3623C19.0356 79.636 19.7053 79.77 20.4391 79.77Z"
    fill="#C2C2C2" />
  <path
    d="M30.6949 68.3086H32.908L37.1535 78.1218H37.1885L41.469 68.3086H43.6296V80.8298H42.1446V70.3236H42.1096L37.6194 80.8298H36.7168L32.2266 70.3236H32.1916V80.8298H30.7066V68.3086H30.6949Z"
    fill="#C2C2C2" />
  <path
    d="M48.0616 68.3086H51.7772C52.3538 68.3086 52.907 68.3668 53.4312 68.4775C53.9553 68.5881 54.4212 68.7803 54.8289 69.0424C55.2366 69.3103 55.5627 69.6597 55.8015 70.1023C56.0403 70.5449 56.1626 71.0924 56.1626 71.7388C56.1626 72.4202 56.0345 72.991 55.7724 73.4394C55.5103 73.8878 55.1783 74.2431 54.7707 74.4993C54.363 74.7614 53.9204 74.9419 53.437 75.0468C52.9536 75.1516 52.4936 75.204 52.0568 75.204H49.5467V80.8298H48.0616V68.3086ZM49.5467 73.8238H52.0568C52.8022 73.8238 53.4021 73.6549 53.868 73.3171C54.3339 72.9793 54.5668 72.461 54.5668 71.7505C54.5668 71.04 54.3339 70.5217 53.868 70.1839C53.4021 69.8461 52.7964 69.683 52.0568 69.683H49.5467V73.8238Z"
    fill="#C2C2C2" />
  <path
    d="M62.6327 68.3086H64.0304L69.3534 80.8298H67.6179L66.3425 77.7548H60.0819L58.789 80.8298H57.1059L62.6327 68.3086ZM63.3083 70.2188H63.2733L60.6759 76.3746H65.7892L63.3083 70.2188Z"
    fill="#C2C2C2" />
  <path
    d="M72.347 68.3086H74.2223L81.4729 78.7099H81.5079V68.3086H82.9929V80.8298H81.1177L73.867 70.4285H73.8321V80.8298H72.347V68.3086Z"
    fill="#C2C2C2" />
  <path
    d="M90.3834 75.437L85.7126 68.3086H87.6054L91.123 73.9694L94.7512 68.3086H96.5392L91.8684 75.437V80.8298H90.3834V75.437Z"
    fill="#C2C2C2" />
  <path
    d="M30.7299 86.8925C30.6017 86.7119 30.4387 86.5722 30.2348 86.4615C30.0368 86.3508 29.7922 86.2984 29.5069 86.2984C29.3613 86.2984 29.2157 86.3217 29.0642 86.3625C28.9128 86.4091 28.7789 86.4731 28.6566 86.5663C28.5343 86.6595 28.4353 86.776 28.3596 86.9099C28.2839 87.0497 28.2489 87.2128 28.2489 87.405C28.2489 87.5971 28.2839 87.7486 28.3596 87.8709C28.4295 87.9932 28.5285 88.098 28.6449 88.1854C28.7614 88.2727 28.9012 88.3426 29.0526 88.4008C29.204 88.4591 29.3671 88.5115 29.5302 88.5697C29.734 88.6338 29.9437 88.7095 30.1475 88.7852C30.3571 88.8609 30.5435 88.9657 30.7066 89.088C30.8755 89.2103 31.0094 89.3734 31.1142 89.5656C31.2191 89.7578 31.2715 90.0024 31.2715 90.2936C31.2715 90.5906 31.2132 90.841 31.1026 91.0565C30.9919 91.272 30.8463 91.4467 30.6658 91.5865C30.4853 91.7262 30.2814 91.8311 30.0485 91.8951C29.8155 91.9592 29.5826 91.9941 29.3496 91.9941C29.1691 91.9941 28.9944 91.9767 28.8138 91.9417C28.6333 91.9068 28.4644 91.8485 28.3072 91.7786C28.1441 91.7088 27.9985 91.6156 27.8587 91.5049C27.7189 91.3943 27.5967 91.2662 27.4918 91.1206L28.0101 90.7362C28.1383 90.9458 28.3188 91.1264 28.5459 91.2662C28.7789 91.4059 29.0468 91.4816 29.3613 91.4816C29.5127 91.4816 29.6641 91.4583 29.8214 91.4118C29.9786 91.3652 30.1184 91.2894 30.2407 91.1963C30.363 91.0973 30.4678 90.9808 30.5493 90.8352C30.6309 90.6954 30.6716 90.5265 30.6716 90.3402C30.6716 90.1363 30.6309 89.9616 30.5493 89.8277C30.4678 89.6937 30.363 89.5772 30.229 89.4841C30.0951 89.3909 29.9436 89.3152 29.7689 89.2569C29.5942 89.1987 29.4137 89.1346 29.2273 89.0706C29.0351 89.0123 28.8429 88.9425 28.6508 88.8609C28.4644 88.7852 28.2897 88.6804 28.1441 88.5581C27.9927 88.4299 27.8704 88.2785 27.783 88.0922C27.6898 87.9058 27.6432 87.6845 27.6432 87.4166C27.6432 87.1312 27.7015 86.8866 27.8121 86.6828C27.9286 86.479 28.0742 86.3101 28.2606 86.1761C28.4469 86.0422 28.6449 85.9432 28.8721 85.8849C29.0934 85.8209 29.3147 85.7917 29.5302 85.7917C29.932 85.7917 30.2698 85.8616 30.5551 86.0072C30.8405 86.147 31.0502 86.3159 31.1958 86.5139L30.7299 86.8925Z"
    fill="url(#paint0_linear_1_1732)" />
  <path d="M34.8417 91.3185H37.5963V91.8543H34.2418V85.949H34.8417V91.3185Z" fill="url(#paint1_linear_1_1732)" />
  <path
    d="M45.7555 88.8959C45.7555 89.3443 45.6798 89.7578 45.5225 90.1364C45.3653 90.5149 45.1498 90.841 44.8761 91.1148C44.6024 91.3885 44.2762 91.604 43.8977 91.7612C43.5249 91.9184 43.1173 91.9942 42.6747 91.9942C42.2379 91.9942 41.8302 91.9184 41.4517 91.7612C41.0789 91.604 40.7528 91.3885 40.4733 91.1148C40.1995 90.841 39.9841 90.5149 39.8268 90.1364C39.6696 89.7578 39.5939 89.3443 39.5939 88.8959C39.5939 88.4475 39.6696 88.034 39.8268 87.6554C39.9841 87.2769 40.1995 86.9507 40.4733 86.677C40.747 86.4033 41.0731 86.1878 41.4517 86.0306C41.8244 85.8733 42.2321 85.7976 42.6747 85.7976C43.1115 85.7976 43.5191 85.8733 43.8977 86.0306C44.2704 86.1878 44.5965 86.4033 44.8761 86.677C45.1498 86.9507 45.3653 87.2769 45.5225 87.6554C45.6739 88.034 45.7555 88.4475 45.7555 88.8959ZM45.1207 88.9017C45.1207 88.5581 45.0624 88.232 44.9518 87.9175C44.8411 87.6088 44.6781 87.3351 44.4684 87.0963C44.2588 86.8634 44.0025 86.6712 43.6997 86.5314C43.3968 86.3916 43.0532 86.3217 42.6805 86.3217C42.3019 86.3217 41.9642 86.3916 41.6613 86.5314C41.3585 86.6712 41.1022 86.8576 40.8926 87.0963C40.6829 87.3351 40.5199 87.6088 40.4092 87.9175C40.2986 88.2262 40.2403 88.5581 40.2403 88.9017C40.2403 89.2453 40.2986 89.5714 40.4092 89.8859C40.5199 90.1946 40.6829 90.4683 40.8926 90.7013C41.1022 90.9342 41.3585 91.1206 41.6613 91.2604C41.9642 91.4001 42.3078 91.47 42.6805 91.47C43.059 91.47 43.3968 91.4001 43.6997 91.2604C44.0025 91.1206 44.2588 90.9342 44.4684 90.7013C44.6781 90.4683 44.8411 90.1946 44.9518 89.8859C45.0624 89.5714 45.1207 89.2453 45.1207 88.9017Z"
    fill="url(#paint2_linear_1_1732)" />
  <path
    d="M53.1518 87.009C52.9479 86.7935 52.7033 86.6246 52.418 86.5023C52.1326 86.38 51.8065 86.3218 51.4396 86.3218C51.061 86.3218 50.7232 86.3917 50.4204 86.5314C50.1176 86.6712 49.8613 86.8576 49.6517 87.0964C49.442 87.3351 49.2789 87.6089 49.1625 87.9175C49.046 88.2262 48.9936 88.5581 48.9936 88.9017C48.9936 89.2453 49.0518 89.5715 49.1625 89.886C49.2789 90.1946 49.4362 90.4684 49.6517 90.7013C49.8613 90.9343 50.1176 91.1206 50.4204 91.2604C50.7232 91.4002 51.0669 91.47 51.4396 91.47C51.7715 91.47 52.0802 91.4351 52.3597 91.3594C52.6393 91.2895 52.8606 91.1963 53.0353 91.0857V89.2919H51.6609V88.7561H53.6352V91.4235C53.3148 91.6156 52.9654 91.7612 52.5927 91.8602C52.22 91.9534 51.8356 92 51.4337 92C50.9911 92 50.5776 91.9243 50.1991 91.7671C49.8205 91.6098 49.4944 91.3943 49.2207 91.1206C48.947 90.8469 48.7373 90.5208 48.5801 90.1422C48.4287 89.7637 48.3529 89.3502 48.3529 88.9017C48.3529 88.4533 48.4286 88.0398 48.5859 87.6613C48.7431 87.2827 48.9586 86.9566 49.2323 86.6829C49.5061 86.4091 49.8322 86.1937 50.2107 86.0364C50.5835 85.8792 50.9911 85.8035 51.4337 85.8035C51.9055 85.8035 52.319 85.8733 52.6684 86.0131C53.0178 86.1529 53.3207 86.3509 53.5711 86.6013L53.1518 87.009Z"
    fill="url(#paint3_linear_1_1732)" />
  <path
    d="M56.7974 91.8485H56.1393L58.6902 85.9431H59.2725L61.8059 91.8485H61.1362L60.4839 90.2993H57.4322L56.7974 91.8485ZM57.6652 89.7461H60.2684L58.9697 86.607L57.6652 89.7461Z"
    fill="url(#paint4_linear_1_1732)" />
  <path
    d="M68.5383 90.9749H68.5558V85.9431H69.1556V91.8485H68.4044L64.9683 86.7701H64.9508V91.8485H64.351V85.9431H65.1023L68.5383 90.9749Z"
    fill="url(#paint5_linear_1_1732)" />
  <defs>
    <linearGradient id="paint0_linear_1_1732" x1="27.5015" y1="88.8965" x2="31.2805" y2="88.8965"
      gradientUnits="userSpaceOnUse">
      <stop stop-color="#93D8DE" />
      <stop offset="1" stop-color="#65C8D0" />
    </linearGradient>
    <linearGradient id="paint1_linear_1_1732" x1="34.2422" y1="88.8965" x2="37.5956" y2="88.8965"
      gradientUnits="userSpaceOnUse">
      <stop stop-color="#93D8DE" />
      <stop offset="1" stop-color="#65C8D0" />
    </linearGradient>
    <linearGradient id="paint2_linear_1_1732" x1="39.5975" y1="88.8965" x2="45.754" y2="88.8965"
      gradientUnits="userSpaceOnUse">
      <stop stop-color="#93D8DE" />
      <stop offset="1" stop-color="#65C8D0" />
    </linearGradient>
    <linearGradient id="paint3_linear_1_1732" x1="48.3567" y1="88.8966" x2="53.6374" y2="88.8966"
      gradientUnits="userSpaceOnUse">
      <stop stop-color="#93D8DE" />
      <stop offset="1" stop-color="#65C8D0" />
    </linearGradient>
    <linearGradient id="paint4_linear_1_1732" x1="56.1397" y1="88.8964" x2="61.8124" y2="88.8964"
      gradientUnits="userSpaceOnUse">
      <stop stop-color="#93D8DE" />
      <stop offset="1" stop-color="#65C8D0" />
    </linearGradient>
    <linearGradient id="paint5_linear_1_1732" x1="64.3484" y1="88.8964" x2="69.1534" y2="88.8964"
      gradientUnits="userSpaceOnUse">
      <stop stop-color="#93D8DE" />
      <stop offset="1" stop-color="#65C8D0" />
    </linearGradient>
  </defs>
</svg>