<svg xmlns="http://www.w3.org/2000/svg" fill="none" viewBox="11.03 5.9 134 85.13">
  <rect x="11.5322" y="47.5322" width="133" height="43" rx="21.5" fill="white" />
  <path
    d="M36.4402 74.0322V62.3682H44.6162V63.8722H37.8002L38.1842 63.4882V67.7602L37.8002 67.3762H43.8322V68.7842H37.8002L38.1842 68.4002V72.8962L37.8002 72.5122H44.6322V74.0322H36.4402ZM49.6342 74.1762C49.1222 74.1762 48.6529 74.0802 48.2262 73.8882C47.8102 73.6962 47.4476 73.4189 47.1382 73.0562C46.8289 72.6829 46.5889 72.2242 46.4182 71.6802C46.2582 71.1362 46.1782 70.5069 46.1782 69.7922C46.1782 68.8536 46.3222 68.0589 46.6102 67.4082C46.9089 66.7576 47.3142 66.2669 47.8262 65.9362C48.3489 65.5949 48.9516 65.4242 49.6342 65.4242C50.1036 65.4242 50.5302 65.4989 50.9142 65.6482C51.3089 65.7976 51.6396 66.0109 51.9062 66.2882C52.1836 66.5549 52.3862 66.8696 52.5142 67.2322H52.6102L52.6742 65.5682H54.2582V74.0322H52.6102V72.3522H52.5142C52.3116 72.8962 51.9596 73.3389 51.4582 73.6802C50.9569 74.0109 50.3489 74.1762 49.6342 74.1762ZM50.2102 72.8162C50.7329 72.8162 51.1702 72.6936 51.5222 72.4482C51.8742 72.2029 52.1409 71.8882 52.3222 71.5042C52.5036 71.1202 52.5942 70.7096 52.5942 70.2722V69.3122C52.5942 68.8749 52.5036 68.4642 52.3222 68.0802C52.1409 67.6962 51.8742 67.3816 51.5222 67.1362C51.1702 66.8909 50.7329 66.7682 50.2102 66.7682C49.7409 66.7682 49.3302 66.8856 48.9782 67.1202C48.6262 67.3442 48.3542 67.6802 48.1622 68.1282C47.9702 68.5656 47.8742 69.1202 47.8742 69.7922C47.8742 70.4536 47.9702 71.0082 48.1622 71.4562C48.3542 71.9042 48.6262 72.2456 48.9782 72.4802C49.3302 72.7042 49.7409 72.8162 50.2102 72.8162ZM60.0387 74.1922C58.8761 74.1922 57.9801 73.9362 57.3507 73.4242C56.7321 72.9016 56.4227 72.2189 56.4227 71.3762H58.0547C58.0547 71.9522 58.2467 72.3736 58.6307 72.6402C59.0147 72.8962 59.5001 73.0242 60.0867 73.0242C60.6947 73.0242 61.1534 72.9176 61.4627 72.7042C61.7827 72.4802 61.9427 72.1709 61.9427 71.7762C61.9427 71.4562 61.8734 71.2109 61.7347 71.0402C61.5961 70.8696 61.3774 70.7416 61.0787 70.6562C60.7801 70.5602 60.3907 70.4749 59.9107 70.4002C59.4307 70.3362 58.9934 70.2562 58.5987 70.1602C58.2041 70.0536 57.8574 69.9096 57.5587 69.7282C57.2707 69.5469 57.0467 69.3122 56.8867 69.0242C56.7374 68.7362 56.6627 68.3789 56.6627 67.9522C56.6627 67.4082 56.8014 66.9496 57.0787 66.5762C57.3667 66.2029 57.7667 65.9149 58.2787 65.7122C58.7907 65.5096 59.3881 65.4082 60.0707 65.4082C60.7747 65.4082 61.3721 65.5149 61.8627 65.7282C62.3641 65.9416 62.7481 66.2456 63.0147 66.6402C63.2921 67.0349 63.4361 67.5096 63.4467 68.0642H61.8307C61.8307 67.7229 61.7561 67.4456 61.6067 67.2322C61.4574 67.0082 61.2494 66.8429 60.9827 66.7362C60.7161 66.6296 60.4014 66.5762 60.0387 66.5762C59.4841 66.5762 59.0574 66.6882 58.7587 66.9122C58.4601 67.1362 58.3107 67.4296 58.3107 67.7922C58.3107 68.0589 58.3854 68.2776 58.5347 68.4482C58.6841 68.6189 58.9134 68.7522 59.2227 68.8482C59.5321 68.9336 59.9214 69.0082 60.3907 69.0722C60.8387 69.1362 61.2547 69.2162 61.6387 69.3122C62.0227 69.4082 62.3641 69.5469 62.6627 69.7282C62.9614 69.8989 63.1961 70.1389 63.3667 70.4482C63.5374 70.7576 63.6227 71.1522 63.6227 71.6322C63.6227 72.4962 63.3027 73.1416 62.6627 73.5682C62.0227 73.9842 61.1481 74.1922 60.0387 74.1922ZM64.9592 76.7042V75.3442H65.8712C66.1166 75.3442 66.3246 75.3069 66.4952 75.2322C66.6766 75.1682 66.8312 75.0616 66.9592 74.9122C67.0872 74.7736 67.1939 74.5922 67.2792 74.3682L67.7912 73.0562V73.7762L64.3192 65.5682H66.1272L68.0632 70.7202L68.4152 71.7282H68.4792L68.8152 70.7202L70.6392 65.5682H72.3832L68.8632 74.7682C68.6819 75.2482 68.4632 75.6269 68.2072 75.9042C67.9619 76.1922 67.6686 76.3949 67.3272 76.5122C66.9859 76.6402 66.5912 76.7042 66.1432 76.7042H64.9592ZM76.6021 74.0322L80.7461 62.3682H83.1941L87.3381 74.0322H85.5141L84.5541 71.3122H79.3861L78.4261 74.0322H76.6021ZM79.8021 69.9522H84.1221L82.8421 66.3522L82.0261 63.9682H81.9301L81.1141 66.3522L79.8021 69.9522ZM88.8386 76.7042V65.5682H90.4226L90.4866 67.2322H90.5826C90.7853 66.6882 91.1373 66.2509 91.6386 65.9202C92.1506 65.5896 92.7586 65.4242 93.4626 65.4242C93.9746 65.4242 94.4386 65.5202 94.8546 65.7122C95.2813 65.9042 95.6493 66.1869 95.9586 66.5602C96.2679 66.9336 96.5026 67.3922 96.6626 67.9362C96.8333 68.4802 96.9186 69.1042 96.9186 69.8082C96.9186 70.7469 96.7746 71.5416 96.4866 72.1922C96.1986 72.8429 95.7933 73.3389 95.2706 73.6802C94.7586 74.0109 94.1559 74.1762 93.4626 74.1762C93.0039 74.1762 92.5773 74.1016 92.1826 73.9522C91.7986 73.8029 91.4679 73.5949 91.1906 73.3282C90.9239 73.0509 90.7213 72.7309 90.5826 72.3682H90.4866V76.7042H88.8386ZM92.8866 72.8162C93.3559 72.8162 93.7666 72.7042 94.1186 72.4802C94.4706 72.2562 94.7426 71.9202 94.9346 71.4722C95.1373 71.0242 95.2386 70.4696 95.2386 69.8082C95.2386 69.1362 95.1373 68.5816 94.9346 68.1442C94.7426 67.6962 94.4706 67.3602 94.1186 67.1362C93.7666 66.9016 93.3559 66.7842 92.8866 66.7842C92.3746 66.7842 91.9373 66.9069 91.5746 67.1522C91.2226 67.3869 90.9559 67.7016 90.7746 68.0962C90.5933 68.4802 90.5026 68.8909 90.5026 69.3282V70.2722C90.5026 70.6029 90.5506 70.9229 90.6466 71.2322C90.7533 71.5309 90.9079 71.8029 91.1106 72.0482C91.3133 72.2829 91.5639 72.4696 91.8626 72.6082C92.1613 72.7469 92.5026 72.8162 92.8866 72.8162ZM98.9867 76.7042V65.5682H100.571L100.635 67.2322H100.731C100.933 66.6882 101.285 66.2509 101.787 65.9202C102.299 65.5896 102.907 65.4242 103.611 65.4242C104.123 65.4242 104.587 65.5202 105.003 65.7122C105.429 65.9042 105.797 66.1869 106.107 66.5602C106.416 66.9336 106.651 67.3922 106.811 67.9362C106.981 68.4802 107.067 69.1042 107.067 69.8082C107.067 70.7469 106.923 71.5416 106.635 72.1922C106.347 72.8429 105.941 73.3389 105.419 73.6802C104.907 74.0109 104.304 74.1762 103.611 74.1762C103.152 74.1762 102.725 74.1016 102.331 73.9522C101.947 73.8029 101.616 73.5949 101.339 73.3282C101.072 73.0509 100.869 72.7309 100.731 72.3682H100.635V76.7042H98.9867ZM103.035 72.8162C103.504 72.8162 103.915 72.7042 104.267 72.4802C104.619 72.2562 104.891 71.9202 105.083 71.4722C105.285 71.0242 105.387 70.4696 105.387 69.8082C105.387 69.1362 105.285 68.5816 105.083 68.1442C104.891 67.6962 104.619 67.3602 104.267 67.1362C103.915 66.9016 103.504 66.7842 103.035 66.7842C102.523 66.7842 102.085 66.9069 101.723 67.1522C101.371 67.3869 101.104 67.7016 100.923 68.0962C100.741 68.4802 100.651 68.8909 100.651 69.3282V70.2722C100.651 70.6029 100.699 70.9229 100.795 71.2322C100.901 71.5309 101.056 71.8029 101.259 72.0482C101.461 72.2829 101.712 72.4696 102.011 72.6082C102.309 72.7469 102.651 72.8162 103.035 72.8162ZM109.135 74.0322V62.3682H110.783V74.0322H109.135ZM112.832 76.7042V75.3442H113.744C113.99 75.3442 114.198 75.3069 114.368 75.2322C114.55 75.1682 114.704 75.0616 114.832 74.9122C114.96 74.7736 115.067 74.5922 115.152 74.3682L115.664 73.0562V73.7762L112.192 65.5682H114L115.936 70.7202L116.288 71.7282H116.352L116.688 70.7202L118.512 65.5682H120.256L116.736 74.7682C116.555 75.2482 116.336 75.6269 116.08 75.9042C115.835 76.1922 115.542 76.3949 115.2 76.5122C114.859 76.6402 114.464 76.7042 114.016 76.7042H112.832Z"
    fill="#7A77FF" />
  <rect x="11.5322" y="47.5322" width="133" height="43" rx="21.5" stroke="#7A77FF" />
  <path
    d="M14.4924 6.32521C14.1654 6.08171 13.7759 5.93621 13.3693 5.90567C12.9627 5.87514 12.5559 5.96083 12.1962 6.15276C11.8365 6.34469 11.5388 6.63494 11.3377 6.98965C11.1367 7.34436 11.0407 7.74891 11.0609 8.15612L12.5422 38.2153C12.6403 40.206 15.1551 41.0034 16.3823 39.4361L23.5187 30.3168C23.8039 29.9528 24.1641 29.6543 24.5748 29.4416C24.9855 29.229 25.4371 29.1072 25.8991 29.0845L37.9073 28.4927C39.9216 28.3935 40.7033 25.8235 39.0855 24.6203L14.4924 6.32521Z"
    fill="#DFDCFF" />
</svg>