<svg width="18" height="14" viewBox="0 0 18 14" fill="none" xmlns="http://www.w3.org/2000/svg">
<path d="M6 1.01858C4.59954 1.17534 2.89498 2.33641 2.04161 2.98166C1.69153 3.24637 1.5 3.6639 1.5 4.10279V11.3549C1.5 11.9949 2.27092 12.3661 2.8022 12.0091C3.70931 11.3995 4.94152 10.7073 6 10.5888M6 1.01858C8.48873 0.740013 9.51127 3.68972 12 3.41115M6 1.01858V10.5888M12 3.41115C13.0585 3.29267 14.2907 2.60047 15.1978 1.9909C15.7291 1.63388 16.5 2.00506 16.5 2.64515V9.89721C16.5 10.3361 16.3085 10.7536 15.9584 11.0183C15.105 11.6636 13.4005 12.8247 12 12.9814M12 3.41115V12.9814M6 10.5888C8.48873 10.3103 9.51127 13.26 12 12.9814" stroke="#716EA6" stroke-width="1.5"/>
</svg>
