<svg width="16" height="15" viewBox="0 0 16 15" fill="none" xmlns="http://www.w3.org/2000/svg">
<path d="M14.75 12.75V11.5155C14.75 10.9022 14.3766 10.3506 13.8071 10.1228L12.2815 9.51259C11.5571 9.22286 10.7316 9.53672 10.3828 10.2345L10.25 10.5C10.25 10.5 8.375 10.125 6.875 8.625C5.375 7.125 5 5.25 5 5.25L5.26551 5.11724C5.96328 4.76836 6.27714 3.94285 5.98741 3.21852L5.37717 1.69291C5.14937 1.12343 4.59781 0.75 3.98445 0.75H2.75C1.92157 0.75 1.25 1.42157 1.25 2.25C1.25 8.87742 6.62258 14.25 13.25 14.25C14.0784 14.25 14.75 13.5784 14.75 12.75Z" stroke="#716EA6" stroke-width="1.5" stroke-linejoin="round"/>
</svg>
